<svg xmlns="http://www.w3.org/2000/svg" width="1458" height="429" viewBox="0 0 1458 429" fill="none">
<g filter="url(#filter0_d_4222_1957)">
<path d="M1453.59 29.9052L1420.69 29.9413L1420.85 178.013L1453.75 177.977L1453.78 202.655L1420.88 202.691L1421.07 375.442L1453.97 375.406L1454 400.084L1388.19 400.156L1387.75 5.29883L1453.56 5.22655L1453.59 29.9052Z" fill="black"/>
<path d="M1355.03 169.859L1322.13 169.895L1321.99 42.389C1321.98 36.5621 1320.52 32.4506 1317.6 30.0545C1314.69 27.487 1311.34 26.2053 1307.57 26.2095C1305.34 26.2119 1303.12 26.6428 1300.89 27.5022C1298.83 28.1899 1296.86 29.3061 1294.98 30.8506C1293.27 32.2235 1291.81 33.9389 1290.62 35.9967C1289.59 37.883 1289.08 40.0258 1289.08 42.4251L1289.43 363.247C1289.44 365.646 1289.95 367.874 1290.98 369.929C1292.19 371.984 1293.64 373.782 1295.36 375.323C1297.25 376.692 1299.22 377.803 1301.28 378.658C1303.5 379.341 1305.73 379.681 1307.96 379.679C1311.73 379.675 1315.07 378.386 1317.98 375.812C1320.89 373.238 1322.34 369.038 1322.34 363.211L1322.18 219.252L1355.08 219.216L1355.24 363.175C1355.25 370.03 1353.8 376.115 1350.89 381.431C1347.99 386.576 1344.22 390.95 1339.6 394.554C1334.97 397.987 1329.66 400.563 1323.67 402.284C1317.67 404.176 1311.59 405.125 1305.42 405.132C1299.25 405.138 1293.25 404.288 1287.42 402.581C1281.59 400.873 1276.36 398.308 1271.73 394.886C1267.1 391.292 1263.41 386.926 1260.66 381.787C1257.91 376.478 1256.54 370.31 1256.53 363.283L1256.18 42.4613C1256.17 35.6061 1257.53 29.5206 1260.27 24.2049C1263.18 18.8889 1266.94 14.5146 1271.57 11.082C1276.19 7.6493 1281.5 5.07277 1287.5 3.35239C1293.49 1.46063 1299.57 0.511366 1305.74 0.50459C1311.91 0.497814 1317.91 1.34813 1323.74 3.05552C1329.57 4.76291 1334.8 7.41354 1339.43 11.0074C1344.06 14.4299 1347.75 18.796 1350.5 24.1058C1353.42 29.244 1354.88 35.3263 1354.89 42.3529L1355.03 169.859Z" fill="black"/>
<path d="M1231.89 400.328L1198.99 400.364L1193.75 315.023L1170.87 315.048L1166.08 400.4L1133.18 400.437L1165.65 5.54296L1198.55 5.50682L1231.89 400.328ZM1191.92 288.29L1182.19 87.7869L1172.64 288.311L1191.92 288.29Z" fill="black"/>
<path d="M1091.61 5.62426L1092.02 375.803L1124.92 375.767L1124.95 400.446L1059.14 400.518L1058.71 5.6604L1091.61 5.62426Z" fill="black"/>
<path d="M1034.22 178.438C1034.23 188.72 1032.35 196.692 1028.59 202.351C1024.82 207.84 1019.86 211.872 1013.69 214.45C1007.53 217.027 1000.5 218.577 992.617 219.1C984.734 219.452 976.68 219.632 968.454 219.641L968.652 400.617L935.748 400.653L935.314 5.7959L976.445 5.75072C991.012 5.73472 1002.15 7.09352 1009.87 9.82711C1017.75 12.5605 1023.5 15.9818 1027.1 20.091C1030.71 24.2001 1032.77 28.6537 1033.29 33.4518C1033.81 38.2498 1034.07 42.7054 1034.07 46.8185L1034.22 178.438ZM1001.17 46.8546C1001.16 42.7415 1000.56 39.5717 999.359 37.3451C998.328 35.1183 996.527 33.4921 993.955 32.4667C991.383 31.4412 987.955 30.8452 983.67 30.6785C979.557 30.5116 974.415 30.4316 968.246 30.4384L968.426 194.962C972.54 194.958 976.567 194.868 980.508 194.692C984.45 194.345 987.962 193.398 991.045 191.853C994.128 190.307 996.611 187.905 998.492 184.647C1000.37 181.217 1001.31 176.417 1001.3 170.248L1001.17 46.8546Z" fill="black"/>
<path d="M911.069 400.681L878.164 400.717L872.929 315.375L850.05 315.401L845.259 400.753L812.355 400.789L844.826 5.89526L877.73 5.85912L911.069 400.681ZM871.1 288.642L861.368 88.1392L851.82 288.663L871.1 288.642Z" fill="black"/>
<path d="M787.423 170.482L754.518 170.519L754.378 43.0125C754.372 37.1856 752.91 33.0742 749.994 30.678C747.078 28.1106 743.735 26.8289 739.964 26.833C737.737 26.8355 735.509 27.2664 733.282 28.1257C731.226 28.8135 729.257 29.9296 727.373 31.4741C725.661 32.847 724.206 34.5624 723.009 36.6203C721.982 38.5066 721.471 40.6494 721.473 43.0487L721.826 363.87C721.828 366.27 722.345 368.497 723.375 370.553C724.577 372.608 726.036 374.406 727.752 375.946C729.638 377.315 731.61 378.427 733.668 379.282C735.896 379.965 738.125 380.305 740.353 380.303C744.123 380.298 747.464 379.009 750.374 376.435C753.285 373.862 754.737 369.661 754.73 363.834L754.572 219.876L787.477 219.84L787.635 363.798C787.643 370.653 786.193 376.739 783.285 382.055C780.377 387.199 776.612 391.574 771.989 395.178C767.365 398.61 762.055 401.187 756.059 402.907C750.063 404.799 743.98 405.748 737.81 405.755C731.64 405.762 725.641 404.912 719.812 403.204C713.984 401.497 708.754 398.932 704.123 395.509C699.492 391.915 695.802 387.549 693.054 382.411C690.306 377.101 688.929 370.933 688.921 363.907L688.569 43.0848C688.561 36.2296 689.925 30.1442 692.662 24.8284C695.569 19.5125 699.335 15.1382 703.958 11.7055C708.582 8.27283 713.892 5.69631 719.888 3.97593C725.884 2.08417 731.967 1.1349 738.137 1.12813C744.306 1.12135 750.306 1.97166 756.134 3.67905C761.963 5.38645 767.193 8.03708 771.824 11.631C776.455 15.0535 780.145 19.4196 782.893 24.7293C785.812 29.8675 787.275 35.9498 787.283 42.9764L787.423 170.482Z" fill="black"/>
<path d="M664.283 400.952L631.378 400.988L626.143 315.646L603.264 315.672L598.473 401.024L565.569 401.06L598.04 6.16625L630.944 6.13011L664.283 400.952ZM624.314 288.913L614.582 88.4102L605.034 288.934L624.314 288.913Z" fill="black"/>
<path d="M548.683 6.22045L518.241 376.433L549.089 376.399L549.116 401.078L483.307 401.15L515.805 30.9352L482.9 30.9713L482.873 6.29272L548.683 6.22045Z" fill="black"/>
<path fill-rule="evenodd" clip-rule="evenodd" d="M142.43 27.6512C142.43 26.786 143.814 25.5747 145.544 25.2287C147.621 24.7095 147.794 24.3635 145.891 24.1904C141.911 24.0174 119.935 40.4559 119.935 43.7436C119.935 44.4358 123.915 41.4942 128.76 37.1682C133.605 32.8423 138.623 29.2085 140.007 29.2085C141.392 29.2085 142.43 28.5164 142.43 27.6512ZM327.58 35.957C327.58 37.6873 332.598 42.1863 333.463 41.1481C333.636 40.802 332.425 39.0716 330.694 37.3412C328.964 35.7839 327.58 35.0918 327.58 35.957ZM340.903 50.146C342.115 51.3573 343.499 51.8764 344.018 51.3573C344.537 50.8381 343.672 49.7999 341.942 49.2808C339.519 48.2426 339.346 48.4156 340.903 50.146ZM356.65 65.7194C359.245 67.9689 359.418 67.7958 357.169 65.0272C354.919 62.2586 353.535 61.3934 353.535 62.7777C353.535 63.1238 354.919 64.5081 356.65 65.7194ZM365.994 79.3893C367.032 79.3893 366.859 78.3511 365.648 76.7938C364.437 75.4095 363.225 74.1982 362.879 74.1982C362.533 74.1982 362.706 75.4095 363.225 76.7938C363.917 78.178 365.129 79.3893 365.994 79.3893ZM378.453 97.5582L375.165 92.3671C369.974 83.7152 367.378 80.2545 367.378 81.6388C367.378 84.0613 371.185 90.2906 374.819 93.9244L378.453 97.5582ZM383.125 105.518C385.893 108.806 386.239 108.979 384.855 106.21C381.913 100.327 379.491 97.3852 379.491 99.4616C379.491 100.673 381.048 103.268 383.125 105.518ZM49.5088 123.514C51.9313 121.956 54.3538 119.534 54.8729 117.977C56.6033 113.651 55.046 113.651 51.2392 117.977C45.3559 124.552 44.6637 126.801 49.5088 123.514ZM392.815 121.61C396.448 126.455 397.833 126.282 395.064 121.091C394.026 119.015 392.469 117.457 391.43 117.457C390.565 117.457 391.084 119.361 392.815 121.61ZM402.159 135.799C403.543 136.492 403.543 135.972 402.159 133.377C401.12 131.3 399.39 129.224 398.352 128.532C396.968 127.84 396.968 128.359 398.352 130.954C399.39 133.031 401.12 135.107 402.159 135.799ZM419.289 156.564C419.289 156.045 417.732 153.795 416.002 151.719C405.965 139.779 404.062 138.049 409.772 146.355C415.829 155.007 419.289 158.64 419.289 156.564ZM422.058 162.447C422.404 162.447 422.75 161.582 422.75 160.717C422.75 159.679 421.885 158.986 420.847 158.986C419.982 158.986 419.635 159.679 420.154 160.717C420.674 161.582 421.539 162.447 422.058 162.447ZM19.7464 164.697C17.4969 168.33 17.6699 168.33 20.6116 165.562C22.3419 163.831 23.3802 162.101 22.8611 161.755C22.3419 161.236 20.9576 162.62 19.7464 164.697ZM422.923 165.908C422.75 169.023 425.692 173.868 426.903 172.829C427.249 172.31 426.557 170.061 425.346 167.638C423.961 165.043 422.923 164.351 422.923 165.908ZM430.191 184.942C430.191 189.268 430.537 190.998 430.883 188.749C431.229 186.672 431.229 183.212 430.883 180.962C430.537 178.886 430.191 180.616 430.191 184.942ZM396.794 225.606C397.833 225.087 398.525 219.895 398.525 214.358C398.525 208.821 397.833 203.63 396.794 203.111C395.756 202.419 395.064 206.572 395.064 214.358C395.064 222.145 395.756 226.298 396.794 225.606ZM431.575 216.954L433.305 212.628C434.171 210.378 434.69 206.918 434.517 204.841C433.997 201.554 433.824 201.554 432.613 204.495C431.921 206.226 431.402 209.859 431.575 212.282V216.954ZM422.577 209.167C423.615 209.167 424.48 208.302 424.48 207.437C424.48 206.399 424.134 205.706 423.788 205.706C423.269 205.706 422.404 206.399 421.885 207.437C421.366 208.302 421.712 209.167 422.577 209.167ZM419.289 230.278C416.867 237.199 420.328 236.334 423.615 229.239C427.076 221.972 426.73 214.704 423.269 221.453C422.058 223.702 420.328 227.682 419.289 230.278ZM18.016 228.374L15.2474 224.048C12.3058 219.549 9.19112 218.165 9.19112 221.107C9.19112 221.972 11.2676 223.875 13.6901 225.606L18.016 228.374ZM396.794 240.314C397.66 238.93 398.525 236.334 398.525 234.604C398.525 233.046 397.833 231.662 396.794 231.662C395.929 231.662 395.064 234.258 395.064 237.199C395.064 241.525 395.583 242.217 396.794 240.314ZM30.3017 236.161C32.032 237.891 33.7624 238.757 34.4546 238.237C34.9737 237.545 33.5894 236.161 31.3399 235.123C29.4173 234.074 28.4657 233.555 28.3513 233.699C28.2392 233.841 28.9313 234.619 30.3017 236.161ZM41.376 238.584C41.7221 238.584 42.0682 237.718 42.0682 236.853C42.0682 235.815 41.203 235.123 40.1648 235.123C39.2996 235.123 38.9535 235.815 39.4726 236.853C39.9917 237.718 40.8569 238.584 41.376 238.584ZM420.328 239.795C419.289 242.217 419.462 242.39 421.193 240.833C422.404 239.622 422.923 238.237 422.404 237.718C421.885 237.199 420.847 238.064 420.328 239.795ZM395.237 262.117C395.237 264.02 395.756 264.539 396.275 263.155C396.795 261.944 396.621 260.386 396.102 259.867C395.583 259.175 395.064 260.213 395.237 262.117ZM66.2934 274.056C68.7159 275.613 68.3698 272.845 65.6012 269.211C64.39 267.654 62.8327 266.269 62.1405 266.269C60.5832 266.269 64.0439 272.672 66.2934 274.056Z" fill="black"/>
<path fill-rule="evenodd" clip-rule="evenodd" d="M168.904 13.6352C162.156 14.3273 154.369 16.0577 151.601 17.442C149.005 18.8263 143.295 21.7679 138.969 23.8444C131.009 27.6512 113.013 43.9167 103.323 56.2023C93.2872 68.661 87.9231 75.0634 87.0579 75.9285C86.3657 76.4477 83.5971 80.2545 80.6555 84.5804C77.7139 88.9063 73.561 93.4053 71.3115 94.6166C69.062 95.8278 65.9473 98.9425 64.39 101.711C62.8327 104.307 58.1607 108.806 54.0078 111.574C49.8549 114.343 45.1829 119.188 43.7986 122.129C42.4143 125.071 39.1266 130.089 36.531 133.204C33.7624 136.319 31.686 140.125 31.686 141.683C31.686 143.067 29.6095 146.701 27.014 149.642C18.3621 159.159 10.9215 170.753 9.88327 176.117C9.19112 179.059 7.63378 182.346 6.42252 183.385C4.69215 184.769 4 190.133 4 203.457C4 221.626 4 221.626 9.53719 226.817C16.1126 232.873 32.2051 243.775 34.8006 243.775C35.8388 243.775 37.0501 242.736 37.5692 241.525C38.0883 240.141 39.6457 241.006 42.0682 244.121C44.1446 246.889 47.0863 248.966 48.4706 248.966C52.2774 248.966 55.7381 254.157 55.9112 260.04C55.9112 266.789 62.6596 278.382 66.6395 278.382C68.889 278.382 69.7541 279.766 69.7541 282.708C69.7541 285.131 71.1384 289.629 72.8688 292.744C76.1565 298.8 82.2128 308.144 83.5971 309.529C84.1162 310.048 87.4039 314.72 90.8647 319.911C94.4985 325.102 99.5165 331.504 102.285 334.1C107.99 339.459 112.141 344.819 112.345 345.035V345.035L115.609 348.462C117.512 350.366 123.223 357.46 128.068 364.035C141.392 381.858 147.967 388.261 163.713 398.643C171.5 403.661 179.46 409.371 181.363 411.102C191.226 420.1 214.759 423.387 228.429 417.677C231.717 416.293 236.216 415.081 238.119 415.081C240.023 415.081 244.176 413.178 247.29 410.756C250.405 408.333 254.039 406.43 255.596 406.43C256.98 406.43 258.711 405.564 259.23 404.699C259.749 403.661 261.479 402.969 262.691 402.969C264.075 402.969 267.882 400.2 271.169 396.913C274.63 393.625 277.918 390.856 278.61 390.856C279.475 390.856 283.109 388.088 286.916 384.8C290.723 381.512 294.356 378.744 295.222 378.744C295.914 378.744 298.163 377.186 300.413 375.283C307.334 368.707 309.411 367.323 315.986 363.343C319.447 361.267 322.388 358.844 322.388 357.979C322.388 357.287 323.6 356.076 325.157 355.557C327.58 354.691 327.753 356.076 326.714 367.842L330.348 366.112C331.04 357.287 332.079 348.981 332.944 347.597C334.155 345.347 334.328 345.521 334.501 347.943C334.501 349.673 335.366 351.058 336.404 351.058C337.443 351.058 337.962 349.154 337.616 346.905C337.27 343.79 340.384 339.637 351.805 328.217C359.938 320.257 369.801 311.259 373.608 308.144C377.587 305.203 382.086 300.185 383.644 297.07C385.201 293.955 387.277 290.149 388.143 288.764C389.008 287.38 392.469 279.939 395.929 272.326C400.255 263.155 404.927 256.06 410.118 251.215C414.444 247.062 418.078 243.775 418.424 243.775C418.77 243.775 418.078 246.024 417.04 248.966C416.002 251.734 415.656 254.503 416.348 255.195C418.078 257.099 422.231 252.946 424.48 246.716C429.325 233.912 435.209 220.761 436.766 219.549C437.458 219.03 437.977 210.725 438.15 201.207C438.496 186.153 437.977 182.519 434.69 176.463C432.786 172.483 430.364 168.85 429.499 168.33C428.633 167.811 427.941 165.908 427.941 164.178C427.941 162.447 426.73 159.852 425.346 158.294C423.961 156.91 422.75 155.007 422.75 154.141C422.75 153.103 421.539 152.065 420.154 151.373C418.77 150.854 417.559 149.296 417.559 147.739C417.559 144.797 406.138 128.532 401.466 124.552C399.736 123.341 398.525 121.437 398.525 120.572C398.525 119.707 395.756 115.381 392.469 111.055C389.181 106.729 386.412 102.057 386.412 100.846C386.412 99.6346 385.72 98.4234 384.855 98.0773C383.99 97.7312 378.626 90.1176 372.569 81.1197C358.38 59.317 333.29 30.9389 328.099 30.9389C326.368 30.9389 320.485 28.3433 312.006 23.8444C303.181 18.9993 298.163 17.269 291.242 16.4038C272.035 13.9813 252.828 13.4621 238.292 15.0194C227.218 16.4037 220.643 16.2307 215.798 15.0194C206.973 12.5969 184.651 11.9048 168.904 13.6352ZM142.43 27.6512C142.43 26.786 143.814 25.5747 145.544 25.2287C147.621 24.7095 147.794 24.3635 145.891 24.1904C141.911 24.0174 119.935 40.4559 119.935 43.7436C119.935 44.4358 123.915 41.4942 128.76 37.1682C133.605 32.8423 138.623 29.2085 140.007 29.2085C141.392 29.2085 142.43 28.5164 142.43 27.6512ZM327.58 35.957C327.58 37.6873 332.598 42.1863 333.463 41.1481C333.636 40.802 332.425 39.0716 330.694 37.3412C328.964 35.7839 327.58 35.0918 327.58 35.957ZM340.903 50.146C342.115 51.3573 343.499 51.8764 344.018 51.3573C344.537 50.8381 343.672 49.7999 341.942 49.2808C339.519 48.2426 339.346 48.4156 340.903 50.146ZM269.266 93.7514C264.767 89.7715 254.731 81.2927 247.117 75.0633C239.504 68.834 231.198 61.7395 228.775 59.1439L224.103 54.645L220.47 62.9508C218.393 67.4497 216.836 72.2948 216.836 73.506C216.836 77.832 194.168 98.7695 179.806 107.594C177.037 109.325 173.75 111.92 172.365 113.305C170.981 114.689 169.078 115.727 168.212 115.727C164.579 115.727 167.174 118.669 174.442 122.476C178.768 124.725 183.959 128.013 186.035 129.743C187.939 131.647 190.707 133.031 192.091 133.031C193.303 133.031 194.341 133.896 194.341 134.761C194.341 138.049 189.15 138.568 184.824 135.799C182.574 134.242 179.287 133.031 177.556 133.031C173.576 133.031 163.021 125.59 163.886 123.341C164.232 122.303 164.059 120.572 163.367 119.534C161.983 117.284 136.2 135.799 120.8 149.815C119.589 151.027 117.685 152.065 116.647 152.065C115.609 152.065 114.744 152.757 114.744 153.795C114.744 154.66 113.879 155.526 113.013 155.526C110.937 155.526 109.899 156.391 101.766 163.485C98.9974 165.908 94.4985 169.023 91.9029 170.407C89.1343 171.791 87.0579 173.695 87.0579 174.56C87.0579 175.598 86.0196 176.29 84.9814 176.29C82.905 176.29 80.4825 178.713 68.5429 192.729C64.39 197.574 64.217 198.612 65.2552 211.763C65.7743 219.376 66.6395 234.085 67.3316 244.64C67.8507 255.022 69.4081 266.616 70.7924 270.249C72.1767 273.71 73.2149 278.901 73.2149 281.497C73.3879 284.092 75.2913 289.283 77.5408 293.09C79.9633 296.897 82.7319 301.742 83.9432 303.819C84.9814 306.068 86.5388 307.798 87.2309 307.798C87.9231 307.798 91.0377 311.951 93.9794 316.796C97.094 321.814 103.15 329.601 107.476 333.927C115.609 341.714 118.032 344.655 129.798 360.229C133.259 364.728 136.72 368.361 137.412 368.361C138.277 368.361 138.969 369.573 138.969 370.957C138.969 375.802 153.158 387.396 188.112 411.275C193.303 414.908 197.456 415.947 206.627 416.466C219.777 417.331 229.467 414.735 249.021 405.391C255.769 402.104 261.825 399.508 262.345 399.508C263.037 399.508 266.151 396.74 269.439 393.452C272.9 390.164 276.188 387.396 276.88 387.396C277.745 387.396 281.379 384.627 285.185 381.339C288.992 378.051 292.626 375.283 293.318 375.283C294.53 375.283 296.26 374.072 305.431 366.112C307.507 364.555 309.584 363.17 310.103 363.17C312.352 363.17 327.58 348.462 327.58 346.213C327.58 345.174 328.272 344.136 329.31 344.136C330.175 344.136 333.982 340.849 337.962 336.869C345.922 328.39 345.229 329.082 358.207 316.104C363.571 310.567 368.762 306.068 369.455 306.068C374.127 306.068 386.066 287.899 382.432 286.515C381.048 285.996 381.394 284.611 383.644 282.016C385.72 279.766 386.239 278.382 384.682 278.382C383.298 278.382 382.952 277.344 383.817 275.267C391.257 257.618 391.603 255.368 391.603 225.26C391.603 201.207 391.084 195.151 389.008 192.902C387.624 191.517 386.758 189.268 387.277 188.057C389.181 183.212 371.531 164.87 356.131 155.526C352.324 153.103 347.133 149.469 344.537 147.22C339 142.375 331.559 138.222 328.272 138.222C326.887 138.222 325.849 137.53 325.849 136.492C325.849 135.626 322.562 133.204 318.582 131.127C314.429 129.051 309.238 125.417 306.815 123.168C303.354 119.707 301.451 119.015 296.606 119.88C293.318 120.399 290.204 121.437 289.684 122.129C288.3 124.033 283.282 126.975 274.284 131.473C270.304 133.55 266.497 135.799 265.978 136.665C264.767 138.741 258.365 138.568 258.365 136.492C258.365 135.626 261.652 132.685 265.805 130.262C269.785 127.667 273.419 125.071 273.938 124.379C274.457 123.86 278.437 121.437 283.109 119.361C292.453 114.862 293.664 110.709 286.57 106.902C283.801 105.518 280.86 103.615 279.648 102.749C278.61 101.711 273.938 97.7312 269.266 93.7514ZM356.65 65.7194C359.245 67.9689 359.418 67.7958 357.169 65.0272C354.919 62.2586 353.535 61.3934 353.535 62.7777C353.535 63.1238 354.919 64.5081 356.65 65.7194ZM365.994 79.3893C367.032 79.3893 366.859 78.3511 365.648 76.7938C364.437 75.4095 363.225 74.1982 362.879 74.1982C362.533 74.1982 362.706 75.4095 363.225 76.7938C363.917 78.178 365.129 79.3893 365.994 79.3893ZM378.453 97.5582L375.165 92.3671C369.974 83.7152 367.378 80.2545 367.378 81.6388C367.378 84.0613 371.185 90.2906 374.819 93.9244L378.453 97.5582ZM383.125 105.518C385.893 108.806 386.239 108.979 384.855 106.21C381.913 100.327 379.491 97.3852 379.491 99.4616C379.491 100.673 381.048 103.268 383.125 105.518ZM49.5088 123.514C51.9313 121.956 54.3538 119.534 54.8729 117.977C56.6033 113.651 55.046 113.651 51.2392 117.977C45.3559 124.552 44.6637 126.801 49.5088 123.514ZM392.815 121.61C396.448 126.455 397.833 126.282 395.064 121.091C394.026 119.015 392.469 117.457 391.43 117.457C390.565 117.457 391.084 119.361 392.815 121.61ZM402.159 135.799C403.543 136.492 403.543 135.972 402.159 133.377C401.12 131.3 399.39 129.224 398.352 128.532C396.968 127.84 396.968 128.359 398.352 130.954C399.39 133.031 401.12 135.107 402.159 135.799ZM419.289 156.564C419.289 156.045 417.732 153.795 416.002 151.719C405.965 139.779 404.062 138.049 409.772 146.355C415.829 155.007 419.289 158.64 419.289 156.564ZM422.058 162.447C422.404 162.447 422.75 161.582 422.75 160.717C422.75 159.679 421.885 158.986 420.847 158.986C419.982 158.986 419.635 159.679 420.154 160.717C420.674 161.582 421.539 162.447 422.058 162.447ZM19.7464 164.697C17.4969 168.33 17.6699 168.33 20.6116 165.562C22.3419 163.831 23.3802 162.101 22.8611 161.755C22.3419 161.236 20.9576 162.62 19.7464 164.697ZM422.923 165.908C422.75 169.023 425.692 173.868 426.903 172.829C427.249 172.31 426.557 170.061 425.346 167.638C423.961 165.043 422.923 164.351 422.923 165.908ZM430.191 184.942C430.191 189.268 430.537 190.998 430.883 188.749C431.229 186.672 431.229 183.212 430.883 180.962C430.537 178.886 430.191 180.616 430.191 184.942ZM396.794 225.606C397.833 225.087 398.525 219.895 398.525 214.358C398.525 208.821 397.833 203.63 396.794 203.111C395.756 202.419 395.064 206.572 395.064 214.358C395.064 222.145 395.756 226.298 396.794 225.606ZM431.575 216.954L433.305 212.628C434.171 210.378 434.69 206.918 434.517 204.841C433.997 201.554 433.824 201.554 432.613 204.495C431.921 206.226 431.402 209.859 431.575 212.282V216.954ZM422.577 209.167C423.615 209.167 424.48 208.302 424.48 207.437C424.48 206.399 424.134 205.706 423.788 205.706C423.269 205.706 422.404 206.399 421.885 207.437C421.366 208.302 421.712 209.167 422.577 209.167ZM419.289 230.278C416.867 237.199 420.328 236.334 423.615 229.239C427.076 221.972 426.73 214.704 423.269 221.453C422.058 223.702 420.328 227.682 419.289 230.278ZM18.016 228.374L15.2474 224.048C12.3058 219.549 9.19112 218.165 9.19112 221.107C9.19112 221.972 11.2676 223.875 13.6901 225.606L18.016 228.374ZM396.794 240.314C397.66 238.93 398.525 236.334 398.525 234.604C398.525 233.046 397.833 231.662 396.794 231.662C395.929 231.662 395.064 234.258 395.064 237.199C395.064 241.525 395.583 242.217 396.794 240.314ZM30.3017 236.161C32.032 237.891 33.7624 238.757 34.4546 238.237C34.9737 237.545 33.5894 236.161 31.3399 235.123C29.4173 234.074 28.4657 233.555 28.3513 233.699C28.2392 233.841 28.9313 234.619 30.3017 236.161ZM41.376 238.584C41.7221 238.584 42.0682 237.718 42.0682 236.853C42.0682 235.815 41.203 235.123 40.1648 235.123C39.2996 235.123 38.9535 235.815 39.4726 236.853C39.9917 237.718 40.8569 238.584 41.376 238.584ZM420.328 239.795C419.289 242.217 419.462 242.39 421.193 240.833C422.404 239.622 422.923 238.237 422.404 237.718C421.885 237.199 420.847 238.064 420.328 239.795ZM395.237 262.117C395.237 264.02 395.756 264.539 396.275 263.155C396.795 261.944 396.621 260.386 396.102 259.867C395.583 259.175 395.064 260.213 395.237 262.117ZM66.2934 274.056C68.7159 275.613 68.3698 272.845 65.6012 269.211C64.39 267.654 62.8327 266.269 62.1405 266.269C60.5832 266.269 64.0439 272.672 66.2934 274.056Z" fill="black"/>
<path d="M299.896 131.128C299.896 131.993 297.3 133.551 294.359 134.762C287.437 137.531 277.401 144.798 277.401 147.048C277.401 147.913 278.612 148.605 279.996 148.605C281.381 148.605 282.592 147.913 282.592 147.048C282.592 145.49 293.147 139.261 303.876 134.416C309.759 131.82 309.932 129.571 304.222 129.571C301.799 129.571 299.896 130.263 299.896 131.128Z" fill="black"/>
<path d="M156.271 136.491C156.271 137.356 158.521 138.221 161.289 138.221C164.058 138.221 167.519 139.433 169.076 140.817C170.46 142.201 172.018 143.413 172.71 143.413C173.229 143.413 175.998 145.143 178.766 147.219C181.535 149.296 184.476 150.334 185.168 149.642C186.034 148.95 184.649 146.873 182.227 145.143C179.804 143.413 175.998 140.298 173.748 138.395C169.422 134.588 156.271 133.203 156.271 136.491Z" fill="black"/>
<path d="M285.364 148.429C275.847 151.717 271.521 157.081 280.173 154.659C282.941 153.793 291.42 153.274 299.034 153.447C315.992 153.966 334.507 152.236 334.507 150.333C334.507 148.775 323.259 147.045 305.955 146.007C297.304 145.488 291.42 146.18 285.364 148.429Z" fill="black"/>
<path d="M142.261 149.643C136.896 152.411 132.917 156.91 134.301 158.294C134.82 158.814 139.665 157.775 145.029 155.699C155.411 151.719 165.967 150.854 167.005 153.969C167.87 156.564 196.075 158.294 196.075 155.699C196.075 154.661 193.134 153.796 189.154 153.796C185.347 153.796 178.252 152.238 173.234 150.335C162.852 146.355 149.009 146.009 142.261 149.643Z" fill="black"/>
<path d="M209.915 158.638C209.915 160.715 221.509 163.483 223.239 161.753C224.97 160.196 223.585 159.331 216.491 158.119C212.165 157.254 209.915 157.6 209.915 158.638Z" fill="black"/>
<path d="M235.524 159.16C234.313 160.026 231.545 160.718 229.468 160.718C227.219 160.718 225.488 161.41 225.488 162.448C225.488 163.313 227.219 164.178 229.468 164.178C232.929 164.352 232.929 164.525 230.333 166.082C227.219 167.812 226.007 172.83 228.603 172.83C229.295 172.83 232.064 170.927 234.659 168.677C237.428 166.255 243.484 163.486 248.156 162.275C252.828 161.064 256.635 159.506 256.635 158.814C256.635 157.084 238.466 157.43 235.524 159.16Z" fill="black"/>
<path d="M160.256 161.93C153.334 162.276 147.624 163.314 147.624 164.179C147.624 166.083 163.89 166.429 176.002 164.871C185 163.487 186.904 160.545 178.425 161.064C175.31 161.238 167.004 161.757 160.256 161.93Z" fill="black"/>
<path d="M202.995 163.833C202.995 165.39 213.204 169.37 217.357 169.37C222.202 169.37 220.644 166.775 214.588 164.525C208.013 162.103 202.995 161.756 202.995 163.833Z" fill="black"/>
<path d="M282.595 164.006C282.595 164.871 289.344 165.909 297.822 166.255C306.128 166.774 314.261 167.812 315.991 168.505C318.068 169.37 318.933 169.024 318.933 167.12C318.933 165.736 316.683 164.179 313.569 163.486C305.436 161.929 282.595 162.275 282.595 164.006Z" fill="black"/>
<path d="M179.982 189.269C177.386 191.691 174.098 193.595 172.887 193.595C170.465 193.595 152.815 211.937 152.815 214.532C152.815 215.397 151.257 216.955 149.354 218.166C145.893 220.416 144.509 224.741 147.451 224.741C148.316 224.741 150.911 222.319 153.161 219.55C165.793 202.939 174.444 195.498 187.941 189.615C190.537 188.577 192.613 187.019 192.613 186.327C192.613 183.386 184.481 185.289 179.982 189.269Z" fill="black"/>
<path d="M261.826 193.592C261.826 194.457 263.383 196.188 265.286 197.399C268.055 199.302 268.747 201.379 268.747 210.03C268.574 223.354 264.767 228.719 256.808 227.161C252.136 226.123 250.578 226.988 244.522 233.044C240.888 237.024 232.582 243.427 226.353 247.407L214.933 254.674L207.665 247.753C194.341 235.121 191.919 233.391 187.939 233.391C185.689 233.391 183.959 232.352 183.959 230.968C183.959 229.584 182.748 228.199 181.363 227.507C179.46 226.815 178.768 223.873 178.768 217.298C178.768 208.992 179.46 207.435 184.824 202.244C188.112 198.956 190.88 195.668 190.88 194.976C190.88 191.862 186.381 193.938 181.017 199.821C175.653 205.705 175.307 206.916 175.307 217.99C175.307 229.065 175.653 230.103 179.633 232.006C182.055 233.044 183.959 234.429 183.959 235.121C183.959 235.813 186.208 237.37 188.804 238.409C191.572 239.62 197.629 244.292 202.301 248.964C210.434 257.27 211.126 257.616 220.816 257.616C229.987 257.616 231.544 257.097 236.043 252.252C238.812 249.31 241.061 245.849 241.061 244.638C241.061 240.658 255.077 231.66 261.306 231.66C264.421 231.66 267.017 230.968 267.017 230.103C267.017 229.238 268.228 227.161 269.785 225.604C275.149 220.413 277.399 202.071 273.419 196.88C270.997 193.592 261.826 190.996 261.826 193.592ZM231.371 251.559C230.679 252.944 229.122 254.155 227.564 254.155C225.315 254.155 225.488 253.636 228.256 251.559C232.409 248.445 232.582 248.445 231.371 251.559Z" fill="black"/>
<path d="M273.943 193.42C273.943 194.286 274.981 195.324 276.193 195.843C277.231 196.189 282.768 200.169 288.132 204.668C297.476 212.282 303.359 214.704 303.359 210.897C303.359 209.859 302.494 209.167 301.456 209.167C300.418 209.167 294.708 205.187 288.651 200.515C278.096 192.209 273.943 190.133 273.943 193.42Z" fill="black"/>
<path d="M317.201 235.643C317.201 236.854 318.412 239.45 319.797 241.353C322.565 244.987 323.257 250.697 321.008 250.697C318.585 250.697 312.875 262.464 314.432 264.021C315.298 264.713 316.336 264.367 316.855 262.983C317.374 261.598 319.624 258.657 321.7 256.407C326.545 251.562 326.891 246.025 322.911 238.757C319.624 233.22 317.201 231.836 317.201 235.643Z" fill="black"/>
<path d="M346.618 240.485C346.618 241.696 348.349 247.06 350.252 252.597C354.578 264.364 353.886 268.69 346.618 276.822C341.6 282.533 339.697 288.762 343.157 288.762C344.196 288.762 344.888 287.724 344.888 286.339C344.888 285.128 346.618 282.187 348.868 279.764C358.039 269.382 359.077 263.152 353.54 250.867C351.636 246.714 350.079 242.388 350.079 241.004C350.079 239.619 349.387 238.581 348.349 238.581C347.483 238.581 346.618 239.446 346.618 240.485Z" fill="black"/>
<path fill-rule="evenodd" clip-rule="evenodd" d="M286.747 253.81C284.498 256.579 281.556 258.309 279.134 258.136C277.057 257.963 273.423 259.001 271.174 260.559C267.713 262.808 259.234 263.154 215.629 263.154C180.502 263.154 163.891 262.462 163.545 261.251C162.334 257.79 159.738 259.347 159.738 263.5C159.738 265.923 159.046 268.345 158.008 268.864C155.412 270.422 155.931 273.19 158.873 273.19C160.257 273.19 161.468 272.325 161.468 271.46C161.468 267.653 164.583 270.076 166.66 275.267C169.947 283.573 189.154 301.222 202.132 307.798C207.15 310.393 212.341 311.259 222.55 311.259C238.124 311.259 244.526 308.836 253.87 299.838C257.158 296.55 260.446 293.955 260.965 293.955C262.868 293.955 266.502 289.629 267.713 285.649C268.405 283.573 269.617 281.842 270.309 281.842C271.001 281.842 272.558 278.208 273.596 273.536C275.5 266.442 276.884 264.885 284.325 260.732C290.208 257.444 292.977 254.848 292.977 252.426C292.977 247.754 291.073 248.273 286.747 253.81ZM199.19 267.48C201.267 267.826 204.382 267.826 206.112 267.48C207.669 266.961 205.939 266.615 202.132 266.788C198.325 266.788 196.941 267.134 199.19 267.48ZM223.589 271.114C231.721 273.709 242.277 272.671 247.468 268.864C250.236 266.615 249.371 266.442 240.2 266.615C234.49 266.615 226.703 267.307 222.897 267.826L215.975 268.864L223.589 271.114ZM256.12 273.19C257.158 273.19 258.888 271.979 260.1 270.595C262.868 267.307 262.003 267.307 257.677 270.595C255.774 271.979 255.081 273.19 256.12 273.19ZM267.021 280.112C267.713 280.112 268.751 277.689 269.444 274.575C270.828 267.307 269.963 266.961 264.252 272.325C261.657 274.748 257.504 277.17 255.081 277.862C252.659 278.381 249.025 279.939 247.122 281.15C245.218 282.361 240.546 284.092 236.74 285.13C232.933 286.168 227.742 288.937 225.146 291.359C222.551 293.782 219.782 295.685 219.09 295.685C218.225 295.685 215.11 293.263 211.995 290.494C206.631 285.649 205.247 285.303 193.307 285.303C181.022 285.303 176.523 287.379 183.617 289.975C185.174 290.667 189.673 293.436 193.48 296.377C205.766 305.894 210.611 307.798 222.55 307.798C236.393 307.798 241.239 306.067 249.371 298.281C252.832 294.993 256.985 291.878 258.542 291.359C260.1 290.84 262.349 288.072 263.56 285.303C264.772 282.361 266.329 280.112 267.021 280.112ZM222.55 281.496C223.416 275.267 223.243 274.921 217.186 273.19C206.804 270.422 204.728 270.941 204.728 276.132C204.901 279.939 206.631 282.015 212.168 285.649C216.148 288.245 219.955 289.802 220.474 289.11C221.166 288.418 222.031 284.957 222.55 281.496ZM176.696 276.824C179.291 279.074 179.464 278.901 177.215 276.132C176.004 274.575 174.619 273.19 174.273 273.19C172.889 273.19 173.754 274.575 176.696 276.824ZM232.587 281.842C234.144 281.842 238.124 280.631 241.239 279.247L247.122 276.824L237.432 276.651C229.991 276.651 227.396 277.343 226.53 279.42C224.8 284.092 225.319 286.168 227.569 283.919C228.78 282.707 231.029 281.842 232.587 281.842Z" fill="black"/>
<path d="M305.086 327.177C301.799 332.195 298.165 338.079 297.127 340.155C295.223 343.789 286.744 353.306 276.189 364.207C273.94 366.457 272.209 368.706 272.209 369.225C272.209 369.745 269.441 373.032 266.153 376.493C262.865 379.954 260.097 383.414 260.097 384.28C260.097 386.01 265.288 386.183 265.288 384.28C265.288 383.068 269.614 377.877 283.284 362.304C299.203 344.481 301.626 341.539 301.626 340.328C301.626 339.636 304.394 334.791 307.682 329.6C314.084 319.564 314.603 318.179 312.181 318.179C311.489 318.179 308.201 322.332 305.086 327.177Z" fill="black"/>
<path d="M199.532 343.961C197.11 344.653 192.611 345.865 189.669 346.557C183.959 348.114 179.114 352.094 181.017 353.824C181.537 354.517 185.689 353.132 190.188 351.056C196.072 348.114 202.474 346.903 214.414 346.211C232.756 345.346 241.927 347.941 250.059 356.42C252.828 359.189 255.769 361.438 256.635 361.438C262.864 361.438 249.194 348.633 239.158 345.172C231.371 342.404 207.665 341.712 199.532 343.961Z" fill="black"/>
</g>
<defs>
<filter id="filter0_d_4222_1957" x="0" y="0.504639" width="1458" height="428.006" filterUnits="userSpaceOnUse" color-interpolation-filters="sRGB">
<feFlood flood-opacity="0" result="BackgroundImageFix"/>
<feColorMatrix in="SourceAlpha" type="matrix" values="0 0 0 0 0 0 0 0 0 0 0 0 0 0 0 0 0 0 127 0" result="hardAlpha"/>
<feOffset dy="4"/>
<feGaussianBlur stdDeviation="2"/>
<feComposite in2="hardAlpha" operator="out"/>
<feColorMatrix type="matrix" values="0 0 0 0 0 0 0 0 0 0 0 0 0 0 0 0 0 0 0.25 0"/>
<feBlend mode="normal" in2="BackgroundImageFix" result="effect1_dropShadow_4222_1957"/>
<feBlend mode="normal" in="SourceGraphic" in2="effect1_dropShadow_4222_1957" result="shape"/>
</filter>
</defs>
</svg>