<svg xmlns="http://www.w3.org/2000/svg" width="32769" height="5999" viewBox="0 0 32769 5999" fill="none">
<path d="M14545 1240.65C14097.2 1327.38 13680.7 1646.54 13479.4 2052.43C13087.2 2846.87 13361.4 3780.07 14111.1 4175.55C14388.8 4321.26 14642.2 4369.82 15020.5 4352.48C15294.8 4338.6 15364.2 4321.26 15593.3 4210.24C15846.7 4085.35 16193.8 3776.6 16166 3696.81C16159.1 3675.99 16061.9 3613.55 15950.8 3551.1L15749.5 3443.56L15662.7 3558.04C15610.6 3623.96 15475.3 3717.62 15360.7 3773.13C15107.3 3894.55 14763.7 3908.43 14486 3814.76C14229.1 3728.03 13941.1 3422.75 13864.7 3162.56C13774.4 2860.74 13805.7 2486.07 13937.6 2243.23C14267.3 1636.13 15155.9 1507.77 15634.9 2000.39L15763.4 2132.22L15968.1 2010.8C16079.2 1941.42 16172.9 1875.5 16172.9 1858.16C16172.9 1788.77 15791.1 1448.8 15617.6 1369.01C15298.2 1216.36 14899.1 1171.27 14545 1240.65Z" fill="black"/>
<path d="M28790 1244.03C28519.2 1296.06 28186 1472.99 27988.2 1670.73C27325.2 2333.34 27394.6 3492.04 28130.5 4036.7C28408.2 4241.38 28661.5 4331.57 29026 4352.39C29407.8 4373.2 29695.9 4300.35 29980.5 4116.49C30154.1 4005.47 30404 3759.16 30404 3700.19C30404 3675.9 30025.7 3457.35 29987.5 3457.35C29970.1 3457.35 29925 3502.45 29883.3 3561.42C29845.2 3616.93 29709.8 3710.6 29588.3 3773.04C29383.5 3873.65 29345.3 3880.58 29078.1 3866.71C28731 3852.83 28519.2 3759.16 28317.9 3533.67C27939.6 3103.49 27956.9 2399.26 28356.1 2000.3C28567.8 1788.68 28776.1 1708.89 29119.7 1708.89C29466.8 1708.89 29602.2 1757.46 29824.3 1962.14C29907.6 2041.93 29990.9 2104.38 30004.8 2104.38C30043 2104.38 30404 1882.35 30404 1858.07C30404 1844.19 30334.6 1757.46 30251.3 1663.79C29931.9 1309.94 29338.4 1139.95 28790 1244.03Z" fill="black"/>
<path d="M7693.82 1261.45C7679.94 1271.85 7669.53 1382.87 7669.53 1504.29V1722.84H8467.87H9266.21L8849.68 2267.5C7523.74 4002.08 7620.93 3863.31 7600.11 4106.15L7582.75 4324.71H8790.67H9995.13V4099.21V3873.72L9346.04 3866.78C8985.05 3863.31 8592.82 3866.78 8471.34 3870.25C8283.9 3880.66 8252.66 3873.72 8270.02 3828.62C8290.84 3769.64 9530.01 2132.2 9755.62 1858.14C9884.05 1705.5 9890.99 1681.21 9890.99 1466.13V1237.16H8804.56C8204.07 1237.16 7704.24 1247.57 7693.82 1261.45Z" fill="black"/>
<path d="M11334.7 1330.91C11265.3 1469.68 10237.9 4251.94 10237.9 4303.97C10237.9 4317.85 10355.9 4324.79 10501.7 4317.85L10765.5 4307.44L11220.2 3048.14C11470.1 2357.78 11685.3 1792.31 11695.7 1792.31C11716.5 1792.31 12192.1 3093.24 12185.1 3134.87C12185.1 3148.75 11976.9 3169.56 11730.4 3179.97L11275.7 3197.32L11425 3412.4L11574.2 3627.49L11976.9 3630.96H12383L12504.5 3967.47L12626 4307.44L12903.6 4317.85L13184.8 4328.26L13084.1 4057.67C13028.6 3908.49 12782.1 3232.01 12528.8 2555.52C12278.8 1879.04 12067.1 1303.16 12060.2 1278.87C12049.8 1251.12 11949.1 1237.24 11716.5 1237.24C11390.3 1237.24 11383.3 1237.24 11334.7 1330.91Z" fill="black"/>
<path d="M17470.7 1264.92C17449.8 1278.79 17352.6 1507.76 17255.5 1774.88C17158.3 2042.01 16915.3 2711.55 16714 3263.15C16512.6 3811.27 16346 4276.14 16346 4293.49C16346 4310.83 16467.5 4324.71 16616.8 4324.71H16884.1L17050.7 3842.5C17140.9 3575.37 17345.7 3002.96 17508.8 2565.85C17786.5 1809.57 17800.4 1778.35 17838.6 1878.96C17935.8 2128.74 18289.8 3124.38 18289.8 3148.67C18289.8 3166.01 18085 3183.36 17838.6 3186.83L17383.9 3197.23L17533.1 3412.32L17682.4 3627.41L18081.6 3637.82L18477.3 3648.22L18602.2 3977.79L18727.2 4307.36L18994.4 4317.77C19150.6 4324.71 19261.7 4314.3 19261.7 4293.49C19261.7 4276.14 19136.8 3918.82 18980.6 3502.52C18824.4 3086.22 18584.9 2427.08 18442.5 2038.54C18300.2 1649.99 18168.3 1310.02 18147.5 1282.26C18105.9 1233.69 17540.1 1216.35 17470.7 1264.92Z" fill="black"/>
<path d="M19644 1261.53C19644 1303.16 19786.3 1434.99 20001.5 1598.04L20171.6 1722.92H20574.2C21067.1 1722.92 21185.1 1768.02 21303.1 2000.46C21396.8 2187.79 21400.3 2350.84 21310.1 2545.11C21199 2791.42 21091.4 2833.05 20567.3 2833.05H20123L20133.4 2420.22L20147.3 2010.86L19904.3 1885.98C19772.4 1816.59 19661.3 1764.55 19657.8 1768.02C19654.4 1771.49 19647.4 2343.9 19640.5 3041.2L19626.6 4307.44L19897.3 4317.85L20168.1 4328.26L20157.7 3825.23L20147.3 3325.67L20633.2 3311.8C21171.2 3297.92 21323.9 3252.82 21563.5 3044.67C21986.9 2673.47 21993.9 1903.32 21580.8 1528.65C21306.6 1282.34 21209.4 1258.06 20383.3 1244.18C19949.4 1237.24 19644 1244.18 19644 1261.53Z" fill="black"/>
<path d="M22376.2 1257.98C22362.3 1271.85 22351.9 1969.15 22351.9 2805.22V4324.71H23306.4H24260.9V4099.21V3873.72L23740.3 3866.78C23455.7 3863.31 23146.7 3859.84 23056.5 3856.37H22889.9L22872.5 2555.44L22855.2 1254.51L22629.5 1244.1C22504.6 1237.16 22390 1244.1 22376.2 1257.98Z" fill="black"/>
<path d="M30827.5 1278.65C30837.9 1302.93 30949 1413.95 31080.9 1521.49L31316.9 1722.7H32025H32729.6V1479.86V1237.02H31771.6C31021.9 1237.02 30817.1 1247.43 30827.5 1278.65Z" fill="black"/>
<path d="M25270.4 2062.9C25110.8 2496.55 24874.7 3138.34 24746.3 3492.19C24614.4 3846.05 24492.9 4179.09 24472.1 4231.12L24433.9 4328.26L24715.1 4317.85L24996.2 4307.44L25058.7 4147.86C25090 4057.67 25294.7 3492.19 25509.9 2888.56C25801.5 2069.84 25912.6 1802.72 25936.9 1844.35C25982 1927.61 26412.4 3103.65 26412.4 3145.28C26412.4 3166.09 26242.3 3179.97 25961.2 3179.97H25509.9L25655.7 3405.46L25805 3627.49L26204.2 3637.9L26603.3 3648.31L26724.8 3984.81L26846.3 4324.79H27113.6C27262.8 4324.79 27384.3 4317.85 27384.3 4310.91C27384.3 4303.97 27228.1 3870.33 27040.7 3349.96C26853.2 2826.12 26606.8 2146.16 26495.7 1837.41L26290.9 1271.94H25926.5H25562L25270.4 2062.9Z" fill="black"/>
<path d="M30821.3 2236.1V2714.85L31029.6 2860.55L31234.4 3006.25H31914.7H32591.5V2780.76V2555.26L31959.8 2548.33L31324.6 2537.92L31335 2277.73L31345.4 2017.55L31081.6 1889.19L30821.3 1757.36V2236.1Z" fill="black"/>
<path d="M30821.3 3700.26V4324.71H31793.2H32768.6L32758.2 4088.81L32747.7 3856.37L32626.3 3852.9C32560.3 3849.44 32244.4 3845.97 31925.1 3842.5L31342 3839.03V3599.66V3360.28L31102.5 3218.05C30970.6 3141.73 30852.6 3075.81 30842.1 3075.81C30831.7 3075.81 30821.3 3356.82 30821.3 3700.26Z" fill="black"/>
<g filter="url(#filter0_d_4389_3518)">
<path fill-rule="evenodd" clip-rule="evenodd" d="M2052.99 216.387C2052.99 203.929 2072.92 186.488 2097.84 181.504C2127.74 174.03 2130.23 169.047 2102.82 166.556C2045.51 164.064 1729.08 400.764 1729.08 448.104C1729.08 458.071 1786.39 415.715 1856.15 353.425C1925.92 291.135 1998.17 238.812 2018.11 238.812C2038.04 238.812 2052.99 228.845 2052.99 216.387ZM4718.99 335.983C4718.99 360.899 4791.25 425.681 4803.7 410.731C4806.2 405.748 4788.75 380.832 4763.84 355.916C4738.92 333.491 4718.99 323.525 4718.99 335.983ZM4910.84 540.294C4928.28 557.735 4948.22 565.209 4955.69 557.735C4963.17 550.26 4950.71 535.311 4925.79 527.836C4890.91 512.886 4888.42 515.378 4910.84 540.294ZM5137.58 764.537C5174.95 796.927 5177.44 794.435 5145.05 754.57C5112.66 714.704 5092.73 702.247 5092.73 722.18C5092.73 727.163 5112.66 747.096 5137.58 764.537ZM5272.12 961.372C5287.07 961.372 5284.58 946.422 5267.14 923.998C5249.7 904.065 5232.26 886.624 5227.27 886.624C5222.29 886.624 5224.78 904.065 5232.26 923.998C5242.22 943.931 5259.67 961.372 5272.12 961.372ZM5451.52 1222.99L5404.18 1148.24C5329.43 1023.66 5292.05 973.831 5292.05 993.763C5292.05 1028.65 5346.87 1118.34 5399.19 1170.67L5451.52 1222.99ZM5518.79 1337.6C5558.66 1384.94 5563.64 1387.43 5543.71 1347.57C5501.35 1262.85 5466.47 1220.5 5466.47 1250.4C5466.47 1267.84 5488.89 1305.21 5518.79 1337.6ZM715.006 1596.73C749.889 1574.3 784.771 1539.42 792.246 1517C817.162 1454.71 794.737 1454.71 739.922 1517C655.208 1611.68 645.242 1644.07 715.006 1596.73ZM5658.32 1569.32C5710.64 1639.08 5730.58 1636.59 5690.71 1561.85C5675.76 1531.95 5653.33 1509.52 5638.39 1509.52C5625.93 1509.52 5633.4 1536.93 5658.32 1569.32ZM5792.86 1773.63C5812.8 1783.6 5812.8 1776.12 5792.86 1738.75C5777.92 1708.85 5753 1678.95 5738.05 1668.98C5718.12 1659.02 5718.12 1666.49 5738.05 1703.87C5753 1733.76 5777.92 1763.66 5792.86 1773.63ZM6039.53 2072.62C6039.53 2065.15 6017.11 2032.75 5992.19 2002.86C5847.68 1830.94 5820.27 1806.02 5902.49 1925.62C5989.7 2050.2 6039.53 2102.52 6039.53 2072.62ZM6079.4 2157.33C6084.38 2157.33 6089.36 2144.88 6089.36 2132.42C6089.36 2117.47 6076.91 2107.5 6061.96 2107.5C6049.5 2107.5 6044.51 2117.47 6051.99 2132.42C6059.46 2144.88 6071.92 2157.33 6079.4 2157.33ZM286.453 2189.73C254.062 2242.05 256.554 2242.05 298.911 2202.18C323.827 2177.27 338.776 2152.35 331.302 2147.37C323.827 2139.89 303.894 2159.83 286.453 2189.73ZM6091.85 2207.17C6089.36 2252.01 6131.72 2321.78 6149.16 2306.83C6154.15 2299.35 6144.18 2266.96 6126.74 2232.08C6106.8 2194.71 6091.85 2184.74 6091.85 2207.17ZM6196.5 2481.24C6196.5 2543.53 6201.48 2568.45 6206.47 2536.06C6211.45 2506.16 6211.45 2456.32 6206.47 2423.93C6201.48 2394.04 6196.5 2418.95 6196.5 2481.24ZM5715.62 3066.76C5730.57 3059.29 5740.54 2984.54 5740.54 2904.81C5740.54 2825.08 5730.57 2750.33 5715.62 2742.86C5700.68 2732.89 5690.71 2792.69 5690.71 2904.81C5690.71 3016.93 5700.68 3076.73 5715.62 3066.76ZM6216.44 2942.18L6241.35 2879.89C6253.81 2847.5 6261.28 2797.67 6258.79 2767.77C6251.32 2720.43 6248.82 2720.43 6231.38 2762.79C6221.42 2787.71 6213.94 2840.03 6216.44 2874.91V2942.18ZM6086.87 2830.06C6101.82 2830.06 6114.28 2817.6 6114.28 2805.15C6114.28 2790.2 6109.3 2780.23 6104.31 2780.23C6096.84 2780.23 6084.38 2790.2 6076.91 2805.15C6069.43 2817.6 6074.41 2830.06 6086.87 2830.06ZM6039.53 3134.04C6004.65 3233.7 6054.48 3221.24 6101.82 3119.09C6151.65 3014.44 6146.67 2909.79 6096.84 3006.97C6079.4 3039.36 6054.48 3096.66 6039.53 3134.04ZM261.537 3106.63L221.672 3044.34C179.315 2979.56 134.466 2959.63 134.466 3001.98C134.466 3014.44 164.365 3041.85 199.248 3066.76L261.537 3106.63ZM5715.62 3278.55C5728.08 3258.62 5740.54 3221.24 5740.54 3196.33C5740.54 3173.9 5730.57 3153.97 5715.62 3153.97C5703.17 3153.97 5690.71 3191.34 5690.71 3233.7C5690.71 3295.99 5698.18 3305.96 5715.62 3278.55ZM438.44 3218.75C463.356 3243.67 488.272 3256.12 498.238 3248.65C505.713 3238.68 485.78 3218.75 453.39 3203.8C425.706 3188.7 412.003 3181.23 410.357 3183.3C408.743 3185.34 418.708 3196.55 438.44 3218.75ZM597.902 3253.63C602.885 3253.63 607.868 3241.17 607.868 3228.72C607.868 3213.77 595.41 3203.8 580.461 3203.8C568.003 3203.8 563.019 3213.77 570.494 3228.72C577.969 3241.17 590.427 3253.63 597.902 3253.63ZM6054.48 3271.07C6039.53 3305.96 6042.02 3308.45 6066.94 3286.02C6084.38 3268.58 6091.85 3248.65 6084.38 3241.17C6076.9 3233.7 6061.96 3246.16 6054.48 3271.07ZM5693.2 3592.49C5693.2 3619.9 5700.68 3627.37 5708.15 3607.44C5715.63 3590 5713.13 3567.57 5705.66 3560.1C5698.18 3550.13 5690.71 3565.08 5693.2 3592.49ZM956.69 3764.41C991.573 3786.83 986.589 3746.97 946.724 3694.64C929.283 3672.22 906.859 3652.29 896.892 3652.29C874.468 3652.29 924.3 3744.48 956.69 3764.41Z" fill="black"/>
<path fill-rule="evenodd" clip-rule="evenodd" d="M2434.2 14.5689C2337.03 24.5352 2224.91 49.45 2185.04 69.3827C2147.67 89.3154 2065.45 131.673 2003.16 161.572C1888.54 216.387 1629.42 450.597 1489.89 627.499C1345.38 806.894 1268.14 899.082 1255.68 911.54C1245.71 919.015 1205.85 973.83 1163.49 1036.12C1121.14 1098.41 1061.34 1163.19 1028.95 1180.63C996.556 1198.07 951.707 1242.92 929.283 1282.79C906.859 1320.16 839.586 1384.94 779.788 1424.81C719.99 1464.67 652.717 1534.44 632.784 1576.79C612.851 1619.15 565.511 1691.41 528.137 1736.26C488.272 1781.1 458.373 1835.92 458.373 1858.34C458.373 1878.28 428.474 1930.6 391.1 1972.96C266.52 2109.99 159.382 2276.93 144.433 2354.17C134.466 2396.53 112.042 2443.87 94.6008 2458.82C69.6849 2478.75 59.7186 2555.99 59.7186 2747.84C59.7186 3009.46 59.7186 3009.46 139.449 3084.2C234.13 3171.41 465.847 3328.38 503.221 3328.38C518.171 3328.38 535.612 3313.43 543.087 3295.99C550.562 3276.06 572.986 3288.51 607.868 3333.36C637.767 3373.23 680.124 3403.13 700.057 3403.13C754.872 3403.13 804.704 3477.88 807.195 3562.59C807.195 3659.76 904.367 3826.7 961.674 3826.7C994.064 3826.7 1006.52 3846.63 1006.52 3888.99C1006.52 3923.87 1026.45 3988.65 1051.37 4033.5C1098.71 4120.71 1185.92 4255.25 1205.85 4275.18C1213.32 4282.66 1260.66 4349.93 1310.5 4424.68C1362.82 4499.43 1435.08 4591.62 1474.94 4628.99C1557.09 4706.16 1616.86 4783.34 1619.8 4786.45L1666.79 4835.79C1694.2 4863.2 1776.42 4965.35 1846.19 5060.03C2038.04 5316.67 2132.72 5408.86 2359.46 5558.35C2471.58 5630.61 2586.19 5712.83 2613.6 5737.75C2755.62 5867.31 3094.47 5914.65 3291.31 5832.43C3338.65 5812.49 3403.43 5795.05 3430.84 5795.05C3458.25 5795.05 3518.04 5767.65 3562.89 5732.76C3607.74 5697.88 3660.06 5670.47 3682.49 5670.47C3702.42 5670.47 3727.34 5658.02 3734.81 5645.56C3742.29 5630.61 3767.2 5620.64 3784.64 5620.64C3804.58 5620.64 3859.39 5580.78 3906.73 5533.44C3956.56 5486.1 4003.9 5446.23 4013.87 5446.23C4026.33 5446.23 4078.65 5406.36 4133.47 5359.02C4188.28 5311.68 4240.6 5271.82 4253.06 5271.82C4263.03 5271.82 4295.42 5249.39 4327.81 5221.99C4427.47 5127.31 4457.37 5107.37 4552.05 5050.07C4601.89 5020.17 4646.11 4972.61 4646.11 4972.61C4654.5 4965.87 4659.15 4966.09 4684.11 4937.95C4717.81 4920.47 4776.47 4842.25 4776.47 4842.25C4793.91 4809.86 4815.58 4803.4 4815.58 4803.4L4874.24 4764.04C4887.28 4744.48 4903.37 4708.72 5067.81 4544.28C5184.92 4429.66 5326.94 4300.1 5381.75 4255.25C5439.06 4212.89 5503.84 4140.64 5526.26 4095.79C5548.69 4050.94 5578.59 3996.13 5591.05 3976.19C5603.5 3956.26 5653.34 3849.12 5703.17 3739.49C5765.46 3607.44 5832.73 3505.28 5907.48 3435.52C5969.77 3375.72 6022.09 3328.38 6027.07 3328.38C6032.06 3328.38 6022.09 3360.77 6007.14 3403.13C5992.19 3442.99 5987.21 3482.86 5997.18 3492.83C6022.09 3520.23 6081.89 3460.43 6114.28 3370.74C6184.04 3186.36 6268.76 2997 6291.18 2979.56C6301.15 2972.08 6308.62 2852.49 6311.11 2715.45C6316.1 2498.68 6308.62 2446.36 6261.28 2359.15C6233.88 2301.85 6198.99 2249.52 6186.54 2242.05C6174.08 2234.57 6164.11 2207.17 6164.11 2182.25C6164.11 2157.33 6146.67 2119.96 6126.74 2097.54C6106.8 2077.6 6089.36 2050.2 6089.36 2037.74C6089.36 2022.79 6071.92 2007.84 6051.99 1997.87C6032.06 1990.4 6014.62 1967.97 6014.62 1945.55C6014.62 1903.19 5850.17 1668.98 5782.9 1611.68C5757.98 1594.24 5740.54 1566.83 5740.54 1554.37C5740.54 1541.91 5700.68 1479.62 5653.34 1417.33C5606 1355.04 5566.13 1287.77 5566.13 1270.33C5566.13 1252.89 5556.16 1235.45 5543.71 1230.46C5531.25 1225.48 5454.01 1115.85 5366.8 986.287C5162.49 672.347 4801.21 263.727 4726.46 263.727C4701.55 263.727 4616.83 226.354 4494.75 161.572C4367.67 91.808 4295.42 66.8918 4195.76 54.4338C3919.19 19.5516 3642.62 12.0765 3433.33 34.5008C3273.87 54.4335 3179.19 51.9419 3109.42 34.5008C2982.35 -0.381398 2660.94 -10.347 2434.2 14.5689ZM2052.99 216.387C2052.99 203.929 2072.92 186.488 2097.84 181.504C2127.74 174.03 2130.23 169.047 2102.82 166.556C2045.51 164.064 1729.08 400.764 1729.08 448.104C1729.08 458.071 1786.39 415.715 1856.15 353.425C1925.92 291.135 1998.17 238.812 2018.11 238.812C2038.04 238.812 2052.99 228.845 2052.99 216.387ZM4718.99 335.983C4718.99 360.899 4791.25 425.681 4803.7 410.731C4806.2 405.748 4788.75 380.832 4763.84 355.916C4738.92 333.491 4718.99 323.525 4718.99 335.983ZM4910.84 540.294C4928.28 557.735 4948.22 565.209 4955.69 557.735C4963.17 550.26 4950.71 535.311 4925.79 527.836C4890.91 512.886 4888.42 515.378 4910.84 540.294ZM3879.32 1168.17C3814.54 1110.87 3670.03 988.78 3560.4 899.082C3450.77 809.385 3331.17 707.23 3296.29 669.856L3229.02 605.075L3176.7 724.671C3146.8 789.452 3124.37 859.217 3124.37 876.658C3124.37 938.948 2797.97 1240.43 2591.17 1367.5C2551.31 1392.42 2503.97 1429.79 2484.03 1449.72C2464.1 1469.66 2436.69 1484.61 2424.24 1484.61C2371.91 1484.61 2409.29 1526.96 2513.93 1581.78C2576.22 1614.17 2650.97 1661.51 2680.87 1686.42C2708.28 1713.83 2748.14 1733.76 2768.08 1733.76C2785.52 1733.76 2800.47 1746.22 2800.47 1758.68C2800.47 1806.02 2725.72 1813.5 2663.43 1773.63C2631.04 1751.21 2583.7 1733.76 2558.78 1733.76C2501.48 1733.76 2349.49 1626.63 2361.95 1594.24C2366.93 1579.29 2364.44 1554.37 2354.47 1539.42C2334.54 1507.03 1963.29 1773.63 1741.54 1975.45C1724.1 1992.89 1696.69 2007.84 1681.74 2007.84C1666.79 2007.84 1654.34 2017.81 1654.34 2032.75C1654.34 2045.21 1641.88 2057.67 1629.42 2057.67C1599.52 2057.67 1584.57 2070.13 1467.47 2172.28C1427.6 2207.17 1362.82 2252.01 1325.45 2271.95C1285.58 2291.88 1255.68 2319.29 1255.68 2331.74C1255.68 2346.69 1240.73 2356.66 1225.78 2356.66C1195.88 2356.66 1161 2391.54 989.081 2593.36C929.283 2663.13 926.791 2678.08 941.741 2867.44C945.665 2924.99 950.962 3010.68 956.55 3101.1C961.608 3182.94 966.905 3268.63 971.64 3340.84C979.115 3490.33 1001.54 3657.27 1021.47 3709.59C1041.4 3759.43 1056.35 3834.17 1056.35 3871.55C1058.85 3908.92 1086.25 3983.67 1118.64 4038.48C1144.37 4078.91 1172.81 4127.47 1192.96 4162.17C1193.99 4163.94 1194.99 4165.67 1195.98 4167.37C1197.65 4170.26 1199.26 4173.03 1200.79 4175.68C1200.88 4175.83 1200.97 4175.98 1201.06 4176.13C1204.8 4182.58 1208.09 4188.26 1210.83 4192.96C1225.78 4225.35 1248.21 4250.27 1258.17 4250.27C1268.14 4250.27 1312.99 4310.07 1355.34 4379.83C1400.19 4452.09 1487.4 4564.21 1549.69 4626.5C1666.79 4738.62 1701.68 4780.98 1871.1 5005.22C1920.94 5070 1970.77 5122.32 1980.73 5122.32C1993.19 5122.32 2003.16 5139.77 2003.16 5159.7C2003.16 5229.46 2207.47 5396.4 2710.77 5740.24C2785.52 5792.56 2845.31 5807.51 2977.37 5814.99C3166.73 5827.44 3306.26 5790.07 3587.81 5655.52C3684.98 5608.18 3772.19 5570.81 3779.66 5570.81C3789.63 5570.81 3834.48 5530.94 3881.82 5483.6C3931.65 5436.26 3978.99 5396.4 3988.95 5396.4C4001.41 5396.4 4053.74 5356.53 4108.55 5309.19C4163.37 5261.85 4215.69 5221.99 4225.65 5221.99C4243.1 5221.99 4268.01 5204.55 4400.07 5089.93C4429.97 5067.51 4459.86 5047.58 4467.34 5047.58C4499.73 5047.58 4718.99 4835.79 4718.99 4803.4C4718.99 4788.45 4728.96 4773.5 4743.9 4773.5C4756.36 4773.5 4811.18 4726.16 4868.48 4668.85C4879.8 4656.81 4889.89 4646.04 4899.09 4636.25C4926.67 4606.87 4946.11 4586.22 4965.75 4565.77C5003.4 4526.57 5041.78 4488.09 5139.62 4390.24C5146.15 4383.72 5152.93 4376.93 5160 4369.86C5237.24 4290.13 5311.99 4225.35 5321.95 4225.35C5389.23 4225.35 5561.15 3963.74 5508.82 3943.8C5488.89 3936.33 5493.87 3916.4 5526.26 3879.02C5556.16 3846.63 5563.64 3826.7 5541.21 3826.7C5521.28 3826.7 5516.3 3811.75 5528.76 3781.85C5635.89 3527.71 5640.88 3495.32 5640.88 3061.78C5640.88 2715.45 5633.4 2628.24 5603.5 2595.85C5583.57 2575.92 5571.11 2543.53 5578.59 2526.09C5606 2456.32 5351.85 2192.22 5130.1 2057.67C5075.29 2022.79 5000.54 1970.47 4963.16 1938.07C4883.43 1868.31 4776.3 1808.51 4728.96 1808.51C4709.02 1808.51 4694.07 1798.55 4694.07 1783.6C4694.07 1771.14 4646.73 1736.26 4589.43 1706.36C4529.63 1676.46 4454.88 1624.13 4420 1591.74C4370.17 1541.91 4342.76 1531.95 4272.99 1544.4C4225.65 1551.88 4180.81 1566.83 4173.33 1576.79C4153.4 1604.2 4081.14 1646.56 3951.58 1711.34C3894.27 1741.24 3839.46 1773.63 3831.98 1786.09C3814.54 1815.99 3722.35 1813.5 3722.35 1783.6C3722.35 1771.14 3769.69 1728.78 3829.49 1693.9C3886.8 1656.53 3939.12 1619.15 3946.6 1609.19C3954.07 1601.71 4011.38 1566.83 4078.65 1536.93C4213.2 1472.15 4230.64 1412.35 4128.48 1357.53C4088.62 1337.6 4046.26 1310.19 4028.82 1297.74C4013.87 1282.79 3946.6 1225.48 3879.32 1168.17ZM5137.58 764.537C5174.95 796.927 5177.44 794.435 5145.05 754.57C5112.66 714.704 5092.73 702.247 5092.73 722.18C5092.73 727.163 5112.66 747.096 5137.58 764.537ZM5272.12 961.372C5287.07 961.372 5284.58 946.422 5267.14 923.998C5249.7 904.065 5232.26 886.624 5227.27 886.624C5222.29 886.624 5224.78 904.065 5232.26 923.998C5242.22 943.931 5259.67 961.372 5272.12 961.372ZM5451.52 1222.99L5404.18 1148.24C5329.43 1023.66 5292.05 973.831 5292.05 993.763C5292.05 1028.65 5346.87 1118.34 5399.19 1170.67L5451.52 1222.99ZM5518.79 1337.6C5558.66 1384.94 5563.64 1387.43 5543.71 1347.57C5501.35 1262.85 5466.47 1220.5 5466.47 1250.4C5466.47 1267.84 5488.89 1305.21 5518.79 1337.6ZM715.006 1596.73C749.889 1574.3 784.771 1539.42 792.246 1517C817.162 1454.71 794.737 1454.71 739.922 1517C655.208 1611.68 645.242 1644.07 715.006 1596.73ZM5658.32 1569.32C5710.64 1639.08 5730.58 1636.59 5690.71 1561.85C5675.76 1531.95 5653.33 1509.52 5638.39 1509.52C5625.93 1509.52 5633.4 1536.93 5658.32 1569.32ZM5792.86 1773.63C5812.8 1783.6 5812.8 1776.12 5792.86 1738.75C5777.92 1708.85 5753 1678.95 5738.05 1668.98C5718.12 1659.02 5718.12 1666.49 5738.05 1703.87C5753 1733.76 5777.92 1763.66 5792.86 1773.63ZM6039.53 2072.62C6039.53 2065.15 6017.11 2032.75 5992.19 2002.86C5847.68 1830.94 5820.27 1806.02 5902.49 1925.62C5989.7 2050.2 6039.53 2102.52 6039.53 2072.62ZM6079.4 2157.33C6084.38 2157.33 6089.36 2144.88 6089.36 2132.42C6089.36 2117.47 6076.91 2107.5 6061.96 2107.5C6049.5 2107.5 6044.51 2117.47 6051.99 2132.42C6059.46 2144.88 6071.92 2157.33 6079.4 2157.33ZM286.453 2189.73C254.062 2242.05 256.554 2242.05 298.911 2202.18C323.827 2177.27 338.776 2152.35 331.302 2147.37C323.827 2139.89 303.894 2159.83 286.453 2189.73ZM6091.85 2207.17C6089.36 2252.01 6131.72 2321.78 6149.16 2306.83C6154.15 2299.35 6144.18 2266.96 6126.74 2232.08C6106.8 2194.71 6091.85 2184.74 6091.85 2207.17ZM6196.5 2481.24C6196.5 2543.53 6201.48 2568.45 6206.47 2536.06C6211.45 2506.16 6211.45 2456.32 6206.47 2423.93C6201.48 2394.04 6196.5 2418.95 6196.5 2481.24ZM5715.62 3066.76C5730.57 3059.29 5740.54 2984.54 5740.54 2904.81C5740.54 2825.08 5730.57 2750.33 5715.62 2742.86C5700.68 2732.89 5690.71 2792.69 5690.71 2904.81C5690.71 3016.93 5700.68 3076.73 5715.62 3066.76ZM6216.44 2942.18L6241.35 2879.89C6253.81 2847.5 6261.28 2797.67 6258.79 2767.77C6251.32 2720.43 6248.82 2720.43 6231.38 2762.79C6221.42 2787.71 6213.94 2840.03 6216.44 2874.91V2942.18ZM6086.87 2830.06C6101.82 2830.06 6114.28 2817.6 6114.28 2805.15C6114.28 2790.2 6109.3 2780.23 6104.31 2780.23C6096.84 2780.23 6084.38 2790.2 6076.91 2805.15C6069.43 2817.6 6074.41 2830.06 6086.87 2830.06ZM6039.53 3134.04C6004.65 3233.7 6054.48 3221.24 6101.82 3119.09C6151.65 3014.44 6146.67 2909.79 6096.84 3006.97C6079.4 3039.36 6054.48 3096.66 6039.53 3134.04ZM261.537 3106.63L221.672 3044.34C179.315 2979.56 134.466 2959.63 134.466 3001.98C134.466 3014.44 164.365 3041.85 199.248 3066.76L261.537 3106.63ZM5715.62 3278.55C5728.08 3258.62 5740.54 3221.24 5740.54 3196.33C5740.54 3173.9 5730.57 3153.97 5715.62 3153.97C5703.17 3153.97 5690.71 3191.34 5690.71 3233.7C5690.71 3295.99 5698.18 3305.96 5715.62 3278.55ZM438.44 3218.75C463.356 3243.67 488.272 3256.12 498.238 3248.65C505.713 3238.68 485.78 3218.75 453.39 3203.8C425.706 3188.7 412.003 3181.23 410.357 3183.3C408.743 3185.34 418.708 3196.55 438.44 3218.75ZM597.902 3253.63C602.885 3253.63 607.868 3241.17 607.868 3228.72C607.868 3213.77 595.41 3203.8 580.461 3203.8C568.003 3203.8 563.019 3213.77 570.494 3228.72C577.969 3241.17 590.427 3253.63 597.902 3253.63ZM6054.48 3271.07C6039.53 3305.96 6042.02 3308.45 6066.94 3286.02C6084.38 3268.58 6091.85 3248.65 6084.38 3241.17C6076.9 3233.7 6061.96 3246.16 6054.48 3271.07ZM5693.2 3592.49C5693.2 3619.9 5700.68 3627.37 5708.15 3607.44C5715.63 3590 5713.13 3567.57 5705.66 3560.1C5698.18 3550.13 5690.71 3565.08 5693.2 3592.49ZM956.69 3764.41C991.573 3786.83 986.589 3746.97 946.724 3694.64C929.283 3672.22 906.859 3652.29 896.892 3652.29C874.468 3652.29 924.3 3744.48 956.69 3764.41Z" fill="black"/>
<path d="M4317.98 1706.65C4317.98 1719.11 4280.61 1741.53 4238.25 1758.97C4138.58 1798.84 3994.07 1903.48 3994.07 1935.87C3994.07 1948.33 4011.51 1958.3 4031.45 1958.3C4051.38 1958.3 4068.82 1948.33 4068.82 1935.87C4068.82 1913.45 4220.81 1823.75 4375.29 1753.99C4460 1716.61 4462.49 1684.22 4380.27 1684.22C4345.39 1684.22 4317.98 1694.19 4317.98 1706.65Z" fill="black"/>
<path d="M2250.53 1783.81C2250.53 1796.26 2282.92 1808.72 2322.78 1808.72C2362.65 1808.72 2412.48 1826.16 2434.9 1846.1C2454.84 1866.03 2477.26 1883.47 2487.23 1883.47C2494.7 1883.47 2534.57 1908.39 2574.43 1938.28C2614.3 1968.18 2656.65 1983.13 2666.62 1973.17C2679.08 1963.2 2659.15 1933.3 2624.26 1908.39C2589.38 1883.47 2534.57 1838.62 2502.18 1811.21C2439.89 1756.4 2250.53 1736.47 2250.53 1783.81Z" fill="black"/>
<path d="M4110.2 1955.96C3973.16 2003.3 3910.87 2080.54 4035.45 2045.66C4075.32 2033.2 4197.4 2025.73 4307.03 2028.22C4551.21 2035.69 4817.81 2010.78 4817.81 1983.37C4817.81 1960.95 4655.86 1936.03 4406.7 1921.08C4282.12 1913.61 4197.4 1923.57 4110.2 1955.96Z" fill="black"/>
<path d="M2049.94 1973.46C1972.7 2013.33 1915.39 2078.11 1935.33 2098.04C1942.8 2105.52 2012.56 2090.57 2089.8 2060.67C2239.3 2003.36 2391.29 1990.91 2406.24 2035.75C2418.69 2073.13 2824.82 2098.04 2824.82 2060.67C2824.82 2045.72 2782.46 2033.26 2725.16 2033.26C2670.34 2033.26 2568.19 2010.84 2495.93 1983.43C2346.44 1926.12 2147.11 1921.14 2049.94 1973.46Z" fill="black"/>
<path d="M3023.56 2102.52C3023.56 2132.42 3190.5 2172.28 3215.41 2147.37C3240.33 2124.94 3220.4 2112.48 3118.24 2095.04C3055.95 2082.59 3023.56 2087.57 3023.56 2102.52Z" fill="black"/>
<path d="M3393.8 2110.35C3376.36 2122.81 3336.49 2132.78 3306.59 2132.78C3274.2 2132.78 3249.29 2142.75 3249.29 2157.69C3249.29 2170.15 3274.2 2182.61 3306.59 2182.61C3356.42 2185.1 3356.42 2187.59 3319.05 2210.02C3274.2 2234.93 3256.76 2307.19 3294.13 2307.19C3304.1 2307.19 3343.97 2279.78 3381.34 2247.39C3421.21 2212.51 3508.41 2172.64 3575.68 2155.2C3642.96 2137.76 3697.77 2115.34 3697.77 2105.37C3697.77 2080.46 3436.16 2085.44 3393.8 2110.35Z" fill="black"/>
<path d="M2308.98 2149.85C2209.31 2154.83 2127.09 2169.78 2127.09 2182.24C2127.09 2209.64 2361.3 2214.63 2535.71 2192.2C2665.27 2172.27 2692.68 2129.91 2570.59 2137.39C2525.74 2139.88 2406.15 2147.35 2308.98 2149.85Z" fill="black"/>
<path d="M2924.79 2177.75C2924.79 2200.18 3071.79 2257.48 3131.59 2257.48C3201.36 2257.48 3178.93 2220.11 3091.73 2187.72C2997.05 2152.84 2924.79 2147.85 2924.79 2177.75Z" fill="black"/>
<path d="M4070.51 2180.09C4070.51 2192.55 4167.69 2207.5 4289.77 2212.48C4409.37 2219.96 4526.47 2234.91 4551.39 2244.87C4581.29 2257.33 4593.75 2252.35 4593.75 2224.94C4593.75 2205.01 4561.36 2182.58 4516.51 2172.62C4399.4 2150.19 4070.51 2155.17 4070.51 2180.09Z" fill="black"/>
<path d="M2593.41 2543.84C2556.04 2578.72 2508.7 2606.13 2491.26 2606.13C2456.38 2606.13 2202.24 2870.24 2202.24 2907.61C2202.24 2920.07 2179.81 2942.49 2152.4 2959.93C2102.57 2992.32 2082.64 3054.61 2125 3054.61C2137.45 3054.61 2174.83 3019.73 2207.22 2979.87C2389.1 2740.67 2513.68 2633.54 2708.03 2548.82C2745.4 2533.87 2775.3 2511.45 2775.3 2501.48C2775.3 2459.12 2658.2 2486.53 2593.41 2543.84Z" fill="black"/>
<path d="M3772.09 2605.9C3772.09 2618.36 3794.51 2643.28 3821.92 2660.72C3861.79 2688.12 3871.75 2718.02 3871.75 2842.6C3869.26 3034.45 3814.45 3111.69 3699.83 3089.27C3632.56 3074.32 3522.93 3173.98 3522.93 3173.98C3522.93 3173.98 3522.93 3173.98 3261.31 3380.79C3261.31 3380.79 3171.27 3501.51 3096.87 3485.43C3041.71 3473.51 2992.22 3385.77 2992.22 3385.77C2800.37 3203.88 2765.49 3178.97 2708.18 3178.97C2675.79 3178.97 2612.87 3110.66 2607.36 3105.14C2579.95 3095.18 2576.13 3041.93 2576.13 2947.25C2576.13 2827.65 2586.09 2805.23 2663.33 2730.48C2710.67 2683.14 2750.54 2635.8 2750.54 2625.83C2750.54 2580.99 2685.76 2610.88 2608.52 2695.6C2531.28 2780.31 2526.3 2797.75 2526.3 2957.22C2526.3 3116.68 2531.28 3131.63 2588.58 3159.03C2623.47 3173.98 2650.87 3193.92 2650.87 3203.88C2650.87 3213.85 2683.27 3236.27 2720.64 3251.22C2760.5 3268.66 2847.71 3335.94 2914.98 3403.21C3032.09 3522.81 3042.05 3527.79 3181.58 3527.79C3313.64 3527.79 3336.06 3520.31 3400.84 3450.55C3440.71 3408.19 3473.1 3358.36 3473.1 3340.92C3473.1 3283.61 3674.92 3154.05 3764.61 3154.05C3809.46 3154.05 3846.84 3144.08 3846.84 3131.63C3846.84 3119.17 3864.28 3089.27 3886.7 3066.85C3963.94 2992.1 3996.33 2727.99 3939.03 2653.24C3904.14 2605.9 3772.09 2568.53 3772.09 2605.9ZM3333.57 3440.58C3323.6 3460.52 3301.18 3477.96 3278.75 3477.96C3246.36 3477.96 3248.86 3470.48 3288.72 3440.58C3348.52 3395.74 3351.01 3395.74 3333.57 3440.58Z" fill="black"/>
<path d="M3945.24 2603.41C3945.24 2615.87 3960.19 2630.82 3977.64 2638.29C3992.58 2643.27 4072.32 2700.58 4149.56 2765.36C4284.1 2874.99 4368.81 2909.87 4368.81 2855.06C4368.81 2840.11 4356.36 2830.14 4341.41 2830.14C4326.46 2830.14 4244.24 2772.84 4157.03 2705.56C4005.04 2585.97 3945.24 2556.07 3945.24 2603.41Z" fill="black"/>
<path d="M4569.73 3211.47C4569.73 3228.91 4587.17 3266.28 4607.1 3293.69C4646.97 3346.01 4656.94 3428.24 4624.55 3428.24C4589.66 3428.24 4507.44 3597.66 4529.87 3620.09C4542.32 3630.06 4557.27 3625.07 4564.75 3605.14C4572.22 3585.21 4604.61 3542.85 4634.51 3510.46C4704.28 3440.69 4709.26 3360.96 4651.95 3256.32C4604.61 3176.59 4569.73 3156.65 4569.73 3211.47Z" fill="black"/>
<path d="M4993.35 3281.15C4993.35 3298.59 5018.27 3375.83 5045.67 3455.56C5107.96 3624.99 5098 3687.28 4993.35 3804.38C4921.1 3886.6 4893.69 3976.3 4943.52 3976.3C4958.47 3976.3 4968.44 3961.35 4968.44 3941.42C4968.44 3923.98 4993.35 3881.62 5025.74 3846.74C5157.8 3697.24 5172.75 3607.55 5093.02 3430.64C5065.61 3370.84 5043.18 3308.55 5043.18 3288.62C5043.18 3268.69 5033.22 3253.74 5018.27 3253.74C5005.81 3253.74 4993.35 3266.2 4993.35 3281.15Z" fill="black"/>
<path fill-rule="evenodd" clip-rule="evenodd" d="M4130.84 3473.31C4098.44 3513.18 4056.09 3538.1 4021.21 3535.6C3991.31 3533.11 3938.98 3548.06 3906.59 3570.49C3856.76 3602.88 3734.67 3607.86 3106.79 3607.86C2601 3607.86 2361.81 3597.89 2356.82 3580.45C2339.38 3530.62 2302.01 3553.05 2302.01 3612.84C2302.01 3647.73 2292.04 3682.61 2277.09 3690.08C2239.72 3712.51 2247.19 3752.37 2289.55 3752.37C2309.48 3752.37 2326.93 3739.91 2326.93 3727.46C2326.93 3672.64 2371.77 3707.52 2401.67 3782.27C2449.01 3901.87 2725.58 4156.01 2912.45 4250.69C2984.7 4288.06 3059.45 4300.52 3206.46 4300.52C3430.7 4300.52 3522.89 4265.64 3657.43 4136.08C3704.77 4088.74 3752.11 4051.36 3759.59 4051.36C3787 4051.36 3839.32 3989.07 3856.76 3931.77C3866.73 3901.87 3884.17 3876.95 3894.13 3876.95C3904.1 3876.95 3926.52 3824.63 3941.47 3757.36C3968.88 3655.2 3988.81 3632.78 4095.95 3572.98C4180.67 3525.64 4220.53 3488.26 4220.53 3453.38C4220.53 3386.11 4193.12 3393.58 4130.84 3473.31ZM2870.09 3670.15C2899.99 3675.13 2944.84 3675.13 2969.76 3670.15C2992.18 3662.68 2967.26 3657.69 2912.45 3660.18C2857.63 3660.18 2837.7 3665.17 2870.09 3670.15ZM3221.41 3722.47C3338.51 3759.85 3490.5 3744.9 3565.24 3690.08C3605.11 3657.69 3592.65 3655.2 3460.6 3657.69C3378.38 3657.69 3266.25 3667.66 3211.44 3675.13L3111.78 3690.08L3221.41 3722.47ZM3689.82 3752.37C3704.77 3752.37 3729.69 3734.93 3747.13 3715C3787 3667.66 3774.54 3667.66 3712.25 3715C3684.84 3734.93 3674.87 3752.37 3689.82 3752.37ZM3846.79 3852.04C3856.76 3852.04 3871.71 3817.15 3881.68 3772.31C3901.61 3667.66 3889.15 3662.68 3806.93 3739.91C3769.55 3774.8 3709.76 3809.68 3674.87 3819.65C3639.99 3827.12 3587.67 3849.54 3560.26 3866.99C3532.85 3884.43 3465.58 3909.34 3410.77 3924.29C3355.95 3939.24 3281.2 3979.11 3243.83 4013.99C3206.46 4048.87 3166.59 4076.28 3156.62 4076.28C3144.17 4076.28 3099.32 4041.4 3054.47 4001.53C2977.23 3931.77 2957.3 3926.78 2785.38 3926.78C2608.47 3926.78 2543.69 3956.68 2645.85 3994.06C2668.27 4004.02 2733.05 4043.89 2787.87 4086.25C2964.77 4223.28 3034.54 4250.69 3206.46 4250.69C3405.78 4250.69 3475.55 4225.77 3592.65 4113.65C3642.48 4066.31 3702.28 4021.46 3724.71 4013.99C3747.13 4006.51 3779.52 3966.65 3796.96 3926.78C3814.4 3884.43 3836.83 3852.04 3846.79 3852.04ZM3206.46 3871.97C3218.91 3782.27 3216.42 3777.29 3129.22 3752.37C2979.72 3712.51 2949.82 3719.98 2949.82 3794.73C2952.31 3849.54 2977.23 3879.44 3056.96 3931.77C3114.27 3969.14 3169.08 3991.56 3176.56 3981.6C3186.52 3971.63 3198.98 3921.8 3206.46 3871.97ZM2546.19 3804.7C2583.56 3837.09 2586.05 3834.59 2553.66 3794.73C2536.22 3772.31 2516.29 3752.37 2511.3 3752.37C2491.37 3752.37 2503.83 3772.31 2546.19 3804.7ZM3350.97 3876.95C3373.39 3876.95 3430.7 3859.51 3475.55 3839.58L3560.26 3804.7L3420.73 3802.2C3313.59 3802.2 3276.22 3812.17 3263.76 3842.07C3238.85 3909.34 3246.32 3939.24 3278.71 3906.85C3296.15 3889.41 3328.54 3876.95 3350.97 3876.95Z" fill="black"/>
<path d="M4394.37 4529.34C4347.03 4601.59 4294.71 4686.31 4279.76 4716.21C4252.35 4768.53 4130.26 4905.57 3978.27 5062.54C3945.88 5094.93 3920.97 5127.32 3920.97 5134.79C3920.97 5142.27 3881.1 5189.61 3833.76 5239.44C3786.42 5289.27 3746.56 5339.1 3746.56 5351.56C3746.56 5376.48 3821.3 5378.97 3821.3 5351.56C3821.3 5334.12 3883.59 5259.37 4080.43 5035.13C4309.66 4778.49 4344.54 4736.14 4344.54 4718.7C4344.54 4708.73 4384.4 4638.97 4431.74 4564.22C4523.93 4419.71 4531.41 4399.77 4496.52 4399.77C4486.56 4399.77 4439.22 4459.57 4394.37 4529.34Z" fill="black"/>
<path d="M2872.96 4771.29C2838.08 4781.26 2773.3 4798.7 2730.94 4808.66C2648.72 4831.09 2578.95 4888.39 2606.36 4913.31C2613.83 4923.28 2673.63 4903.34 2738.41 4873.44C2823.13 4831.09 2915.32 4813.65 3087.24 4803.68C3351.34 4791.22 3483.4 4828.6 3600.5 4950.68C3640.37 4990.55 3682.73 5022.94 3695.18 5022.94C3784.88 5022.94 3588.05 4838.56 3443.53 4788.73C3331.41 4748.87 2990.06 4738.9 2872.96 4771.29Z" fill="black"/>
</g>
<defs>
<filter id="filter0_d_4389_3518" x="0.563863" y="0.727681" width="6371.03" height="5997.38" filterUnits="userSpaceOnUse" color-interpolation-filters="sRGB">
<feFlood flood-opacity="0" result="BackgroundImageFix"/>
<feColorMatrix in="SourceAlpha" type="matrix" values="0 0 0 0 0 0 0 0 0 0 0 0 0 0 0 0 0 0 127 0" result="hardAlpha"/>
<feOffset dy="73.7415"/>
<feGaussianBlur stdDeviation="33.1837"/>
<feComposite in2="hardAlpha" operator="out"/>
<feColorMatrix type="matrix" values="0 0 0 0 0 0 0 0 0 0 0 0 0 0 0 0 0 0 0.25 0"/>
<feBlend mode="normal" in2="BackgroundImageFix" result="effect1_dropShadow_4389_3518"/>
<feBlend mode="normal" in="SourceGraphic" in2="effect1_dropShadow_4389_3518" result="shape"/>
</filter>
</defs>
</svg>