<svg xmlns="http://www.w3.org/2000/svg" width="1927" height="328" viewBox="0 0 1927 328" fill="none">
<path d="M1926.46 143.248C1926.46 152.872 1924.01 160.05 1919.12 164.783C1914.39 169.358 1909.1 171.645 1903.27 171.645H1847.18C1847.18 176.063 1849.79 179.77 1854.99 182.767C1860.2 185.765 1865.4 187.264 1870.61 187.264C1879.76 187.264 1886.94 186.317 1892.15 184.424L1894.75 183.477C1898.53 181.742 1901.69 180.874 1904.21 180.874C1909.26 180.874 1913.6 184.424 1917.23 191.523C1919.28 195.783 1920.31 199.411 1920.31 202.409C1920.31 216.45 1903.5 223.47 1869.9 223.47C1858.23 223.47 1847.81 221.498 1838.66 217.554C1829.67 213.452 1822.65 208.088 1817.6 201.462C1807.66 188.684 1802.69 174.406 1802.69 158.63C1802.69 138.752 1809.08 122.897 1821.86 111.065C1834.8 99.075 1850.89 93.0801 1870.14 93.0801C1892.07 93.0801 1908.16 100.81 1918.41 116.271C1923.78 124.475 1926.46 133.467 1926.46 143.248ZM1876.53 150.111C1882.52 150.111 1885.52 147.587 1885.52 142.538C1885.52 138.91 1884.1 135.991 1881.26 133.783C1878.58 131.574 1874.63 130.47 1869.43 130.47C1864.38 130.47 1859.33 132.599 1854.28 136.859C1849.23 140.961 1846.71 145.378 1846.71 150.111H1876.53Z" fill="black"/>
<path d="M1679.07 158.16C1679.07 164.786 1681.28 169.992 1685.7 173.778C1690.12 177.407 1694.77 179.221 1699.66 179.221C1704.71 179.221 1709.36 177.801 1713.62 174.962C1718.04 171.964 1721.59 170.465 1724.27 170.465C1729 170.465 1734.76 174.646 1741.55 183.007C1745.17 187.582 1746.99 191.684 1746.99 195.313C1746.99 201.308 1742.65 206.908 1733.97 212.114C1724.98 218.425 1713.94 221.58 1700.84 221.58C1686.17 221.58 1672.05 216.295 1658.49 205.725C1652.02 200.677 1646.73 193.972 1642.63 185.61C1638.53 177.091 1636.48 167.783 1636.48 157.687C1636.48 147.432 1638.53 138.203 1642.63 130C1646.73 121.638 1652.02 114.933 1658.49 109.885C1671.58 99.4727 1685.54 94.2666 1700.37 94.2666C1706.37 94.2666 1712.2 95.1343 1717.88 96.8697C1723.56 98.4473 1727.74 100.025 1730.42 101.603L1734.21 103.969C1737.05 105.862 1739.26 107.361 1740.84 108.465C1744.94 111.62 1746.99 115.249 1746.99 119.351C1746.99 123.295 1745.33 127.791 1742.02 132.839C1736.34 141.516 1730.9 145.855 1725.69 145.855C1722.69 145.855 1718.43 144.119 1712.91 140.648C1710.07 137.967 1705.97 136.626 1700.61 136.626C1695.4 136.626 1690.51 138.519 1685.94 142.305C1681.36 146.091 1679.07 151.376 1679.07 158.16Z" fill="black"/>
<path d="M1335.03 57.8245C1335.03 54.196 1335.11 51.5141 1335.27 49.7787C1335.58 47.8855 1336.29 45.7558 1337.4 43.3893C1339.61 39.1298 1345.76 37 1355.86 37C1365.48 37 1371.47 39.1298 1373.84 43.3893C1375.1 45.7558 1375.81 47.8855 1375.97 49.7787C1376.29 51.6718 1376.44 54.4326 1376.44 58.0612V167.626C1376.44 173.306 1376.92 176.934 1377.86 178.512C1378.81 179.932 1380.86 180.642 1384.02 180.642C1387.33 180.642 1389.54 180.8 1390.64 181.115C1391.75 181.273 1393.09 181.904 1394.67 183.008C1397.82 185.059 1399.4 190.66 1399.4 199.81C1399.4 209.749 1397.82 215.823 1394.67 218.031C1390.56 220.871 1380.78 221.344 1365.32 219.451C1353.17 217.873 1345.29 213.851 1341.66 207.382C1337.24 199.652 1335.03 187.347 1335.03 170.466V57.8245Z" fill="black"/>
<path d="M851.99 158.16C851.99 164.786 854.199 169.992 858.616 173.778C863.034 177.407 867.688 179.221 872.578 179.221C877.627 179.221 882.281 177.801 886.54 174.962C890.957 171.964 894.507 170.465 897.189 170.465C901.922 170.465 907.68 174.646 914.464 183.007C918.092 187.582 919.907 191.684 919.907 195.313C919.907 201.308 915.568 206.908 906.891 212.114C897.899 218.425 886.856 221.58 873.761 221.58C859.09 221.58 844.97 216.295 831.402 205.725C824.934 200.677 819.649 193.972 815.547 185.61C811.446 177.091 809.395 167.783 809.395 157.687C809.395 147.432 811.446 138.203 815.547 130C819.649 121.638 824.934 114.933 831.402 109.885C844.497 99.4727 858.459 94.2666 873.288 94.2666C879.283 94.2666 885.12 95.1343 890.8 96.8697C896.479 98.4473 900.66 100.025 903.342 101.603L907.128 103.969C909.968 105.862 912.176 107.361 913.754 108.465C917.856 111.62 919.907 115.249 919.907 119.351C919.907 123.295 918.25 127.791 914.937 132.839C909.258 141.516 903.815 145.855 898.609 145.855C895.611 145.855 891.352 144.119 885.83 140.648C882.99 137.967 878.889 136.626 873.525 136.626C868.319 136.626 863.428 138.519 858.853 142.305C854.278 146.091 851.99 151.376 851.99 158.16Z" fill="black"/>
<path d="M551.741 179.93C557.894 179.93 562.311 180.719 564.993 182.296C567.833 183.716 569.726 185.846 570.672 188.685C571.777 191.525 572.329 195.154 572.329 199.571C572.329 203.988 571.934 207.538 571.146 210.22C570.357 212.902 569.41 214.953 568.306 216.373C567.202 217.792 565.545 218.818 563.336 219.449C560.812 220.396 556.789 220.869 551.268 220.869H452.825C449.196 220.869 445.725 219.922 442.412 218.029C435.471 214.085 432 207.853 432 199.334C432 195.233 432.947 191.92 434.84 189.395L508.199 87.8759H453.771C449.985 87.8759 447.145 87.797 445.252 87.6393C443.517 87.3238 441.387 86.6138 438.863 85.5095C434.288 83.3008 432 77.3848 432 67.7613C432 57.6646 434.13 51.5119 438.389 49.3033C440.756 48.0412 442.807 47.3312 444.542 47.1735C446.435 46.858 449.275 46.7002 453.061 46.7002H548.191C551.82 46.7002 555.291 47.6468 558.604 49.5399C561.917 51.433 564.441 53.9572 566.176 57.1124C568.069 60.2677 569.016 63.9751 569.016 68.2346C569.016 72.4942 568.069 75.8861 566.176 78.4102L492.817 179.93H551.741Z" fill="black"/>
<path d="M712.513 108.938C713.459 100.104 719.691 95.6865 731.207 95.6865C737.36 95.6865 741.935 96.1598 744.932 97.1064C747.93 98.0529 749.981 99.7094 751.085 102.076C752.347 104.442 753.057 106.572 753.215 108.465C753.53 110.201 753.688 112.883 753.688 116.511V199.336C753.688 202.964 753.53 205.725 753.215 207.618C753.057 209.354 752.426 211.405 751.322 213.771C749.113 217.873 743.67 219.924 734.994 219.924C726.474 219.924 720.716 218.898 717.719 216.847C714.879 214.639 713.222 211.483 712.749 207.382C706.912 215.743 697.131 219.924 683.406 219.924C669.838 219.924 657.217 213.692 645.543 201.229C633.868 188.766 628.031 174.331 628.031 157.923C628.031 141.358 633.868 126.923 645.543 114.618C657.375 102.155 670.311 95.9232 684.352 95.9232C689.716 95.9232 694.607 96.8697 699.024 98.7629C703.441 100.656 706.518 102.47 708.253 104.206C709.988 105.783 711.408 107.361 712.513 108.938ZM669.444 158.16C669.444 163.366 671.495 168.099 675.596 172.359C679.698 176.46 684.668 178.511 690.505 178.511C696.342 178.511 701.154 176.381 704.94 172.122C708.884 167.862 710.856 163.208 710.856 158.16C710.856 152.954 708.963 148.142 705.177 143.725C701.548 139.308 696.579 137.099 690.268 137.099C684.115 137.099 679.067 139.308 675.123 143.725C671.337 148.142 669.444 152.954 669.444 158.16Z" fill="black"/>
<path d="M1059.95 109.116C1060.9 100.282 1067.13 95.8643 1078.65 95.8643C1084.8 95.8643 1089.37 96.3375 1092.37 97.2841C1095.37 98.2307 1097.42 99.8872 1098.52 102.254C1099.79 104.62 1100.5 106.75 1100.65 108.643C1100.97 110.378 1101.13 113.06 1101.13 116.689V199.514C1101.13 203.142 1100.97 205.903 1100.65 207.796C1100.5 209.531 1099.86 211.582 1098.76 213.949C1096.55 218.05 1091.11 220.101 1082.43 220.101C1073.91 220.101 1068.15 219.076 1065.16 217.025C1062.32 214.816 1060.66 211.661 1060.19 207.559C1054.35 215.921 1044.57 220.101 1030.84 220.101C1017.28 220.101 1004.66 213.87 992.981 201.407C981.307 188.943 975.469 174.508 975.469 158.101C975.469 141.536 981.307 127.101 992.981 114.796C1004.81 102.332 1017.75 96.1009 1031.79 96.1009C1037.15 96.1009 1042.04 97.0475 1046.46 98.9406C1050.88 100.834 1053.96 102.648 1055.69 104.383C1057.43 105.961 1058.85 107.539 1059.95 109.116ZM1016.88 158.338C1016.88 163.544 1018.93 168.277 1023.03 172.536C1027.14 176.638 1032.11 178.689 1037.94 178.689C1043.78 178.689 1048.59 176.559 1052.38 172.3C1056.32 168.04 1058.29 163.386 1058.29 158.338C1058.29 153.132 1056.4 148.32 1052.61 143.903C1048.99 139.485 1044.02 137.277 1037.71 137.277C1031.55 137.277 1026.51 139.485 1022.56 143.903C1018.77 148.32 1016.88 153.132 1016.88 158.338Z" fill="black"/>
<path d="M1156.98 254.237V116.038C1156.98 112.409 1157.05 109.727 1157.21 107.992C1157.53 106.257 1158.24 104.285 1159.34 102.076C1161.55 97.8163 1166.84 95.6865 1175.2 95.6865C1183.56 95.6865 1189.16 96.7908 1192 98.9995C1195 101.05 1196.73 104.127 1197.2 108.229C1203.2 100.025 1212.59 95.9232 1225.37 95.9232C1238.3 95.9232 1250.53 101.997 1262.04 114.145C1273.56 126.292 1279.32 140.412 1279.32 156.504C1279.32 172.595 1273.56 186.715 1262.04 198.862C1250.69 211.01 1238.54 217.084 1225.6 217.084C1212.67 217.084 1203.28 213.455 1197.44 206.198V254C1197.44 257.629 1197.28 260.311 1196.97 262.046C1196.81 263.781 1196.1 265.753 1194.84 267.962C1193.73 270.328 1191.76 271.985 1188.92 272.931C1186.08 273.878 1182.22 274.351 1177.33 274.351C1172.44 274.351 1168.49 273.878 1165.49 272.931C1162.66 271.985 1160.6 270.407 1159.34 268.199C1158.24 265.99 1157.53 264.018 1157.21 262.283C1157.05 260.547 1156.98 257.865 1156.98 254.237ZM1203.83 142.778C1200.2 147.038 1198.39 151.692 1198.39 156.74C1198.39 161.789 1200.2 166.443 1203.83 170.702C1207.62 174.804 1212.35 176.855 1218.03 176.855C1223.87 176.855 1228.76 174.804 1232.7 170.702C1236.8 166.6 1238.85 161.946 1238.85 156.74C1238.85 151.534 1236.96 146.88 1233.17 142.778C1229.39 138.519 1224.42 136.389 1218.27 136.389C1212.27 136.389 1207.46 138.519 1203.83 142.778Z" fill="black"/>
<path d="M1539.6 108.938C1540.54 100.104 1546.77 95.6865 1558.29 95.6865C1564.44 95.6865 1569.02 96.1598 1572.02 97.1064C1575.01 98.0529 1577.06 99.7094 1578.17 102.076C1579.43 104.442 1580.14 106.572 1580.3 108.465C1580.61 110.201 1580.77 112.883 1580.77 116.511V199.336C1580.77 202.964 1580.61 205.725 1580.3 207.618C1580.14 209.354 1579.51 211.405 1578.4 213.771C1576.2 217.873 1570.75 219.924 1562.08 219.924C1553.56 219.924 1547.8 218.898 1544.8 216.847C1541.96 214.639 1540.3 211.483 1539.83 207.382C1533.99 215.743 1524.21 219.924 1510.49 219.924C1496.92 219.924 1484.3 213.692 1472.63 201.229C1460.95 188.766 1455.11 174.331 1455.11 157.923C1455.11 141.358 1460.95 126.923 1472.63 114.618C1484.46 102.155 1497.39 95.9232 1511.43 95.9232C1516.8 95.9232 1521.69 96.8697 1526.11 98.7629C1530.52 100.656 1533.6 102.47 1535.34 104.206C1537.07 105.783 1538.49 107.361 1539.6 108.938ZM1496.53 158.16C1496.53 163.366 1498.58 168.099 1502.68 172.359C1506.78 176.46 1511.75 178.511 1517.59 178.511C1523.42 178.511 1528.24 176.381 1532.02 172.122C1535.97 167.862 1537.94 163.208 1537.94 158.16C1537.94 152.954 1536.05 148.142 1532.26 143.725C1528.63 139.308 1523.66 137.099 1517.35 137.099C1511.2 137.099 1506.15 139.308 1502.21 143.725C1498.42 148.142 1496.53 152.954 1496.53 158.16Z" fill="black"/>
<g filter="url(#filter0_d_4302_3344)">
<path fill-rule="evenodd" clip-rule="evenodd" d="M117.751 25.6238C117.751 25.0062 118.739 24.1415 119.974 23.8944C121.456 23.5238 121.58 23.2768 120.221 23.1533C117.38 23.0298 101.692 34.7646 101.692 37.1116C101.692 37.6057 104.533 35.5058 107.992 32.4177C111.451 29.3296 115.033 26.7355 116.021 26.7355C117.009 26.7355 117.751 26.2414 117.751 25.6238ZM249.923 31.553C249.923 32.7882 253.505 35.9999 254.122 35.2588C254.246 35.0117 253.381 33.7765 252.146 32.5412C250.911 31.4295 249.923 30.9354 249.923 31.553ZM259.434 41.6821C260.299 42.5467 261.287 42.9173 261.658 42.5467C262.028 42.1761 261.41 41.435 260.175 41.0645C258.446 40.3233 258.322 40.4468 259.434 41.6821ZM270.675 52.7993C272.528 54.4052 272.651 54.2816 271.045 52.3052C269.44 50.3288 268.451 49.7112 268.451 50.6994C268.451 50.9465 269.44 51.9347 270.675 52.7993ZM277.345 62.5578C278.086 62.5578 277.963 61.8167 277.098 60.705C276.233 59.7168 275.369 58.8521 275.122 58.8521C274.875 58.8521 274.998 59.7168 275.369 60.705C275.863 61.6932 276.728 62.5578 277.345 62.5578ZM286.239 75.528L283.892 71.8223C280.186 65.646 278.333 63.1755 278.333 64.1637C278.333 65.893 281.051 70.3399 283.645 72.934L286.239 75.528ZM289.574 81.2102C291.551 83.5572 291.798 83.6807 290.809 81.7043C288.71 77.5044 286.98 75.4045 286.98 76.8868C286.98 77.7515 288.092 79.6044 289.574 81.2102ZM51.4175 94.0568C53.1468 92.9451 54.8762 91.2157 55.2467 90.104C56.482 87.0158 55.3703 87.0158 52.6527 90.104C48.4528 94.7979 47.9587 96.4038 51.4175 94.0568ZM296.492 92.698C299.086 96.1567 300.074 96.0332 298.098 92.3275C297.356 90.8452 296.245 89.7334 295.503 89.7334C294.886 89.7334 295.256 91.0922 296.492 92.698ZM303.162 102.827C304.15 103.321 304.15 102.951 303.162 101.098C302.421 99.6154 301.186 98.1331 300.444 97.639C299.456 97.1449 299.456 97.5155 300.444 99.3684C301.186 100.851 302.421 102.333 303.162 102.827ZM315.391 117.65C315.391 117.28 314.279 115.674 313.044 114.191C305.88 105.668 304.521 104.433 308.597 110.362C312.92 116.538 315.391 119.132 315.391 117.65ZM317.367 121.85C317.614 121.85 317.862 121.232 317.862 120.615C317.862 119.874 317.244 119.379 316.503 119.379C315.885 119.379 315.638 119.874 316.009 120.615C316.379 121.232 316.997 121.85 317.367 121.85ZM30.1711 123.456C28.5653 126.05 28.6888 126.05 30.7887 124.073C32.024 122.838 32.7651 121.603 32.3946 121.356C32.024 120.985 31.0358 121.973 30.1711 123.456ZM317.985 124.32C317.861 126.544 319.961 130.003 320.826 129.261C321.073 128.891 320.579 127.285 319.714 125.556C318.726 123.703 317.985 123.209 317.985 124.32ZM323.173 137.908C323.173 140.996 323.42 142.232 323.667 140.626C323.914 139.143 323.914 136.673 323.667 135.067C323.42 133.585 323.173 134.82 323.173 137.908ZM299.333 166.937C300.074 166.566 300.568 162.86 300.568 158.908C300.568 154.955 300.074 151.249 299.333 150.878C298.592 150.384 298.098 153.349 298.098 158.908C298.098 164.466 298.592 167.431 299.333 166.937ZM324.161 160.76L325.397 157.672C326.014 156.066 326.385 153.596 326.261 152.114C325.891 149.767 325.767 149.767 324.902 151.867C324.408 153.102 324.038 155.696 324.161 157.425V160.76ZM317.738 155.202C318.479 155.202 319.097 154.584 319.097 153.967C319.097 153.225 318.85 152.731 318.603 152.731C318.232 152.731 317.614 153.225 317.244 153.967C316.873 154.584 317.12 155.202 317.738 155.202ZM315.391 170.272C313.662 175.213 316.132 174.595 318.479 169.531C320.95 164.343 320.703 159.155 318.232 163.972C317.367 165.578 316.132 168.419 315.391 170.272ZM28.9358 168.913L26.9594 165.825C24.8595 162.613 22.6361 161.625 22.6361 163.725C22.6361 164.343 24.1184 165.701 25.8477 166.937L28.9358 168.913ZM299.333 177.436C299.95 176.448 300.568 174.595 300.568 173.36C300.568 172.248 300.074 171.26 299.333 171.26C298.715 171.26 298.098 173.113 298.098 175.213C298.098 178.301 298.468 178.795 299.333 177.436ZM37.7061 174.472C38.9414 175.707 40.1766 176.325 40.6707 175.954C41.0413 175.46 40.0531 174.472 38.4473 173.731C37.0748 172.982 36.3955 172.611 36.3139 172.714C36.2339 172.815 36.7279 173.371 37.7061 174.472ZM45.6118 176.201C45.8588 176.201 46.1059 175.583 46.1059 174.966C46.1059 174.225 45.4882 173.731 44.7471 173.731C44.1295 173.731 43.8824 174.225 44.253 174.966C44.6236 175.583 45.2412 176.201 45.6118 176.201ZM316.132 177.066C315.391 178.795 315.515 178.919 316.75 177.807C317.615 176.942 317.985 175.954 317.614 175.583C317.244 175.213 316.503 175.83 316.132 177.066ZM298.221 193.001C298.221 194.359 298.592 194.73 298.962 193.742C299.333 192.877 299.209 191.765 298.839 191.395C298.468 190.901 298.097 191.642 298.221 193.001ZM63.3994 201.524C65.1288 202.635 64.8817 200.659 62.9053 198.065C62.0406 196.953 60.9289 195.965 60.4348 195.965C59.3231 195.965 61.7936 200.536 63.3994 201.524Z" fill="black"/>
<path fill-rule="evenodd" clip-rule="evenodd" d="M136.65 15.6183C131.832 16.1124 126.274 17.3476 124.297 18.3358C122.444 19.324 118.368 21.4239 115.28 22.9062C109.598 25.6238 96.7512 37.2352 89.8338 46.0055C82.6693 54.8993 78.8401 59.4697 78.2224 60.0873C77.7283 60.4579 75.7519 63.1755 73.652 66.2636C71.5521 69.3517 68.5875 72.5634 66.9816 73.4281C65.3758 74.2927 63.1524 76.5162 62.0406 78.4926C60.9289 80.3455 57.5937 83.5571 54.6291 85.5335C51.6645 87.5099 48.3293 90.9686 47.3411 93.0686C46.3529 95.1685 44.0059 98.7507 42.1531 100.974C40.1767 103.198 38.6943 105.915 38.6943 107.027C38.6943 108.015 37.212 110.609 35.3592 112.709C29.1829 119.503 23.8713 127.779 23.1302 131.608C22.6361 133.708 21.5243 136.055 20.6597 136.797C19.4244 137.785 18.9303 141.614 18.9303 151.125C18.9303 164.096 18.9303 164.096 22.8831 167.801C27.5771 172.125 39.0649 179.907 40.9178 179.907C41.6589 179.907 42.5236 179.166 42.8942 178.301C43.2648 177.313 44.3765 177.93 46.1059 180.154C47.5882 182.13 49.6881 183.613 50.6763 183.613C53.3939 183.613 55.8644 187.318 55.9879 191.518C55.9879 196.336 60.8054 204.612 63.6465 204.612C65.2523 204.612 65.8699 205.6 65.8699 207.7C65.8699 209.429 66.8581 212.641 68.0934 214.864C70.4403 219.188 74.7637 225.858 75.7519 226.846C76.1225 227.217 78.4695 230.552 80.94 234.258C83.534 237.964 87.1163 242.534 89.0927 244.387C93.1653 248.213 96.1286 252.039 96.2742 252.193L98.6041 254.64C99.9629 255.998 104.039 261.063 107.498 265.757C117.009 278.48 121.703 283.05 132.944 290.462C138.503 294.044 144.185 298.121 145.544 299.356C152.585 305.779 169.384 308.126 179.143 304.05C181.49 303.062 184.701 302.197 186.06 302.197C187.419 302.197 190.383 300.838 192.607 299.109C194.83 297.379 197.424 296.021 198.536 296.021C199.524 296.021 200.76 295.403 201.13 294.785C201.501 294.044 202.736 293.55 203.601 293.55C204.589 293.55 207.306 291.574 209.653 289.227C212.124 286.88 214.471 284.903 214.965 284.903C215.583 284.903 218.177 282.927 220.894 280.58C223.612 278.233 226.206 276.257 226.823 276.257C227.317 276.257 228.923 275.145 230.529 273.786C235.47 269.092 236.952 268.104 241.646 265.263C244.117 263.78 246.31 261.423 246.31 261.423C246.726 261.089 246.956 261.1 248.193 259.704C249.864 258.838 252.772 254.96 252.772 254.96C253.637 253.354 254.711 253.034 254.711 253.034L257.62 251.082C258.266 250.113 259.063 248.34 267.216 240.187C273.022 234.505 280.063 228.082 282.78 225.858C285.621 223.758 288.833 220.176 289.945 217.953C291.057 215.729 292.539 213.012 293.156 212.023C293.774 211.035 296.245 205.724 298.715 200.288C301.803 193.742 305.138 188.677 308.844 185.218C311.932 182.254 314.526 179.907 314.773 179.907C315.02 179.907 314.526 181.513 313.785 183.613C313.044 185.589 312.797 187.565 313.291 188.06C314.526 189.418 317.491 186.454 319.097 182.007C322.556 172.866 326.755 163.478 327.867 162.613C328.361 162.243 328.732 156.313 328.855 149.52C329.102 138.773 328.732 136.179 326.385 131.855C325.026 129.014 323.297 126.42 322.679 126.05C322.061 125.679 321.567 124.32 321.567 123.085C321.567 121.85 320.703 119.997 319.714 118.885C318.726 117.897 317.862 116.538 317.862 115.921C317.862 115.18 316.997 114.438 316.009 113.944C315.02 113.574 314.156 112.462 314.156 111.35C314.156 109.25 306.003 97.639 302.668 94.7979C301.433 93.9333 300.568 92.5745 300.568 91.9568C300.568 91.3392 298.592 88.2511 296.245 85.163C293.898 82.0748 291.921 78.7397 291.921 77.875C291.921 77.0103 291.427 76.1456 290.809 75.8986C290.192 75.6515 286.363 70.2164 282.039 63.7931C271.91 48.2289 253.999 27.9708 250.293 27.9708C249.058 27.9708 244.858 26.1179 238.805 22.9062C232.506 19.4475 228.923 18.2123 223.982 17.5946C210.271 15.8653 196.56 15.4947 186.184 16.6064C178.278 17.5946 173.584 17.4711 170.125 16.6064C163.825 14.8771 147.891 14.383 136.65 15.6183ZM117.751 25.6238C117.751 25.0062 118.739 24.1415 119.974 23.8944C121.456 23.5238 121.58 23.2768 120.221 23.1533C117.38 23.0298 101.692 34.7646 101.692 37.1116C101.692 37.6057 104.533 35.5058 107.992 32.4177C111.451 29.3296 115.033 26.7355 116.021 26.7355C117.009 26.7355 117.751 26.2414 117.751 25.6238ZM249.923 31.553C249.923 32.7882 253.505 35.9999 254.122 35.2588C254.246 35.0117 253.381 33.7765 252.146 32.5412C250.911 31.4295 249.923 30.9354 249.923 31.553ZM259.434 41.6821C260.299 42.5467 261.287 42.9173 261.658 42.5467C262.028 42.1761 261.41 41.435 260.175 41.0645C258.446 40.3233 258.322 40.4468 259.434 41.6821ZM208.295 72.8104C205.083 69.9693 197.918 63.9166 192.483 59.4697C187.048 55.0228 181.119 49.9583 179.39 48.1054L176.054 44.8937L173.46 50.8229C171.978 54.0346 170.866 57.4933 170.866 58.358C170.866 61.4461 154.685 76.3926 144.432 82.6924C142.456 83.9277 140.109 85.7806 139.12 86.7688C138.132 87.757 136.773 88.4982 136.156 88.4982C133.562 88.4982 135.415 90.5981 140.603 93.3156C143.691 94.9214 147.397 97.2684 148.879 98.5037C150.238 99.8625 152.214 100.851 153.202 100.851C154.067 100.851 154.808 101.468 154.808 102.086C154.808 104.433 151.102 104.803 148.014 102.827C146.408 101.715 144.061 100.851 142.826 100.851C139.985 100.851 132.45 95.5391 133.068 93.9332C133.315 93.1921 133.191 91.9569 132.697 91.2157C131.709 89.6099 113.304 102.827 102.31 112.833C101.445 113.697 100.086 114.438 99.3453 114.438C98.6041 114.438 97.9865 114.933 97.9865 115.674C97.9865 116.291 97.3689 116.909 96.7512 116.909C95.2689 116.909 94.5278 117.527 88.7221 122.591C86.7457 124.32 83.534 126.544 81.6811 127.532C79.7047 128.52 78.2224 129.879 78.2224 130.497C78.2224 131.238 77.4813 131.732 76.7401 131.732C75.2578 131.732 73.5285 133.461 65.0052 143.467C62.0406 146.926 61.9171 147.667 62.6583 157.055C63.0288 162.49 63.6465 172.989 64.1406 180.524C64.5111 187.936 65.6229 196.212 66.6111 198.806C67.5993 201.277 68.3404 204.982 68.3404 206.835C68.4639 208.688 69.8227 212.394 71.4285 215.112C73.1579 217.829 75.1343 221.288 75.999 222.77C76.7401 224.376 77.8519 225.611 78.346 225.611C78.8401 225.611 81.0635 228.576 83.1635 232.034C85.3869 235.617 89.7103 241.175 92.7984 244.263C98.6041 249.822 100.333 251.922 108.733 263.039C111.204 266.251 113.674 268.845 114.168 268.845C114.786 268.845 115.28 269.71 115.28 270.698C115.28 274.157 125.409 282.433 150.361 299.479C154.067 302.073 157.032 302.814 163.578 303.185C172.966 303.803 179.884 301.95 193.842 295.279C198.66 292.932 202.983 291.08 203.354 291.08C203.848 291.08 206.071 289.103 208.418 286.756C210.889 284.409 213.236 282.433 213.73 282.433C214.347 282.433 216.941 280.456 219.659 278.109C222.376 275.762 224.97 273.786 225.465 273.786C226.329 273.786 227.565 272.921 234.111 267.239C235.594 266.127 237.076 265.139 237.447 265.139C239.052 265.139 249.923 254.64 249.923 253.034C249.923 252.293 250.417 251.551 251.158 251.551C251.775 251.551 254.493 249.205 257.334 246.363C263.016 240.311 262.522 240.805 271.787 231.54C275.616 227.588 279.322 224.376 279.816 224.376C283.151 224.376 291.674 211.406 289.08 210.418C288.092 210.047 288.339 209.059 289.945 207.206C291.427 205.6 291.798 204.612 290.686 204.612C289.698 204.612 289.451 203.871 290.068 202.388C295.38 189.789 295.627 188.183 295.627 166.69C295.627 149.52 295.256 145.196 293.774 143.59C292.786 142.602 292.168 140.996 292.539 140.132C293.898 136.673 281.298 123.579 270.304 116.909C267.587 115.18 263.881 112.586 262.028 110.98C258.075 107.521 252.764 104.556 250.417 104.556C249.429 104.556 248.687 104.062 248.687 103.321C248.687 102.704 246.34 100.974 243.499 99.4919C240.535 98.0096 236.829 95.4156 235.1 93.8097C232.629 91.3392 231.27 90.8451 227.812 91.4628C225.465 91.8333 223.241 92.5745 222.871 93.0686C221.882 94.4273 218.3 96.5273 211.877 99.7389C209.036 101.221 206.318 102.827 205.948 103.445C205.083 104.927 200.512 104.803 200.512 103.321C200.512 102.704 202.859 100.604 205.824 98.8743C208.665 97.0214 211.259 95.1685 211.63 94.6744C212 94.3038 214.841 92.5745 218.177 91.0922C224.847 87.8805 225.712 84.9159 220.647 82.1983C218.671 81.2101 216.571 79.8514 215.706 79.2338C214.965 78.4926 211.63 75.6515 208.295 72.8104ZM270.675 52.7993C272.528 54.4052 272.651 54.2816 271.045 52.3052C269.44 50.3288 268.451 49.7112 268.451 50.6994C268.451 50.9465 269.44 51.9347 270.675 52.7993ZM277.345 62.5578C278.086 62.5578 277.963 61.8167 277.098 60.705C276.233 59.7168 275.369 58.8521 275.122 58.8521C274.875 58.8521 274.998 59.7168 275.369 60.705C275.863 61.6932 276.728 62.5578 277.345 62.5578ZM286.239 75.528L283.892 71.8223C280.186 65.646 278.333 63.1755 278.333 64.1637C278.333 65.893 281.051 70.3399 283.645 72.934L286.239 75.528ZM289.574 81.2102C291.551 83.5572 291.798 83.6807 290.809 81.7043C288.71 77.5044 286.98 75.4045 286.98 76.8868C286.98 77.7515 288.092 79.6044 289.574 81.2102ZM51.4175 94.0568C53.1468 92.9451 54.8762 91.2157 55.2467 90.104C56.482 87.0158 55.3703 87.0158 52.6527 90.104C48.4528 94.7979 47.9587 96.4038 51.4175 94.0568ZM296.492 92.698C299.086 96.1567 300.074 96.0332 298.098 92.3275C297.356 90.8452 296.245 89.7334 295.503 89.7334C294.886 89.7334 295.256 91.0922 296.492 92.698ZM303.162 102.827C304.15 103.321 304.15 102.951 303.162 101.098C302.421 99.6154 301.186 98.1331 300.444 97.639C299.456 97.1449 299.456 97.5155 300.444 99.3684C301.186 100.851 302.421 102.333 303.162 102.827ZM315.391 117.65C315.391 117.28 314.279 115.674 313.044 114.191C305.88 105.668 304.521 104.433 308.597 110.362C312.92 116.538 315.391 119.132 315.391 117.65ZM317.367 121.85C317.614 121.85 317.862 121.232 317.862 120.615C317.862 119.874 317.244 119.379 316.503 119.379C315.885 119.379 315.638 119.874 316.009 120.615C316.379 121.232 316.997 121.85 317.367 121.85ZM30.1711 123.456C28.5653 126.05 28.6888 126.05 30.7887 124.073C32.024 122.838 32.7651 121.603 32.3946 121.356C32.024 120.985 31.0358 121.973 30.1711 123.456ZM317.985 124.32C317.861 126.544 319.961 130.003 320.826 129.261C321.073 128.891 320.579 127.285 319.714 125.556C318.726 123.703 317.985 123.209 317.985 124.32ZM323.173 137.908C323.173 140.996 323.42 142.232 323.667 140.626C323.914 139.143 323.914 136.673 323.667 135.067C323.42 133.585 323.173 134.82 323.173 137.908ZM299.333 166.937C300.074 166.566 300.568 162.86 300.568 158.908C300.568 154.955 300.074 151.249 299.333 150.878C298.592 150.384 298.098 153.349 298.098 158.908C298.098 164.466 298.592 167.431 299.333 166.937ZM324.161 160.76L325.397 157.672C326.014 156.066 326.385 153.596 326.261 152.114C325.891 149.767 325.767 149.767 324.902 151.867C324.408 153.102 324.038 155.696 324.161 157.425V160.76ZM317.738 155.202C318.479 155.202 319.097 154.584 319.097 153.967C319.097 153.225 318.85 152.731 318.603 152.731C318.232 152.731 317.614 153.225 317.244 153.967C316.873 154.584 317.12 155.202 317.738 155.202ZM315.391 170.272C313.662 175.213 316.132 174.595 318.479 169.531C320.95 164.343 320.703 159.155 318.232 163.972C317.367 165.578 316.132 168.419 315.391 170.272ZM28.9358 168.913L26.9594 165.825C24.8595 162.613 22.6361 161.625 22.6361 163.725C22.6361 164.343 24.1184 165.701 25.8477 166.937L28.9358 168.913ZM299.333 177.436C299.95 176.448 300.568 174.595 300.568 173.36C300.568 172.248 300.074 171.26 299.333 171.26C298.715 171.26 298.098 173.113 298.098 175.213C298.098 178.301 298.468 178.795 299.333 177.436ZM37.7061 174.472C38.9414 175.707 40.1766 176.325 40.6707 175.954C41.0413 175.46 40.0531 174.472 38.4473 173.731C37.0748 172.982 36.3955 172.611 36.3139 172.714C36.2339 172.815 36.7279 173.371 37.7061 174.472ZM45.6118 176.201C45.8588 176.201 46.1059 175.583 46.1059 174.966C46.1059 174.225 45.4882 173.731 44.7471 173.731C44.1295 173.731 43.8824 174.225 44.253 174.966C44.6236 175.583 45.2412 176.201 45.6118 176.201ZM316.132 177.066C315.391 178.795 315.515 178.919 316.75 177.807C317.615 176.942 317.985 175.954 317.614 175.583C317.244 175.213 316.503 175.83 316.132 177.066ZM298.221 193.001C298.221 194.359 298.592 194.73 298.962 193.742C299.333 192.877 299.209 191.765 298.839 191.395C298.468 190.901 298.097 191.642 298.221 193.001ZM63.3994 201.524C65.1288 202.635 64.8817 200.659 62.9053 198.065C62.0406 196.953 60.9289 195.965 60.4348 195.965C59.3231 195.965 61.7936 200.536 63.3994 201.524Z" fill="black"/>
<path d="M192.483 59.4697C197.918 63.9166 205.083 69.9693 208.295 72.8104C211.63 75.6515 214.965 78.4926 215.706 79.2338C216.571 79.8514 218.671 81.2101 220.647 82.1983C225.712 84.9159 224.847 87.8805 218.177 91.0922C214.841 92.5745 212 94.3038 211.63 94.6744C211.259 95.1685 208.665 97.0214 205.824 98.8743C202.859 100.604 200.512 102.704 200.512 103.321C200.512 104.803 205.083 104.927 205.948 103.445C206.318 102.827 209.036 101.221 211.877 99.7389C218.3 96.5273 221.882 94.4273 222.871 93.0686C223.241 92.5745 225.465 91.8333 227.812 91.4628C231.27 90.8451 232.629 91.3392 235.1 93.8097C236.829 95.4156 240.535 98.0096 243.499 99.4919C246.34 100.974 248.687 102.704 248.687 103.321C248.687 104.062 249.429 104.556 250.417 104.556C252.764 104.556 258.075 107.521 262.028 110.98C263.881 112.586 267.587 115.18 270.304 116.909C281.298 123.579 293.898 136.673 292.539 140.132C292.168 140.996 292.786 142.602 293.774 143.59C295.256 145.196 295.627 149.52 295.627 166.69C295.627 188.183 295.38 189.789 290.068 202.388C289.451 203.871 289.698 204.612 290.686 204.612C291.798 204.612 291.427 205.6 289.945 207.206C288.339 209.059 288.092 210.047 289.08 210.418C291.674 211.406 283.151 224.376 279.816 224.376C279.322 224.376 275.616 227.588 271.787 231.54C262.522 240.805 263.016 240.311 257.334 246.363C254.493 249.205 251.775 251.551 251.158 251.551C250.417 251.551 249.923 252.293 249.923 253.034C249.923 254.64 239.052 265.139 237.447 265.139C237.076 265.139 235.594 266.127 234.111 267.239C227.565 272.921 226.329 273.786 225.465 273.786C224.97 273.786 222.376 275.762 219.659 278.109C216.941 280.456 214.347 282.433 213.73 282.433C213.236 282.433 210.889 284.409 208.418 286.756C206.071 289.103 203.848 291.08 203.354 291.08C202.983 291.08 198.66 292.932 193.842 295.279C179.884 301.95 172.966 303.803 163.578 303.185C157.032 302.814 154.067 302.073 150.361 299.479C125.409 282.433 115.28 274.157 115.28 270.698C115.28 269.71 114.786 268.845 114.168 268.845C113.674 268.845 111.204 266.251 108.733 263.039C100.333 251.922 98.6041 249.822 92.7984 244.263C89.7103 241.175 85.3869 235.617 83.1635 232.034C81.0635 228.576 78.8401 225.611 78.346 225.611C77.8519 225.611 76.7401 224.376 75.999 222.77C75.1343 221.288 73.1579 217.829 71.4285 215.112C69.8227 212.394 68.4639 208.688 68.3404 206.835C68.3404 204.982 67.5993 201.277 66.6111 198.806C65.6229 196.212 64.5111 187.936 64.1406 180.524C63.6465 172.989 63.0288 162.49 62.6583 157.055C61.9171 147.667 62.0406 146.926 65.0052 143.467C73.5285 133.461 75.2578 131.732 76.7401 131.732C77.4813 131.732 78.2224 131.238 78.2224 130.497C78.2224 129.879 79.7047 128.52 81.6811 127.532C83.534 126.544 86.7457 124.32 88.7221 122.591C94.5278 117.527 95.2689 116.909 96.7512 116.909C97.3689 116.909 97.9865 116.291 97.9865 115.674C97.9865 114.933 98.6041 114.438 99.3453 114.438C100.086 114.438 101.445 113.697 102.31 112.833C113.304 102.827 131.709 89.6099 132.697 91.2157C133.191 91.9569 133.315 93.1921 133.068 93.9332C132.45 95.5391 139.985 100.851 142.826 100.851C144.061 100.851 146.408 101.715 148.014 102.827C151.102 104.803 154.808 104.433 154.808 102.086C154.808 101.468 154.067 100.851 153.202 100.851C152.214 100.851 150.238 99.8625 148.879 98.5037C147.397 97.2684 143.691 94.9214 140.603 93.3156C135.415 90.5981 133.562 88.4982 136.156 88.4982C136.773 88.4982 138.132 87.757 139.12 86.7688C140.109 85.7806 142.456 83.9277 144.432 82.6924C154.685 76.3926 170.866 61.4461 170.866 58.358C170.866 57.4933 171.978 54.0346 173.46 50.8229L176.054 44.8937L179.39 48.1054C181.119 49.9583 187.048 55.0228 192.483 59.4697Z" fill="white"/>
<path d="M230.16 99.4907C230.16 100.108 228.307 101.22 226.207 102.085C221.266 104.061 214.102 109.249 214.102 110.855C214.102 111.473 214.966 111.967 215.955 111.967C216.943 111.967 217.808 111.473 217.808 110.855C217.808 109.743 225.343 105.296 233.001 101.838C237.201 99.9848 237.325 98.379 233.248 98.379C231.519 98.379 230.16 98.8731 230.16 99.4907Z" fill="black"/>
<path d="M127.634 103.321C127.634 103.939 129.239 104.556 131.216 104.556C133.192 104.556 135.663 105.421 136.774 106.409C137.763 107.397 138.874 108.262 139.368 108.262C139.739 108.262 141.715 109.497 143.692 110.98C145.668 112.462 147.768 113.203 148.262 112.709C148.88 112.215 147.892 110.732 146.162 109.497C144.433 108.262 141.715 106.039 140.11 104.68C137.021 101.962 127.634 100.974 127.634 103.321Z" fill="black"/>
<path d="M219.784 111.844C212.99 114.191 209.902 118.02 216.078 116.291C218.055 115.673 224.108 115.302 229.543 115.426C241.648 115.797 254.865 114.561 254.865 113.203C254.865 112.091 246.836 110.856 234.484 110.114C228.307 109.744 224.108 110.238 219.784 111.844Z" fill="black"/>
<path d="M117.629 112.708C113.8 114.684 110.959 117.896 111.947 118.884C112.317 119.255 115.776 118.514 119.605 117.031C127.017 114.19 134.552 113.572 135.293 115.796C135.911 117.649 156.045 118.884 156.045 117.031C156.045 116.29 153.945 115.672 151.104 115.672C148.387 115.672 143.322 114.561 139.74 113.202C132.329 110.361 122.447 110.114 117.629 112.708Z" fill="black"/>
<path d="M165.928 119.131C165.928 120.614 174.204 122.59 175.439 121.355C176.674 120.243 175.686 119.625 170.622 118.761C167.534 118.143 165.928 118.39 165.928 119.131Z" fill="black"/>
<path d="M184.209 119.502C183.344 120.12 181.368 120.614 179.885 120.614C178.279 120.614 177.044 121.108 177.044 121.849C177.044 122.467 178.279 123.084 179.885 123.084C182.356 123.208 182.356 123.332 180.503 124.443C178.279 125.679 177.415 129.261 179.268 129.261C179.762 129.261 181.738 127.902 183.591 126.296C185.567 124.567 189.891 122.59 193.226 121.726C196.561 120.861 199.279 119.749 199.279 119.255C199.279 118.02 186.309 118.267 184.209 119.502Z" fill="black"/>
<path d="M130.474 121.479C125.533 121.726 121.457 122.467 121.457 123.085C121.457 124.444 133.068 124.691 141.715 123.579C148.138 122.591 149.497 120.491 143.444 120.862C141.221 120.985 135.291 121.356 130.474 121.479Z" fill="black"/>
<path d="M160.985 122.837C160.985 123.949 168.273 126.79 171.238 126.79C174.697 126.79 173.585 124.937 169.262 123.331C164.568 121.602 160.985 121.355 160.985 122.837Z" fill="black"/>
<path d="M217.807 122.961C217.807 123.579 222.625 124.32 228.678 124.567C234.607 124.938 240.412 125.679 241.648 126.173C243.13 126.79 243.748 126.543 243.748 125.185C243.748 124.196 242.142 123.085 239.918 122.591C234.113 121.479 217.807 121.726 217.807 122.961Z" fill="black"/>
<path d="M144.556 140.996C142.703 142.725 140.356 144.084 139.491 144.084C137.762 144.084 125.162 157.177 125.162 159.03C125.162 159.648 124.05 160.76 122.692 161.624C120.221 163.23 119.233 166.318 121.333 166.318C121.95 166.318 123.803 164.589 125.409 162.613C134.426 150.754 140.603 145.443 150.238 141.243C152.091 140.502 153.573 139.39 153.573 138.896C153.573 136.796 147.767 138.155 144.556 140.996Z" fill="black"/>
<path d="M202.985 144.083C202.985 144.7 204.097 145.936 205.455 146.8C207.432 148.159 207.926 149.641 207.926 155.818C207.802 165.329 205.085 169.158 199.403 168.047C196.067 167.306 190.632 172.247 190.632 172.247C190.632 172.247 190.632 172.247 177.662 182.499C177.662 182.499 173.198 188.484 169.509 187.687C166.775 187.096 164.321 182.746 164.321 182.746C154.81 173.729 153.081 172.494 150.24 172.494C148.634 172.494 145.514 169.107 145.241 168.834C143.882 168.34 143.693 165.7 143.693 161.006C143.693 155.077 144.187 153.965 148.016 150.259C150.363 147.912 152.339 145.565 152.339 145.071C152.339 142.848 149.128 144.33 145.299 148.53C141.469 152.73 141.222 153.594 141.222 161.5C141.222 169.405 141.469 170.147 144.31 171.505C146.04 172.247 147.398 173.235 147.398 173.729C147.398 174.223 149.004 175.335 150.857 176.076C152.834 176.94 157.157 180.276 160.492 183.611C166.298 189.54 166.792 189.787 173.709 189.787C180.256 189.787 181.368 189.417 184.58 185.958C186.556 183.858 188.162 181.387 188.162 180.523C188.162 177.682 198.167 171.258 202.614 171.258C204.838 171.258 206.691 170.764 206.691 170.147C206.691 169.529 207.555 168.047 208.667 166.935C212.496 163.229 214.102 150.135 211.261 146.43C209.532 144.083 202.985 142.23 202.985 144.083ZM181.244 185.464C180.75 186.452 179.639 187.317 178.527 187.317C176.921 187.317 177.045 186.946 179.021 185.464C181.986 183.24 182.109 183.24 181.244 185.464Z" fill="black"/>
<path d="M211.632 143.96C211.632 144.577 212.373 145.318 213.237 145.689C213.979 145.936 217.931 148.777 221.761 151.989C228.431 157.424 232.631 159.153 232.631 156.436C232.631 155.694 232.013 155.2 231.272 155.2C230.531 155.2 226.455 152.359 222.131 149.024C214.596 143.095 211.632 141.613 211.632 143.96Z" fill="black"/>
<path d="M242.512 174.1C242.512 174.965 243.377 176.818 244.365 178.177C246.342 180.771 246.836 184.847 245.23 184.847C243.501 184.847 239.424 193.247 240.536 194.358C241.154 194.853 241.895 194.605 242.265 193.617C242.636 192.629 244.242 190.529 245.724 188.923C249.183 185.465 249.43 181.512 246.589 176.324C244.242 172.371 242.512 171.383 242.512 174.1Z" fill="black"/>
<path d="M263.511 177.559C263.511 178.424 264.746 182.253 266.105 186.206C269.193 194.605 268.699 197.694 263.511 203.499C259.929 207.576 258.57 212.022 261.041 212.022C261.782 212.022 262.276 211.281 262.276 210.293C262.276 209.428 263.511 207.329 265.117 205.599C271.664 198.188 272.405 193.741 268.452 184.97C267.093 182.006 265.982 178.918 265.982 177.929C265.982 176.941 265.487 176.2 264.746 176.2C264.129 176.2 263.511 176.818 263.511 177.559Z" fill="black"/>
<path fill-rule="evenodd" clip-rule="evenodd" d="M220.772 187.07C219.166 189.046 217.066 190.281 215.337 190.158C213.855 190.034 211.26 190.775 209.655 191.887C207.184 193.493 201.131 193.74 170.003 193.74C144.927 193.74 133.069 193.246 132.822 192.381C131.957 189.911 130.104 191.022 130.104 193.987C130.104 195.716 129.61 197.446 128.869 197.816C127.016 198.928 127.387 200.905 129.487 200.905C130.475 200.905 131.34 200.287 131.34 199.669C131.34 196.952 133.563 198.681 135.045 202.387C137.392 208.316 151.104 220.916 160.368 225.61C163.95 227.462 167.656 228.08 174.944 228.08C186.061 228.08 190.632 226.351 197.302 219.927C199.649 217.58 201.996 215.728 202.367 215.728C203.725 215.728 206.319 212.639 207.184 209.798C207.678 208.316 208.543 207.081 209.037 207.081C209.531 207.081 210.643 204.487 211.384 201.152C212.743 196.087 213.731 194.975 219.043 192.011C223.242 189.664 225.219 187.811 225.219 186.081C225.219 182.746 223.86 183.117 220.772 187.07ZM158.268 196.828C159.75 197.075 161.974 197.075 163.209 196.828C164.321 196.458 163.086 196.211 160.368 196.334C157.651 196.334 156.662 196.581 158.268 196.828ZM175.685 199.422C181.491 201.275 189.026 200.534 192.732 197.816C194.708 196.211 194.09 196.087 187.544 196.211C183.467 196.211 177.909 196.705 175.191 197.075L170.25 197.816L175.685 199.422ZM198.908 200.905C199.649 200.905 200.884 200.04 201.749 199.052C203.725 196.705 203.108 196.705 200.02 199.052C198.661 200.04 198.167 200.905 198.908 200.905ZM206.69 205.846C207.184 205.846 207.925 204.116 208.419 201.893C209.408 196.705 208.79 196.458 204.714 200.287C202.861 202.016 199.896 203.746 198.167 204.24C196.437 204.61 193.843 205.722 192.485 206.587C191.126 207.451 187.791 208.687 185.073 209.428C182.356 210.169 178.65 212.145 176.797 213.875C174.944 215.604 172.968 216.963 172.474 216.963C171.856 216.963 169.632 215.233 167.409 213.257C163.58 209.798 162.592 209.551 154.068 209.551C145.298 209.551 142.086 211.034 147.151 212.886C148.263 213.381 151.474 215.357 154.192 217.457C162.962 224.251 166.421 225.61 174.944 225.61C184.826 225.61 188.285 224.374 194.09 218.816C196.561 216.469 199.526 214.245 200.637 213.875C201.749 213.504 203.355 211.528 204.22 209.551C205.084 207.451 206.196 205.846 206.69 205.846ZM174.944 206.834C175.562 202.387 175.438 202.14 171.115 200.905C163.703 198.928 162.221 199.299 162.221 203.004C162.344 205.722 163.58 207.204 167.533 209.798C170.374 211.651 173.091 212.763 173.462 212.269C173.956 211.775 174.573 209.304 174.944 206.834ZM142.21 203.499C144.063 205.104 144.186 204.981 142.58 203.004C141.716 201.893 140.728 200.905 140.481 200.905C139.492 200.905 140.11 201.893 142.21 203.499ZM182.109 207.081C183.22 207.081 186.061 206.216 188.285 205.228L192.485 203.499L185.567 203.375C180.256 203.375 178.403 203.869 177.785 205.351C176.55 208.687 176.92 210.169 178.526 208.563C179.391 207.698 180.997 207.081 182.109 207.081Z" fill="black"/>
<path d="M233.865 239.445C231.518 243.027 228.924 247.227 228.183 248.709C226.824 251.303 220.771 258.097 213.236 265.879C211.63 267.485 210.395 269.091 210.395 269.462C210.395 269.832 208.419 272.179 206.072 274.65C203.725 277.12 201.748 279.591 201.748 280.208C201.748 281.444 205.454 281.567 205.454 280.208C205.454 279.344 208.542 275.638 218.301 264.521C229.665 251.798 231.394 249.698 231.394 248.833C231.394 248.339 233.371 244.88 235.718 241.174C240.288 234.01 240.659 233.022 238.929 233.022C238.435 233.022 236.088 235.986 233.865 239.445Z" fill="black"/>
<path d="M158.514 251.427C156.784 251.921 153.573 252.786 151.473 253.28C147.396 254.392 143.938 257.233 145.297 258.468C145.667 258.962 148.632 257.974 151.843 256.492C156.043 254.392 160.614 253.527 169.137 253.033C182.231 252.415 188.777 254.268 194.583 260.321C196.56 262.297 198.659 263.903 199.277 263.903C203.724 263.903 193.966 254.762 186.801 252.292C181.242 250.316 164.319 249.821 158.514 251.427Z" fill="black"/>
</g>
<g filter="url(#filter1_d_4302_3344)">
<path d="M135.127 0.764542C141.565 0.0641134 149.027 -0.124756 155.688 0.0750892C161.89 0.261138 168.812 0.817659 173.775 2.12685C174.567 2.31889 177.095 2.69346 184.331 1.78896L184.463 1.77333L184.593 1.75966C196.429 0.491526 211.342 0.951692 225.833 2.77821L225.834 2.77724C233.132 3.68944 238.515 5.72549 245.854 9.74306C248.688 11.246 250.884 12.3202 252.379 12.9794C252.674 13.1095 252.913 13.2106 253.1 13.287C255.022 13.625 256.488 14.2298 257.29 14.5917C258.666 15.2124 259.822 15.9295 260.668 16.5018C262.369 17.6517 264.005 19.0312 265.431 20.3261C268.345 22.9733 271.647 26.4311 274.936 30.1454C281.489 37.5469 288.924 47.0224 294.457 55.5028C296.573 58.646 298.503 61.4475 299.94 63.4491C300.358 64.0304 300.7 64.4974 300.97 64.8573C302.678 66.3461 303.848 67.9849 304.595 69.3065C305.309 70.5701 305.882 71.9626 306.273 73.4452C306.74 74.1957 307.396 75.1594 308.131 76.1268C309.505 77.9343 310.83 79.8174 311.876 81.4589C312.383 82.2538 312.954 83.194 313.454 84.1503C313.538 84.3099 313.633 84.5004 313.737 84.7147C316.685 87.6237 319.833 91.8328 321.909 94.8104C323.293 96.7941 324.681 98.9254 325.791 100.867C326.267 101.7 326.799 102.684 327.277 103.724C327.473 103.903 327.669 104.088 327.862 104.281C328.789 105.208 330.439 107.069 331.573 109.797C332.887 111.438 333.9 113.193 334.632 114.822C335.052 115.759 335.574 117.085 335.96 118.688C336.257 119.109 336.536 119.523 336.789 119.914C337.758 121.411 338.775 123.201 339.688 125.073C341.4 128.285 342.74 131.649 343.379 136.203C343.927 140.112 343.902 144.617 343.781 149.861C343.716 153.381 343.587 156.819 343.393 159.537C343.298 160.861 343.169 162.288 342.98 163.559C342.893 164.147 342.734 165.109 342.447 166.159C342.309 166.663 342.033 167.598 341.539 168.68C341.367 169.056 340.817 170.28 339.708 171.71C339.308 172.468 338.717 173.689 337.974 175.339C336.678 178.213 335.139 181.9 333.68 185.67L333.061 187.288C331.706 190.96 329.598 194.698 326.758 197.618C325.447 198.966 322.905 201.264 319.146 202.497C317.62 202.997 315.824 203.31 313.916 203.301C313.372 204.299 312.811 205.403 312.235 206.621C311.011 209.314 309.773 212.007 308.748 214.183C307.948 215.881 306.719 218.492 305.817 219.934C305.808 219.951 305.718 220.099 305.535 220.422C305.348 220.752 305.116 221.17 304.857 221.646C304.466 222.367 304.048 223.157 303.666 223.902L303.299 224.628L303.021 225.164C301.598 227.829 299.646 230.237 298.091 231.958C296.389 233.842 294.295 235.856 292.051 237.564C289.683 239.532 283.254 245.384 277.727 250.79C275.776 252.742 274.272 254.29 273.114 255.541C272.654 256.038 272.273 256.464 271.957 256.825C271.847 257.754 269.613 259.671 269.576 259.702C269.576 259.702 266.16 263.603 263.113 266.591L232.378 290.433C231.871 290.843 231.287 291.33 230.653 291.877C229.13 293.193 227.491 294.537 226.017 295.627C225.31 296.149 224.394 296.797 223.412 297.382C223.084 297.577 222.616 297.844 222.048 298.126C221.491 298.606 220.772 299.257 219.965 300.022C218.358 301.605 216.575 303.138 214.828 304.392C213.929 305.038 212.777 305.802 211.477 306.473C211.189 306.621 210.432 307.022 209.331 307.427C208.228 308.222 207.235 308.75 206.568 309.072C205.401 309.637 203.934 310.194 202.241 310.554C202.092 310.655 201.932 310.769 201.773 310.892C199.711 312.497 197.446 313.836 195.333 314.824C194.007 315.444 190.88 316.842 187.174 317.088C187.086 317.109 186.974 317.135 186.841 317.171C186.518 317.257 186.154 317.367 185.794 317.488C185.611 317.55 185.447 317.609 185.303 317.663L184.937 317.808L184.897 317.825L184.13 318.135C176.153 321.246 166.943 321.498 159.258 320.425C151.523 319.344 142.17 316.474 135.501 310.401C135.711 310.592 135.582 310.463 134.789 309.864C134.127 309.364 133.239 308.715 132.18 307.964C130.061 306.461 127.435 304.672 124.856 303.011L124.726 302.925C118.713 298.96 113.876 295.38 109.17 290.808C104.546 286.318 100.435 281.243 95.5391 274.694L95.4775 274.612C93.8751 272.437 92.1155 270.157 90.6133 268.283C89.8625 267.346 89.2089 266.552 88.6963 265.948C88.103 265.249 87.926 265.074 88.0469 265.195L87.918 265.066L85.4629 262.488L85.4414 262.466L85.419 262.442C85.0932 262.097 84.8403 261.794 84.8311 261.783C84.7598 261.698 84.7001 261.625 84.6699 261.588C84.6084 261.513 84.5378 261.426 84.4961 261.375C84.3947 261.25 84.2778 261.106 84.1309 260.928C83.8384 260.572 83.4225 260.073 82.9043 259.478C81.8516 258.271 80.4465 256.748 78.8818 255.277C75.6779 252.274 71.3382 246.575 68.708 242.817L68.6113 242.68L68.5176 242.538C67.3394 240.771 66.2011 239.108 65.334 237.871C64.8961 237.246 64.5615 236.779 64.3428 236.481C64.3411 236.479 64.3386 236.477 64.3369 236.474C63.3548 235.34 62.5462 234.168 62.2275 233.712C61.5043 232.676 60.6871 231.445 59.8701 230.174C58.2852 227.706 56.4435 224.683 55.042 222.113L54.8193 221.704C53.7192 219.647 52.8616 217.467 52.2559 215.51C52.2182 215.388 52.1816 215.261 52.1426 215.13C51.5911 214.665 51.107 214.212 50.6934 213.799C48.6698 211.775 47.0597 209.457 45.8574 207.397C44.2161 204.586 42.2709 200.41 41.4522 195.808C40.9022 195.474 40.3979 195.132 39.9424 194.804C38.0695 194.686 36.6354 194.262 36.0361 194.076C35.116 193.79 34.3293 193.466 33.7686 193.219C32.6391 192.719 31.5464 192.136 30.6338 191.62C28.7617 190.562 26.6535 189.223 24.625 187.856C20.6917 185.207 15.9293 181.693 12.7686 178.782L12.7197 178.737L12.6709 178.691C10.9406 177.069 6.55318 173.368 4.89649 166.38C4.29068 163.824 4.13802 161.262 4.06935 159.17C3.99764 156.985 4.00001 154.263 4.00001 151.124C4.00001 146.296 4.11543 142.185 4.51173 138.948C4.7083 137.343 5.04349 135.334 5.73438 133.304C6.1731 132.014 7.02012 129.913 8.6836 127.807C9.81881 123.129 12.5624 118.425 14.6621 115.172C17.2697 111.132 20.5931 106.774 24.1768 102.814C24.2396 102.743 24.3009 102.667 24.3604 102.592C24.5941 101.712 24.8443 101.029 25.0049 100.607C25.506 99.2921 26.1076 98.0936 26.6748 97.0868C27.7529 95.1733 29.1459 93.1776 30.7422 91.3407C31.2062 90.7751 31.8899 89.8468 32.5869 88.7841C32.9333 88.256 33.2359 87.7674 33.4736 87.3593C33.5911 87.1576 33.6822 86.994 33.7481 86.871C33.7997 86.7744 33.8259 86.7212 33.832 86.7089C35.3843 83.4105 37.8354 80.6076 39.5068 78.8778C41.4229 76.8949 43.8079 74.8019 46.3467 73.1093C46.9777 72.6886 47.8819 71.9659 48.7236 71.163C49.078 70.8249 49.3393 70.5475 49.5049 70.3622C50.7833 68.2791 52.3013 66.4762 53.6787 65.0751C54.9399 63.7921 56.6953 62.2226 58.8057 60.9179C58.9071 60.8169 59.0365 60.6842 59.1904 60.5184C59.9008 59.7534 60.6939 58.7657 61.3057 57.8661C62.4202 56.227 63.5518 54.613 64.5156 53.3036C64.9881 52.6618 65.4995 51.9853 65.9922 51.3768C66.0033 51.3631 66.5771 50.6124 67.4844 49.703C67.5633 49.6127 67.7063 49.4491 67.9277 49.1893C68.4212 48.6105 69.1319 47.7638 70.0723 46.6278C71.9476 44.3625 74.6522 41.0505 78.207 36.6376C82.3182 31.4458 87.8394 25.7936 92.9932 21.122C97.7842 16.7791 103.832 11.8298 108.838 9.43544C111.693 8.06456 115.564 6.07096 117.271 5.16005L117.444 5.06728L117.62 4.98036C120.409 3.58598 123.895 2.71733 126.19 2.21083C128.913 1.60994 132.032 1.08644 135.019 0.775284C135.045 0.772352 135.073 0.770387 135.1 0.767472C135.109 0.766558 135.118 0.765466 135.127 0.764542ZM170.125 16.6044C163.825 14.8751 147.89 14.3809 136.649 15.6161C131.832 16.1102 126.275 17.3457 124.298 18.3339C122.445 19.322 118.368 21.4219 115.28 22.9042C109.598 25.6219 96.7514 37.2336 89.834 46.0038C82.6696 54.8975 78.8393 59.4682 78.2217 60.0858C77.7265 60.4582 75.7513 63.175 73.6524 66.2616C71.5524 69.3497 68.5873 72.562 66.9815 73.4266C65.3756 74.2914 63.1517 76.5148 62.04 78.4911C60.9281 80.3439 57.594 83.5549 54.6299 85.5311C51.6653 87.5075 48.329 90.9673 47.3408 93.0673C46.3525 95.1672 44.005 98.7483 42.1524 100.972C40.176 103.195 38.6944 105.914 38.6943 107.025C38.6941 108.014 37.2121 110.608 35.3594 112.708C29.1832 119.502 23.871 127.778 23.1299 131.607C22.6358 133.706 21.5246 136.052 20.6602 136.794C19.5021 137.72 18.9944 141.145 18.9356 149.406L18.9307 151.124C18.9307 164.094 18.9301 164.094 22.8828 167.8C27.5761 172.122 39.0616 179.903 40.917 179.905C41.6581 179.905 42.523 179.163 42.8936 178.299C43.2642 177.311 44.3762 177.929 46.1055 180.152C47.5878 182.129 49.6886 183.611 50.6768 183.611C53.394 183.612 55.8645 187.316 55.9883 191.515C55.9883 196.333 60.8054 204.61 63.6465 204.61C65.2521 204.61 65.8701 205.598 65.8701 207.698C65.8703 209.428 66.8586 212.639 68.0938 214.862C70.4405 219.185 74.7631 225.855 75.752 226.845C76.1236 227.217 78.4699 230.551 80.9395 234.256C83.5334 237.961 87.1163 242.532 89.0928 244.385C93.1647 248.21 96.1279 252.036 96.2744 252.191L98.6035 254.638C99.9623 255.996 104.039 261.061 107.498 265.755C117.009 278.478 121.704 283.048 132.944 290.46C138.503 294.042 144.185 298.118 145.544 299.353C152.585 305.777 169.384 308.124 179.143 304.048C181.489 303.06 184.701 302.195 186.06 302.195C187.418 302.195 190.384 300.836 192.607 299.106C194.831 297.377 197.424 296.019 198.536 296.018C199.524 296.018 200.759 295.401 201.13 294.784C201.5 294.043 202.736 293.549 203.601 293.549C204.589 293.548 207.307 291.571 209.653 289.224C212.123 286.878 214.47 284.902 214.965 284.901C215.583 284.901 218.177 282.925 220.894 280.578C223.611 278.231 226.205 276.255 226.823 276.255C227.317 276.255 228.923 275.143 230.529 273.784C235.47 269.09 236.953 268.102 241.646 265.261C244.117 263.779 246.633 261.098 246.633 261.098L248.193 259.702C248.89 259.162 251.443 256.611 251.48 256.574C251.48 256.574 251.803 256.25 252.772 254.958L253.419 253.988L253.752 253.666C253.765 253.657 254.92 252.88 255.681 252.373C256.65 251.727 256.974 251.403 256.974 251.403C256.999 251.37 258.967 248.762 267.217 240.185C273.022 234.503 280.063 228.08 282.78 225.856C285.621 223.756 288.832 220.174 289.944 217.951C291.056 215.728 292.539 213.01 293.156 212.021C293.774 211.033 296.244 205.722 298.715 200.287C301.803 193.74 305.138 188.675 308.844 185.217C311.932 182.252 314.526 179.905 314.773 179.905C315.02 179.906 314.526 181.512 313.785 183.611C313.044 185.587 312.797 187.563 313.291 188.057C314.526 189.416 317.491 186.451 319.097 182.005L319.609 180.665C322.959 171.969 326.808 163.435 327.866 162.611C328.36 162.241 328.731 156.312 328.854 149.518C329.102 138.772 328.731 136.177 326.385 131.854C325.026 129.014 323.298 126.419 322.68 126.048C322.062 125.677 321.567 124.318 321.567 123.083L321.558 122.845C321.459 121.619 320.641 119.925 319.715 118.883C318.727 117.895 317.862 116.537 317.861 115.919C317.861 115.178 316.997 114.437 316.009 113.943C315.021 113.573 314.155 112.46 314.155 111.349C314.155 109.248 306.003 97.6384 302.668 94.7968C301.433 93.9321 300.568 92.5726 300.568 91.955C300.568 91.3372 298.591 88.249 296.244 85.161C293.897 82.0732 291.921 78.7379 291.921 77.8729C291.921 77.0084 291.426 76.1444 290.809 75.8973C290.189 75.6476 286.361 70.2125 282.039 63.7909C271.911 48.2279 254.002 27.9716 250.294 27.9686C249.059 27.9686 244.857 26.1158 238.805 22.9042C232.505 19.4458 228.923 18.2103 223.982 17.5927C210.271 15.8633 196.56 15.4927 186.184 16.6044C178.278 17.5926 173.584 17.4691 170.125 16.6044ZM214.965 299.832L215.402 299.825C215.433 299.824 215.465 299.822 215.495 299.821L214.965 299.832ZM226.823 291.184L227.158 291.182C227.193 291.181 227.227 291.18 227.262 291.179L226.823 291.184Z" fill="white"/>
</g>
<defs>
<filter id="filter0_d_4302_3344" x="15.9976" y="14.9316" width="315.856" height="297.332" filterUnits="userSpaceOnUse" color-interpolation-filters="sRGB">
<feFlood flood-opacity="0" result="BackgroundImageFix"/>
<feColorMatrix in="SourceAlpha" type="matrix" values="0 0 0 0 0 0 0 0 0 0 0 0 0 0 0 0 0 0 127 0" result="hardAlpha"/>
<feOffset dy="3.25856"/>
<feGaussianBlur stdDeviation="1.46635"/>
<feComposite in2="hardAlpha" operator="out"/>
<feColorMatrix type="matrix" values="0 0 0 0 0 0 0 0 0 0 0 0 0 0 0 0 0 0 0.25 0"/>
<feBlend mode="normal" in2="BackgroundImageFix" result="effect1_dropShadow_4302_3344"/>
<feBlend mode="normal" in="SourceGraphic" in2="effect1_dropShadow_4302_3344" result="shape"/>
</filter>
<filter id="filter1_d_4302_3344" x="0.87" y="0" width="346.112" height="327.61" filterUnits="userSpaceOnUse" color-interpolation-filters="sRGB">
<feFlood flood-opacity="0" result="BackgroundImageFix"/>
<feColorMatrix in="SourceAlpha" type="matrix" values="0 0 0 0 0 0 0 0 0 0 0 0 0 0 0 0 0 0 127 0" result="hardAlpha"/>
<feOffset dy="3.48"/>
<feGaussianBlur stdDeviation="1.565"/>
<feComposite in2="hardAlpha" operator="out"/>
<feColorMatrix type="matrix" values="0 0 0 0 0 0 0 0 0 0 0 0 0 0 0 0 0 0 0.25 0"/>
<feBlend mode="normal" in2="BackgroundImageFix" result="effect1_dropShadow_4302_3344"/>
<feBlend mode="normal" in="SourceGraphic" in2="effect1_dropShadow_4302_3344" result="shape"/>
</filter>
</defs>
</svg>