<svg xmlns="http://www.w3.org/2000/svg" width="1845" height="361" viewBox="0 0 1845 361" fill="none">
<path fill-rule="evenodd" clip-rule="evenodd" d="M108.706 11.7613C108.706 11.0818 109.793 10.1307 111.151 9.85889C112.782 9.45126 112.918 9.17947 111.423 9.04358C108.298 8.90771 91.0409 21.8165 91.0409 24.3983C91.0409 24.9418 94.1661 22.6318 97.9708 19.2347C101.776 15.8377 105.716 12.9842 106.803 12.9842C107.89 12.9842 108.706 12.4407 108.706 11.7613ZM254.099 18.2836C254.099 19.6424 258.04 23.1753 258.719 22.36C258.855 22.0883 257.904 20.7294 256.545 19.3706C255.186 18.1477 254.099 17.6042 254.099 18.2836ZM264.562 29.4259C265.513 30.377 266.6 30.7847 267.008 30.377C267.416 29.9694 266.736 29.1541 265.377 28.7465C263.475 27.9312 263.339 28.0671 264.562 29.4259ZM276.927 41.6552C278.965 43.4217 279.101 43.2858 277.335 41.1117C275.568 38.9376 274.481 38.2582 274.481 39.3452C274.481 39.617 275.568 40.7041 276.927 41.6552ZM284.265 52.3899C285.08 52.3899 284.944 51.5746 283.993 50.3517C283.042 49.2646 282.091 48.3134 281.819 48.3134C281.547 48.3134 281.683 49.2646 282.091 50.3517C282.634 51.4388 283.585 52.3899 284.265 52.3899ZM294.048 66.6575L291.467 62.5811C287.39 55.787 285.352 53.0693 285.352 54.1564C285.352 56.0587 288.341 60.9505 291.195 63.804L294.048 66.6575ZM297.717 72.9081C299.891 75.4899 300.163 75.6257 299.076 73.4516C296.766 68.8316 294.864 66.5217 294.864 68.1522C294.864 69.1034 296.087 71.1416 297.717 72.9081ZM35.7369 87.0398C37.6393 85.8169 39.5416 83.9145 39.9493 82.6916C41.3081 79.2945 40.0852 79.2945 37.0958 82.6916C32.4758 87.8551 31.9322 89.6216 35.7369 87.0398ZM305.327 85.5451C308.18 89.3498 309.267 89.2139 307.093 85.1375C306.278 83.5069 305.055 82.2839 304.24 82.2839C303.56 82.2839 303.968 83.7786 305.327 85.5451ZM312.664 96.6874C313.751 97.2309 313.751 96.8233 312.664 94.7851C311.849 93.1545 310.49 91.5239 309.675 90.9804C308.588 90.4368 308.588 90.8445 309.675 92.8827C310.49 94.5133 311.849 96.1439 312.664 96.6874ZM326.117 112.993C326.117 112.586 324.894 110.819 323.535 109.189C315.654 99.8127 314.159 98.4539 318.643 104.976C323.399 111.77 326.117 114.624 326.117 112.993ZM328.291 117.613C328.562 117.613 328.834 116.934 328.834 116.254C328.834 115.439 328.155 114.896 327.339 114.896C326.66 114.896 326.388 115.439 326.796 116.254C327.204 116.934 327.883 117.613 328.291 117.613ZM12.3653 119.38C10.5988 122.233 10.7347 122.233 13.0447 120.059C14.4035 118.7 15.2188 117.341 14.8111 117.07C14.4035 116.662 13.3164 117.749 12.3653 119.38ZM328.97 120.331C328.834 122.777 331.144 126.581 332.095 125.766C332.367 125.358 331.824 123.592 330.872 121.69C329.785 119.651 328.97 119.108 328.97 120.331ZM334.677 135.278C334.677 138.675 334.949 140.034 335.221 138.267C335.492 136.637 335.492 133.919 335.221 132.153C334.949 130.522 334.677 131.881 334.677 135.278ZM308.452 167.21C309.267 166.802 309.811 162.726 309.811 158.378C309.811 154.03 309.267 149.953 308.452 149.545C307.637 149.002 307.093 152.263 307.093 158.378C307.093 164.492 307.637 167.754 308.452 167.21ZM335.764 160.416L337.123 157.019C337.802 155.253 338.21 152.535 338.074 150.904C337.666 148.323 337.531 148.323 336.579 150.633C336.036 151.991 335.628 154.845 335.764 156.747V160.416ZM328.698 154.301C329.514 154.301 330.193 153.622 330.193 152.943C330.193 152.127 329.921 151.584 329.649 151.584C329.242 151.584 328.562 152.127 328.155 152.943C327.747 153.622 328.019 154.301 328.698 154.301ZM326.117 170.879C324.214 176.314 326.932 175.635 329.514 170.064C332.231 164.357 331.959 158.65 329.242 163.949C328.291 165.715 326.932 168.841 326.117 170.879ZM11.0064 169.384L8.83232 165.987C6.52233 162.454 4.07646 161.367 4.07646 163.677C4.07646 164.357 5.70704 165.851 7.60939 167.21L11.0064 169.384ZM308.452 178.76C309.131 177.673 309.811 175.635 309.811 174.276C309.811 173.053 309.267 171.966 308.452 171.966C307.772 171.966 307.093 174.004 307.093 176.314C307.093 179.711 307.501 180.255 308.452 178.76ZM20.654 175.499C22.0129 176.858 23.3717 177.537 23.9152 177.129C24.3229 176.586 23.2358 175.499 21.4693 174.684C19.9596 173.86 19.2123 173.452 19.1225 173.566C19.0345 173.677 19.578 174.288 20.654 175.499ZM29.3505 177.401C29.6222 177.401 29.894 176.722 29.894 176.042C29.894 175.227 29.2146 174.684 28.3993 174.684C27.7199 174.684 27.4481 175.227 27.8558 176.042C28.2634 176.722 28.9428 177.401 29.3505 177.401ZM326.932 178.352C326.117 180.255 326.252 180.391 327.611 179.168C328.562 178.217 328.97 177.129 328.562 176.722C328.155 176.314 327.339 176.994 326.932 178.352ZM307.229 195.881C307.229 197.376 307.637 197.784 308.044 196.696C308.452 195.745 308.316 194.522 307.908 194.115C307.501 193.571 307.093 194.386 307.229 195.881ZM48.9175 205.257C50.8198 206.48 50.5481 204.306 48.374 201.452C47.4228 200.229 46.1998 199.142 45.6563 199.142C44.4334 199.142 47.151 204.17 48.9175 205.257Z" fill="black"/>
<path fill-rule="evenodd" clip-rule="evenodd" d="M129.495 0.754822C124.196 1.29834 118.081 2.65714 115.907 3.7442C113.869 4.83124 109.385 7.14124 105.988 8.77182C99.7373 11.7612 85.6056 24.5341 77.9962 34.1818C70.1151 43.9652 65.9027 48.9929 65.2233 49.6723C64.6798 50.0799 62.5057 53.0693 60.1957 56.4664C57.8857 59.8634 54.6245 63.3964 52.8581 64.3475C51.0916 65.2987 48.6457 67.7446 47.4228 69.9187C46.1998 71.9569 42.531 75.4898 39.2699 77.664C36.0087 79.8381 32.3399 83.6427 31.2528 85.9527C30.1658 88.2627 27.584 92.2033 25.5458 94.6492C23.3717 97.095 21.7411 100.084 21.7411 101.307C21.7411 102.394 20.1105 105.248 18.0723 107.558C11.2782 115.031 5.43528 124.136 4.61998 128.348C4.07646 130.658 2.85352 133.24 1.90235 134.055C0.543527 135.142 0 139.354 0 149.817C0 164.085 0 164.085 4.34822 168.161C9.51173 172.917 22.1487 181.478 24.187 181.478C25.0023 181.478 25.9534 180.662 26.3611 179.711C26.7687 178.624 27.9917 179.304 29.894 181.749C31.5246 183.924 33.8346 185.554 34.9216 185.554C37.911 185.554 40.6287 189.631 40.7646 194.251C40.7646 199.55 46.064 208.654 49.1892 208.654C50.9557 208.654 51.6351 209.741 51.6351 212.051C51.6351 213.953 52.7222 217.486 54.081 219.932C56.6627 224.688 61.4186 232.026 62.5057 233.113C62.9133 233.52 65.4951 237.189 68.2127 241.266C71.0662 245.342 75.0068 250.37 77.1809 252.408C81.6609 256.617 84.9207 260.826 85.0808 260.995L87.6438 263.686C89.1385 265.181 93.6226 270.752 97.4273 275.916C107.89 289.911 113.054 294.939 125.419 303.092C131.534 307.033 137.784 311.517 139.279 312.875C147.024 319.941 165.504 322.523 176.239 318.039C178.821 316.952 182.353 316.001 183.848 316.001C185.343 316.001 188.604 314.506 191.05 312.604C193.496 310.701 196.349 309.207 197.572 309.207C198.659 309.207 200.018 308.527 200.426 307.848C200.833 307.033 202.192 306.489 203.143 306.489C204.23 306.489 207.22 304.315 209.802 301.733C212.519 299.151 215.101 296.977 215.645 296.977C216.324 296.977 219.177 294.803 222.167 292.221C225.156 289.64 228.01 287.466 228.689 287.466C229.233 287.466 230.999 286.243 232.766 284.748C238.201 279.584 239.832 278.497 244.995 275.372C247.713 273.741 250.023 271.839 250.023 271.16C250.023 270.616 250.974 269.665 252.197 269.257C254.099 268.578 254.235 269.665 253.42 278.905L256.273 277.546C256.817 270.616 257.632 264.094 258.311 263.007C259.263 261.24 259.398 261.376 259.534 263.279C259.534 264.637 260.214 265.724 261.029 265.724C261.844 265.724 262.252 264.23 261.98 262.463C261.708 260.017 264.154 256.756 273.123 247.788C279.509 241.537 287.254 234.472 290.244 232.026C293.369 229.716 296.902 225.775 298.125 223.329C299.348 220.883 300.978 217.894 301.658 216.807C302.337 215.72 305.055 209.877 307.772 203.898C311.169 196.696 314.838 191.125 318.915 187.321C322.312 184.059 325.165 181.478 325.437 181.478C325.709 181.478 325.165 183.244 324.35 185.554C323.535 187.728 323.263 189.902 323.807 190.446C325.165 191.941 328.426 188.679 330.193 183.788C333.998 173.732 338.618 163.405 339.841 162.454C340.384 162.047 340.792 155.524 340.928 148.051C341.199 136.229 340.792 133.376 338.21 128.62C336.715 125.494 334.813 122.641 334.134 122.233C333.454 121.826 332.911 120.331 332.911 118.972C332.911 117.613 331.959 115.575 330.872 114.352C329.785 113.265 328.834 111.77 328.834 111.091C328.834 110.276 327.883 109.46 326.796 108.917C325.709 108.509 324.758 107.286 324.758 106.063C324.758 103.753 315.789 90.9804 312.121 87.8551C310.762 86.9039 309.811 85.4092 309.811 84.7298C309.811 84.0504 307.637 80.6534 305.055 77.2563C302.473 73.8593 300.299 70.1904 300.299 69.2393C300.299 68.2881 299.755 67.3369 299.076 67.0652C298.397 66.7934 294.184 60.8146 289.428 53.7487C278.286 36.6276 258.583 14.343 254.507 14.343C253.148 14.343 248.528 12.3047 241.87 8.77182C234.94 4.96713 230.999 3.60834 225.564 2.92892C210.481 1.02658 195.398 0.618927 183.984 1.84186C175.288 2.92889 170.124 2.79303 166.319 1.84186C159.389 -0.0604858 141.861 -0.604004 129.495 0.754822ZM108.706 11.7613C108.706 11.0818 109.793 10.1307 111.151 9.85889C112.782 9.45126 112.918 9.17947 111.423 9.04358C108.298 8.90771 91.0409 21.8165 91.0409 24.3983C91.0409 24.9418 94.1661 22.6318 97.9708 19.2347C101.776 15.8377 105.716 12.9842 106.803 12.9842C107.89 12.9842 108.706 12.4407 108.706 11.7613ZM254.099 18.2836C254.099 19.6424 258.04 23.1753 258.719 22.36C258.855 22.0883 257.904 20.7294 256.545 19.3706C255.186 18.1477 254.099 17.6042 254.099 18.2836ZM264.562 29.4259C265.513 30.377 266.6 30.7847 267.008 30.377C267.416 29.9694 266.736 29.1541 265.377 28.7465C263.475 27.9312 263.339 28.0671 264.562 29.4259ZM208.307 63.6681C204.774 60.5428 196.893 53.8846 190.914 48.9929C184.935 44.1011 178.413 38.53 176.511 36.4917L172.842 32.9588L169.988 39.4811C168.358 43.0141 167.135 46.8188 167.135 47.7699C167.135 51.167 149.334 67.6087 138.056 74.5387C135.882 75.8975 133.3 77.9357 132.213 79.0228C131.126 80.1098 129.631 80.9251 128.952 80.9251C126.098 80.9251 128.137 83.2351 133.844 86.2245C137.241 87.991 141.317 90.5727 142.948 91.9315C144.442 93.4262 146.617 94.5133 147.704 94.5133C148.655 94.5133 149.47 95.1927 149.47 95.8721C149.47 98.4539 145.394 98.8615 141.997 96.6874C140.23 95.4645 137.648 94.5133 136.29 94.5133C133.164 94.5133 124.875 88.6704 125.555 86.9039C125.827 86.0886 125.691 84.7298 125.147 83.9145C124.06 82.1481 103.814 96.6874 91.7203 107.694C90.7691 108.645 89.2744 109.46 88.4591 109.46C87.6438 109.46 86.9644 110.004 86.9644 110.819C86.9644 111.499 86.285 112.178 85.6056 112.178C83.975 112.178 83.1597 112.857 76.7733 118.428C74.5992 120.331 71.0662 122.777 69.028 123.864C66.8539 124.951 65.2233 126.446 65.2233 127.125C65.2233 127.94 64.408 128.484 63.5927 128.484C61.9621 128.484 60.0598 130.386 50.6839 141.393C47.4228 145.197 47.2869 146.013 48.1022 156.34C48.5098 162.318 49.1892 173.868 49.7328 182.157C50.1404 190.31 51.3634 199.414 52.4504 202.268C53.5375 204.985 54.3528 209.062 54.3528 211.1C54.4886 213.138 55.9833 217.215 57.7498 220.204C59.6521 223.193 61.8263 226.998 62.7774 228.629C63.5927 230.395 64.8157 231.754 65.3592 231.754C65.9027 231.754 68.3486 235.015 70.6586 238.82C73.1045 242.76 77.8603 248.875 81.2574 252.272C87.6438 258.387 89.5462 260.697 98.7861 272.926C101.504 276.459 104.221 279.313 104.765 279.313C105.444 279.313 105.988 280.264 105.988 281.351C105.988 285.156 117.13 294.26 144.578 313.011C148.655 315.865 151.916 316.68 159.118 317.088C169.445 317.767 177.054 315.729 192.409 308.391C197.708 305.81 202.464 303.771 202.872 303.771C203.415 303.771 205.861 301.597 208.443 299.016C211.16 296.434 213.742 294.26 214.286 294.26C214.965 294.26 217.819 292.086 220.808 289.504C223.797 286.922 226.651 284.748 227.195 284.748C228.146 284.748 229.505 283.797 236.706 277.546C238.337 276.323 239.967 275.236 240.375 275.236C242.142 275.236 254.099 263.686 254.099 261.92C254.099 261.104 254.643 260.289 255.458 260.289C256.137 260.289 259.127 257.707 262.252 254.582C268.503 247.924 267.959 248.467 278.15 238.276C282.363 233.928 286.439 230.395 286.983 230.395C290.651 230.395 300.027 216.128 297.174 215.041C296.087 214.633 296.358 213.546 298.125 211.508C299.755 209.741 300.163 208.654 298.94 208.654C297.853 208.654 297.581 207.839 298.261 206.208C304.104 192.348 304.375 190.582 304.375 166.938C304.375 148.051 303.968 143.295 302.337 141.528C301.25 140.441 300.571 138.675 300.978 137.724C302.473 133.919 288.613 119.516 276.52 112.178C273.53 110.276 269.454 107.422 267.416 105.656C263.067 101.851 257.224 98.5898 254.643 98.5898C253.556 98.5898 252.74 98.0462 252.74 97.2309C252.74 96.5515 250.159 94.6492 247.033 93.0186C243.772 91.388 239.696 88.5345 237.793 86.768C235.076 84.0504 233.581 83.5069 229.776 84.1863C227.195 84.5939 224.749 85.4092 224.341 85.9527C223.254 87.4474 219.313 89.7574 212.247 93.2904C209.122 94.9209 206.133 96.6874 205.725 97.3668C204.774 98.9974 199.746 98.8615 199.746 97.2309C199.746 96.5515 202.328 94.2415 205.589 92.3392C208.715 90.301 211.568 88.2627 211.976 87.7192C212.383 87.3116 215.509 85.4092 219.177 83.7786C226.515 80.2457 227.466 76.9845 221.895 73.9951C219.721 72.9081 217.411 71.4134 216.46 70.734C215.645 69.9187 211.976 66.7934 208.307 63.6681ZM276.927 41.6552C278.965 43.4217 279.101 43.2858 277.335 41.1117C275.568 38.9376 274.481 38.2582 274.481 39.3452C274.481 39.617 275.568 40.7041 276.927 41.6552ZM284.265 52.3899C285.08 52.3899 284.944 51.5746 283.993 50.3517C283.042 49.2646 282.091 48.3134 281.819 48.3134C281.547 48.3134 281.683 49.2646 282.091 50.3517C282.634 51.4388 283.585 52.3899 284.265 52.3899ZM294.048 66.6575L291.467 62.5811C287.39 55.787 285.352 53.0693 285.352 54.1564C285.352 56.0587 288.341 60.9505 291.195 63.804L294.048 66.6575ZM297.717 72.9081C299.891 75.4899 300.163 75.6257 299.076 73.4516C296.766 68.8316 294.864 66.5217 294.864 68.1522C294.864 69.1034 296.087 71.1416 297.717 72.9081ZM35.7369 87.0398C37.6393 85.8169 39.5416 83.9145 39.9493 82.6916C41.3081 79.2945 40.0852 79.2945 37.0958 82.6916C32.4758 87.8551 31.9322 89.6216 35.7369 87.0398ZM305.327 85.5451C308.18 89.3498 309.267 89.2139 307.093 85.1375C306.278 83.5069 305.055 82.2839 304.24 82.2839C303.56 82.2839 303.968 83.7786 305.327 85.5451ZM312.664 96.6874C313.751 97.2309 313.751 96.8233 312.664 94.7851C311.849 93.1545 310.49 91.5239 309.675 90.9804C308.588 90.4368 308.588 90.8445 309.675 92.8827C310.49 94.5133 311.849 96.1439 312.664 96.6874ZM326.117 112.993C326.117 112.586 324.894 110.819 323.535 109.189C315.654 99.8127 314.159 98.4539 318.643 104.976C323.399 111.77 326.117 114.624 326.117 112.993ZM328.291 117.613C328.562 117.613 328.834 116.934 328.834 116.254C328.834 115.439 328.155 114.896 327.339 114.896C326.66 114.896 326.388 115.439 326.796 116.254C327.204 116.934 327.883 117.613 328.291 117.613ZM12.3653 119.38C10.5988 122.233 10.7347 122.233 13.0447 120.059C14.4035 118.7 15.2188 117.341 14.8111 117.07C14.4035 116.662 13.3164 117.749 12.3653 119.38ZM328.97 120.331C328.834 122.777 331.144 126.581 332.095 125.766C332.367 125.358 331.824 123.592 330.872 121.69C329.785 119.651 328.97 119.108 328.97 120.331ZM334.677 135.278C334.677 138.675 334.949 140.034 335.221 138.267C335.492 136.637 335.492 133.919 335.221 132.153C334.949 130.522 334.677 131.881 334.677 135.278ZM308.452 167.21C309.267 166.802 309.811 162.726 309.811 158.378C309.811 154.03 309.267 149.953 308.452 149.545C307.637 149.002 307.093 152.263 307.093 158.378C307.093 164.492 307.637 167.754 308.452 167.21ZM335.764 160.416L337.123 157.019C337.802 155.253 338.21 152.535 338.074 150.904C337.666 148.323 337.531 148.323 336.579 150.633C336.036 151.991 335.628 154.845 335.764 156.747V160.416ZM328.698 154.301C329.514 154.301 330.193 153.622 330.193 152.943C330.193 152.127 329.921 151.584 329.649 151.584C329.242 151.584 328.562 152.127 328.155 152.943C327.747 153.622 328.019 154.301 328.698 154.301ZM326.117 170.879C324.214 176.314 326.932 175.635 329.514 170.064C332.231 164.357 331.959 158.65 329.242 163.949C328.291 165.715 326.932 168.841 326.117 170.879ZM11.0064 169.384L8.83232 165.987C6.52233 162.454 4.07646 161.367 4.07646 163.677C4.07646 164.357 5.70704 165.851 7.60939 167.21L11.0064 169.384ZM308.452 178.76C309.131 177.673 309.811 175.635 309.811 174.276C309.811 173.053 309.267 171.966 308.452 171.966C307.772 171.966 307.093 174.004 307.093 176.314C307.093 179.711 307.501 180.255 308.452 178.76ZM20.654 175.499C22.0129 176.858 23.3717 177.537 23.9152 177.129C24.3229 176.586 23.2358 175.499 21.4693 174.684C19.9596 173.86 19.2123 173.452 19.1225 173.566C19.0345 173.677 19.578 174.288 20.654 175.499ZM29.3505 177.401C29.6222 177.401 29.894 176.722 29.894 176.042C29.894 175.227 29.2146 174.684 28.3993 174.684C27.7199 174.684 27.4481 175.227 27.8558 176.042C28.2634 176.722 28.9428 177.401 29.3505 177.401ZM326.932 178.352C326.117 180.255 326.252 180.391 327.611 179.168C328.562 178.217 328.97 177.129 328.562 176.722C328.155 176.314 327.339 176.994 326.932 178.352ZM307.229 195.881C307.229 197.376 307.637 197.784 308.044 196.696C308.452 195.745 308.316 194.522 307.908 194.115C307.501 193.571 307.093 194.386 307.229 195.881ZM48.9175 205.257C50.8198 206.48 50.5481 204.306 48.374 201.452C47.4228 200.229 46.1998 199.142 45.6563 199.142C44.4334 199.142 47.151 204.17 48.9175 205.257Z" fill="black"/>
<path d="M232.364 93.0192C232.364 93.6987 230.326 94.9216 228.016 95.8728C222.58 98.0469 214.699 103.754 214.699 105.52C214.699 106.2 215.65 106.743 216.737 106.743C217.825 106.743 218.776 106.2 218.776 105.52C218.776 104.297 227.064 99.4057 235.489 95.601C240.109 93.5628 240.245 91.7963 235.761 91.7963C233.859 91.7963 232.364 92.3398 232.364 93.0192Z" fill="black"/>
<path d="M119.582 97.232C119.582 97.9114 121.348 98.5908 123.523 98.5908C125.697 98.5908 128.414 99.542 129.637 100.629C130.724 101.716 131.947 102.667 132.491 102.667C132.898 102.667 135.073 104.026 137.247 105.657C139.421 107.287 141.731 108.103 142.274 107.559C142.954 107.015 141.867 105.385 139.964 104.026C138.062 102.667 135.073 100.221 133.306 98.7267C129.909 95.7373 119.582 94.6502 119.582 97.232Z" fill="black"/>
<path d="M220.952 106.608C213.478 109.19 210.081 113.402 216.875 111.5C219.05 110.82 225.708 110.413 231.687 110.549C245.003 110.956 259.542 109.597 259.542 108.103C259.542 106.88 250.71 105.521 237.122 104.706C230.328 104.298 225.708 104.842 220.952 106.608Z" fill="black"/>
<path d="M108.581 107.559C104.368 109.733 101.243 113.266 102.33 114.353C102.738 114.761 106.542 113.946 110.755 112.315C118.908 109.19 127.196 108.511 128.012 110.956C128.691 112.995 150.84 114.353 150.84 112.315C150.84 111.5 148.53 110.821 145.405 110.821C142.415 110.821 136.844 109.598 132.903 108.103C124.75 104.978 113.88 104.706 108.581 107.559Z" fill="black"/>
<path d="M161.706 114.625C161.706 116.255 170.81 118.43 172.169 117.071C173.528 115.848 172.441 115.168 166.87 114.217C163.473 113.538 161.706 113.81 161.706 114.625Z" fill="black"/>
<path d="M181.819 115.032C180.867 115.712 178.693 116.255 177.063 116.255C175.296 116.255 173.938 116.799 173.938 117.614C173.938 118.293 175.296 118.973 177.063 118.973C179.78 119.109 179.78 119.245 177.742 120.468C175.296 121.826 174.345 125.767 176.383 125.767C176.927 125.767 179.101 124.272 181.139 122.506C183.313 120.603 188.069 118.429 191.738 117.478C195.407 116.527 198.396 115.304 198.396 114.76C198.396 113.402 184.129 113.673 181.819 115.032Z" fill="black"/>
<path d="M122.709 117.207C117.274 117.479 112.79 118.294 112.79 118.973C112.79 120.468 125.563 120.74 135.075 119.517C142.141 118.43 143.635 116.12 136.977 116.528C134.531 116.663 128.009 117.071 122.709 117.207Z" fill="black"/>
<path d="M156.267 118.701C156.267 119.924 164.284 123.05 167.545 123.05C171.349 123.05 170.127 121.011 165.371 119.245C160.207 117.343 156.267 117.071 156.267 118.701Z" fill="black"/>
<path d="M218.776 118.838C218.776 119.518 224.076 120.333 230.734 120.605C237.256 121.012 243.643 121.828 245.002 122.371C246.632 123.051 247.312 122.779 247.312 121.284C247.312 120.197 245.545 118.974 243.099 118.431C236.713 117.208 218.776 117.479 218.776 118.838Z" fill="black"/>
<path d="M138.2 138.676C136.162 140.578 133.58 142.073 132.629 142.073C130.727 142.073 116.867 156.476 116.867 158.514C116.867 159.194 115.644 160.417 114.149 161.368C111.431 163.134 110.344 166.531 112.654 166.531C113.334 166.531 115.372 164.629 117.138 162.455C127.058 149.41 133.852 143.567 144.451 138.947C146.489 138.132 148.119 136.909 148.119 136.366C148.119 134.056 141.733 135.55 138.2 138.676Z" fill="black"/>
<path d="M202.469 142.072C202.469 142.751 203.692 144.11 205.187 145.061C207.361 146.556 207.905 148.187 207.905 154.981C207.769 165.444 204.779 169.656 198.529 168.433C194.86 167.618 193.637 168.297 188.881 173.053C186.028 176.178 179.505 181.206 174.613 184.331L165.645 190.038L159.938 184.603C149.475 174.684 147.573 173.325 144.448 173.325C142.681 173.325 141.322 172.509 141.322 171.422C141.322 170.335 140.371 169.248 139.284 168.705C137.789 168.161 137.246 165.851 137.246 160.688C137.246 154.165 137.789 152.942 142.002 148.866C144.584 146.284 146.758 143.703 146.758 143.159C146.758 140.713 143.225 142.344 139.012 146.964C134.8 151.584 134.528 152.535 134.528 161.231C134.528 169.928 134.8 170.743 137.925 172.238C139.828 173.053 141.322 174.14 141.322 174.684C141.322 175.227 143.089 176.45 145.127 177.265C147.301 178.217 152.057 181.885 155.726 185.554C162.112 192.076 162.656 192.348 170.265 192.348C177.467 192.348 178.69 191.941 182.223 188.136C184.397 185.826 186.163 183.108 186.163 182.157C186.163 179.032 197.17 171.966 202.062 171.966C204.507 171.966 206.546 171.422 206.546 170.743C206.546 170.064 207.497 168.433 208.72 167.21C212.932 163.134 214.699 148.73 211.573 144.654C209.671 142.072 202.469 140.034 202.469 142.072ZM178.554 187.592C178.011 188.679 176.788 189.631 175.565 189.631C173.798 189.631 173.934 189.223 176.108 187.592C179.369 185.146 179.505 185.146 178.554 187.592Z" fill="black"/>
<path d="M211.985 141.937C211.985 142.617 212.801 143.432 213.752 143.839C214.567 144.111 218.915 147.237 223.128 150.769C230.465 156.748 235.085 158.651 235.085 155.661C235.085 154.846 234.406 154.302 233.591 154.302C232.775 154.302 228.291 151.177 223.535 147.508C215.247 140.986 211.985 139.355 211.985 141.937Z" fill="black"/>
<path d="M245.953 175.092C245.953 176.043 246.904 178.081 247.991 179.576C250.165 182.43 250.708 186.914 248.942 186.914C247.04 186.914 242.556 196.154 243.778 197.377C244.458 197.92 245.273 197.648 245.681 196.561C246.088 195.474 247.855 193.164 249.486 191.398C253.29 187.593 253.562 183.245 250.437 177.538C247.855 173.19 245.953 172.103 245.953 175.092Z" fill="black"/>
<path d="M269.056 178.897C269.056 179.848 270.415 184.06 271.909 188.408C275.307 197.648 274.763 201.045 269.056 207.432C265.115 211.916 263.621 216.808 266.338 216.808C267.154 216.808 267.697 215.992 267.697 214.905C267.697 213.954 269.056 211.644 270.822 209.742C278.024 201.589 278.839 196.697 274.491 187.05C272.997 183.788 271.774 180.391 271.774 179.304C271.774 178.217 271.23 177.402 270.415 177.402C269.735 177.402 269.056 178.081 269.056 178.897Z" fill="black"/>
<path fill-rule="evenodd" clip-rule="evenodd" d="M222.036 189.36C220.27 191.534 217.96 192.893 216.058 192.757C214.427 192.621 211.573 193.436 209.807 194.659C207.089 196.426 200.431 196.698 166.189 196.698C138.605 196.698 125.56 196.154 125.288 195.203C124.337 192.485 122.299 193.708 122.299 196.969C122.299 198.872 121.756 200.774 120.94 201.182C118.902 202.405 119.31 204.579 121.62 204.579C122.707 204.579 123.658 203.899 123.658 203.22C123.658 200.23 126.104 202.133 127.734 206.209C130.316 212.732 145.399 226.592 155.59 231.755C159.531 233.793 163.607 234.473 171.624 234.473C183.854 234.473 188.881 232.57 196.219 225.504C198.801 222.923 201.382 220.884 201.79 220.884C203.285 220.884 206.138 217.487 207.089 214.362C207.633 212.732 208.584 211.373 209.128 211.373C209.671 211.373 210.894 208.519 211.709 204.85C213.204 199.279 214.291 198.056 220.134 194.795C224.754 192.213 226.928 190.175 226.928 188.273C226.928 184.604 225.433 185.012 222.036 189.36ZM153.28 200.095C154.911 200.366 157.357 200.366 158.715 200.095C159.938 199.687 158.58 199.415 155.59 199.551C152.601 199.551 151.514 199.823 153.28 200.095ZM172.439 202.948C178.826 204.986 187.115 204.171 191.191 201.182C193.365 199.415 192.686 199.279 185.484 199.415C181 199.415 174.885 199.959 171.896 200.366L166.461 201.182L172.439 202.948ZM197.985 204.579C198.801 204.579 200.159 203.628 201.111 202.54C203.285 199.959 202.605 199.959 199.208 202.54C197.713 203.628 197.17 204.579 197.985 204.579ZM206.546 210.014C207.089 210.014 207.905 208.112 208.448 205.666C209.535 199.959 208.856 199.687 204.372 203.899C202.333 205.802 199.072 207.704 197.17 208.247C195.268 208.655 192.414 209.878 190.919 210.829C189.425 211.78 185.756 213.139 182.766 213.955C179.777 214.77 175.701 216.944 173.662 218.846C171.624 220.749 169.45 222.243 168.907 222.243C168.227 222.243 165.781 220.341 163.335 218.167C159.123 214.362 158.036 214.09 148.66 214.09C139.013 214.09 135.48 215.721 141.051 217.759C142.274 218.303 145.807 220.477 148.796 222.787C158.444 230.26 162.248 231.755 171.624 231.755C182.495 231.755 186.299 230.396 192.686 224.282C195.404 221.7 198.665 219.254 199.888 218.846C201.111 218.439 202.877 216.265 203.828 214.09C204.779 211.78 206.002 210.014 206.546 210.014ZM171.624 211.101C172.304 206.209 172.168 205.937 167.412 204.579C159.259 202.405 157.628 202.812 157.628 206.889C157.764 209.878 159.123 211.509 163.471 214.362C166.597 216.4 169.586 217.623 169.994 217.08C170.537 216.536 171.217 213.819 171.624 211.101ZM135.615 207.432C137.654 209.199 137.79 209.063 136.023 206.889C135.072 205.666 133.985 204.579 133.713 204.579C132.626 204.579 133.305 205.666 135.615 207.432ZM179.505 211.373C180.728 211.373 183.854 210.422 186.299 209.335L190.919 207.432L183.31 207.296C177.467 207.296 175.429 207.84 174.749 209.47C173.391 213.139 173.798 214.77 175.565 213.003C176.516 212.052 178.282 211.373 179.505 211.373Z" fill="black"/>
<path d="M236.445 246.973C233.864 250.914 231.01 255.534 230.195 257.164C228.7 260.018 222.042 267.491 213.753 276.052C211.987 277.818 210.628 279.585 210.628 279.992C210.628 280.4 208.454 282.982 205.872 285.7C203.29 288.417 201.116 291.135 201.116 291.814C201.116 293.173 205.193 293.309 205.193 291.814C205.193 290.863 208.59 286.787 219.324 274.557C231.826 260.561 233.728 258.251 233.728 257.3C233.728 256.757 235.902 252.952 238.484 248.876C243.511 240.994 243.919 239.907 242.017 239.907C241.473 239.907 238.891 243.168 236.445 246.973Z" fill="black"/>
<path d="M153.55 260.154C151.647 260.698 148.114 261.649 145.804 262.193C141.32 263.416 137.515 266.541 139.01 267.9C139.418 268.443 142.679 267.356 146.212 265.726C150.832 263.416 155.86 262.464 165.235 261.921C179.639 261.242 186.841 263.28 193.227 269.938C195.401 272.112 197.711 273.879 198.391 273.879C203.282 273.879 192.548 263.823 184.667 261.106C178.552 258.932 159.936 258.388 153.55 260.154Z" fill="black"/>
<path d="M794.419 61.8293C768.605 66.8293 744.591 85.2293 732.985 108.629C710.373 154.429 726.181 208.229 769.405 231.029C785.414 239.429 800.022 242.229 821.834 241.229C837.642 240.429 841.644 239.429 854.852 233.029C869.46 225.829 889.47 208.029 887.87 203.429C887.469 202.229 881.866 198.629 875.463 195.029L863.856 188.829L858.854 195.429C855.852 199.229 848.048 204.629 841.444 207.829C826.836 214.829 807.026 215.629 791.017 210.229C776.209 205.229 759.6 187.629 755.197 172.629C749.994 155.229 751.795 133.629 759.4 119.629C778.41 84.6293 829.638 77.2293 857.253 105.629L864.657 113.229L876.463 106.229C882.867 102.229 888.27 98.4293 888.27 97.4293C888.27 93.4293 866.258 73.8293 856.252 69.2293C837.842 60.4293 814.83 57.8293 794.419 61.8293Z" fill="black"/>
<path d="M1615.67 62.0293C1600.06 65.0293 1580.85 75.2293 1569.44 86.6293C1531.22 124.829 1535.22 191.629 1577.65 223.029C1593.65 234.829 1608.26 240.029 1629.27 241.229C1651.29 242.429 1667.89 238.229 1684.3 227.629C1694.31 221.229 1708.72 207.029 1708.72 203.629C1708.72 202.229 1686.91 189.629 1684.7 189.629C1683.7 189.629 1681.1 192.229 1678.7 195.629C1676.5 198.829 1668.7 204.229 1661.69 207.829C1649.88 213.629 1647.68 214.029 1632.28 213.229C1612.26 212.429 1600.06 207.029 1588.45 194.029C1566.64 169.229 1567.64 128.629 1590.65 105.629C1602.86 93.4293 1614.87 88.8293 1634.68 88.8293C1654.69 88.8293 1662.49 91.6293 1675.3 103.429C1680.1 108.029 1684.9 111.629 1685.7 111.629C1687.91 111.629 1708.72 98.8293 1708.72 97.4293C1708.72 96.6293 1704.71 91.6293 1699.91 86.2293C1681.5 65.8293 1647.28 56.0293 1615.67 62.0293Z" fill="black"/>
<path d="M399.403 63.0293C398.603 63.6293 398.003 70.0293 398.003 77.0293V89.6293H444.028H490.053L466.04 121.029C389.598 221.029 395.201 213.029 394.001 227.029L393 239.629H462.638H532.076V226.629V213.629L494.655 213.229C473.844 213.029 451.232 213.229 444.228 213.429C433.422 214.029 431.621 213.629 432.622 211.029C433.822 207.629 505.261 113.229 518.268 97.4293C525.672 88.6293 526.073 87.2293 526.073 74.8293V61.6293H463.438C428.82 61.6293 400.004 62.2293 399.403 63.0293Z" fill="black"/>
<path d="M609.317 67.0293C605.315 75.0293 546.083 235.429 546.083 238.429C546.083 239.229 552.887 239.629 561.291 239.229L576.5 238.629L602.714 166.029C617.122 126.229 629.528 93.6293 630.129 93.6293C631.329 93.6293 660.9 172.229 660.5 174.629H605.916L614.52 187.029L623.125 199.429L646.338 199.629H669.75L676.754 219.029L683.758 238.629L699.767 239.229L715.976 239.829L710.172 224.229C706.971 215.629 692.763 176.629 678.155 137.629C663.747 98.6293 651.54 65.4293 651.14 64.0293C650.54 62.4293 644.737 61.6293 631.329 61.6293C612.519 61.6293 612.119 61.6293 609.317 67.0293Z" fill="black"/>
<path d="M963.111 63.2293C961.91 64.0293 956.307 77.2293 950.704 92.6293C945.101 108.029 931.093 146.629 919.487 178.429C907.881 210.029 898.275 236.829 898.275 237.829C898.275 238.829 905.279 239.629 913.884 239.629H929.292L938.898 211.829C944.1 196.429 955.907 163.429 965.312 138.229C981.321 94.6293 982.121 92.8293 984.322 98.6293C989.925 113.029 1010.34 170.429 1010.34 171.829C1010.34 172.829 998.53 173.829 984.322 174.029L958.108 174.629L966.713 187.029L975.317 199.429L998.33 200.029L1021.14 200.629L1028.35 219.629L1035.55 238.629L1050.96 239.229C1059.96 239.629 1066.37 239.029 1066.37 237.829C1066.37 236.829 1059.16 216.229 1050.16 192.229C1041.15 168.229 1027.35 130.229 1019.14 107.829C1010.94 85.4293 1003.33 65.8293 1002.13 64.2293C999.731 61.4293 967.113 60.4293 963.111 63.2293Z" fill="black"/>
<path d="M1088.38 63.0294C1088.38 65.4294 1096.58 73.0294 1108.99 82.4294L1118.8 89.6293H1142.01C1170.42 89.6293 1177.23 92.2294 1184.03 105.629C1189.43 116.429 1189.63 125.829 1184.43 137.029C1178.03 151.229 1171.82 153.629 1141.61 153.629H1115.99L1116.59 129.829L1117.4 106.229L1103.39 99.0294C1095.78 95.0294 1089.38 92.0294 1089.18 92.2294C1088.98 92.4294 1088.58 125.429 1088.18 165.629L1087.38 238.629L1102.99 239.229L1118.6 239.829L1118 210.829L1117.4 182.029L1145.41 181.229C1176.43 180.429 1185.23 177.829 1199.04 165.829C1223.45 144.429 1223.85 100.029 1200.04 78.4294C1184.23 64.2294 1178.63 62.8294 1131 62.0294C1105.99 61.6293 1088.38 62.0294 1088.38 63.0294Z" fill="black"/>
<path d="M1245.86 62.8293C1245.06 63.6293 1244.46 103.829 1244.46 152.029V239.629H1299.49H1354.52V226.629V213.629L1324.51 213.229C1308.1 213.029 1290.29 212.829 1285.09 212.629H1275.48L1274.48 137.629L1273.48 62.6293L1260.47 62.0293C1253.27 61.6293 1246.67 62.0293 1245.86 62.8293Z" fill="black"/>
<path d="M1733.13 64.0293C1733.73 65.4293 1740.13 71.8293 1747.74 78.0293L1761.35 89.6293H1802.17H1842.79V75.6293V61.6293H1787.56C1744.34 61.6293 1732.53 62.2293 1733.13 64.0293Z" fill="black"/>
<path d="M1412.76 109.229C1403.55 134.229 1389.94 171.229 1382.54 191.629C1374.93 212.029 1367.93 231.229 1366.73 234.229L1364.53 239.829L1380.74 239.229L1396.95 238.629L1400.55 229.429C1402.35 224.229 1414.16 191.629 1426.56 156.829C1443.37 109.629 1449.78 94.2293 1451.18 96.6293C1453.78 101.429 1478.59 169.229 1478.59 171.629C1478.59 172.829 1468.79 173.629 1452.58 173.629H1426.56L1434.97 186.629L1443.57 199.429L1466.58 200.029L1489.6 200.629L1496.6 220.029L1503.61 239.629H1519.01C1527.62 239.629 1534.62 239.229 1534.62 238.829C1534.62 238.429 1525.62 213.429 1514.81 183.429C1504.01 153.229 1489.8 114.029 1483.39 96.2293L1471.59 63.6293H1450.58H1429.56L1412.76 109.229Z" fill="black"/>
<path d="M1732.73 119.229V146.829L1744.74 155.229L1756.54 163.629H1795.76H1834.79V150.629V137.629L1798.37 137.229L1761.75 136.629L1762.35 121.629L1762.95 106.629L1747.74 99.2293L1732.73 91.6293V119.229Z" fill="black"/>
<path d="M1732.73 203.629V239.629H1788.76H1844.99L1844.39 226.029L1843.79 212.629L1836.79 212.429C1832.99 212.229 1814.78 212.029 1796.37 211.829L1762.75 211.629V197.829V184.029L1748.94 175.829C1741.34 171.429 1734.53 167.629 1733.93 167.629C1733.33 167.629 1732.73 183.829 1732.73 203.629Z" fill="black"/>
</svg>