<svg xmlns="http://www.w3.org/2000/svg" width="1908" height="375" viewBox="0 0 1908 375" fill="none">
<path d="M829.601 259.306C845.651 267.727 860.297 270.534 882.165 269.531C898.014 268.729 902.027 267.727 915.269 261.311C929.914 254.092 949.977 236.246 948.372 231.634C947.971 230.431 942.353 226.821 935.934 223.212L924.297 216.996L919.281 223.613C916.272 227.423 908.448 232.837 901.827 236.045C887.181 243.063 867.319 243.865 851.269 238.451C836.422 233.438 819.77 215.793 815.356 200.754C810.14 183.309 811.946 161.653 819.569 147.617C838.629 112.527 889.989 105.108 917.676 133.581L925.1 141.2L936.937 134.183C943.357 130.172 948.773 126.362 948.773 125.359C948.773 121.349 926.704 101.699 916.673 97.0869C898.215 88.2642 875.144 85.6568 854.68 89.667C828.799 94.6799 804.723 113.128 793.087 136.589C770.416 182.507 786.265 236.447 829.601 259.306Z" fill="black"/>
<path d="M829.601 259.306C845.651 267.727 860.297 270.534 882.165 269.531C898.014 268.729 902.027 267.727 915.269 261.311C929.914 254.092 949.977 236.246 948.372 231.634C947.971 230.431 942.353 226.821 935.934 223.212L924.297 216.996L919.281 223.613C916.272 227.423 908.448 232.837 901.827 236.045C887.181 243.063 867.319 243.865 851.269 238.451C836.422 233.438 819.77 215.793 815.356 200.754C810.14 183.309 811.946 161.653 819.569 147.617C838.629 112.527 889.989 105.108 917.676 133.581L925.1 141.2L936.937 134.183C943.357 130.172 948.773 126.362 948.773 125.359C948.773 121.349 926.704 101.699 916.673 97.0869C898.215 88.2642 875.144 85.6568 854.68 89.667C828.799 94.6799 804.723 113.128 793.087 136.589C770.416 182.507 786.265 236.447 829.601 259.306Z" stroke="#FF0071"/>
<path d="M1691.68 269.526C1713.75 270.729 1730.41 266.519 1746.86 255.892C1756.89 249.475 1771.33 235.238 1771.33 231.829C1771.33 230.425 1749.46 217.793 1747.26 217.793C1746.25 217.793 1743.65 220.4 1741.24 223.809C1739.03 227.017 1731.21 232.431 1724.19 236.04C1712.35 241.855 1710.14 242.256 1694.69 241.454C1674.63 240.652 1662.39 235.238 1650.76 222.204C1628.89 197.34 1629.89 156.635 1652.96 133.575C1665.2 121.344 1677.24 116.732 1697.1 116.732C1717.16 116.732 1724.99 119.54 1737.83 131.37C1742.64 135.982 1747.46 139.59 1748.26 139.591C1750.47 139.591 1771.33 126.759 1771.33 125.354C1771.33 124.552 1767.32 119.539 1762.51 114.125C1744.05 93.6723 1709.74 83.847 1678.04 89.8623C1662.39 92.8701 1643.13 103.097 1631.7 114.526C1593.38 152.825 1597.39 219.798 1639.92 251.279C1655.97 263.11 1670.62 268.323 1691.68 269.526Z" fill="black"/>
<path d="M1691.68 269.526C1713.75 270.729 1730.41 266.519 1746.86 255.892C1756.89 249.475 1771.33 235.238 1771.33 231.829C1771.33 230.425 1749.46 217.793 1747.26 217.793C1746.25 217.793 1743.65 220.4 1741.24 223.809C1739.03 227.017 1731.21 232.431 1724.19 236.04C1712.35 241.855 1710.14 242.256 1694.69 241.454C1674.63 240.652 1662.39 235.238 1650.76 222.204C1628.89 197.34 1629.89 156.635 1652.96 133.575C1665.2 121.344 1677.24 116.732 1697.1 116.732C1717.16 116.732 1724.99 119.54 1737.83 131.37C1742.64 135.982 1747.46 139.59 1748.26 139.591C1750.47 139.591 1771.33 126.759 1771.33 125.354C1771.33 124.552 1767.32 119.539 1762.51 114.125C1744.05 93.6723 1709.74 83.847 1678.04 89.8623C1662.39 92.8701 1643.13 103.097 1631.7 114.526C1593.38 152.825 1597.39 219.798 1639.92 251.279C1655.97 263.11 1670.62 268.323 1691.68 269.526Z" stroke="#FF0071"/>
<path d="M591.695 241.859L554.178 241.458C533.313 241.257 510.642 241.459 503.62 241.659C492.787 242.261 490.981 241.859 491.983 239.253C493.187 235.844 564.812 141.199 577.853 125.358C585.275 116.536 585.677 115.132 585.677 102.7V89.4658H522.881C488.172 89.4658 459.282 90.068 458.68 90.8701C457.877 91.4728 457.275 97.8888 457.275 104.906V117.539H549.563L525.488 149.02C448.849 249.278 454.466 241.258 453.263 255.294L452.26 267.927H591.695V241.859Z" fill="black"/>
<path d="M591.695 241.859L554.178 241.458C533.313 241.257 510.642 241.459 503.62 241.659C492.787 242.261 490.981 241.859 491.983 239.253C493.187 235.844 564.812 141.199 577.853 125.358C585.275 116.536 585.677 115.132 585.677 102.7V89.4658H522.881C488.172 89.4658 459.282 90.068 458.68 90.8701C457.877 91.4728 457.275 97.8888 457.275 104.906V117.539H549.563L525.488 149.02C448.849 249.278 454.466 241.258 453.263 255.294L452.26 267.927H591.695V241.859Z" stroke="#FF0071"/>
<path d="M770.24 252.49C767.03 243.867 752.786 204.766 738.141 165.666C723.696 126.565 711.457 93.2796 711.056 91.876C710.454 90.2718 704.635 89.4697 691.193 89.4697C672.335 89.4697 671.934 89.47 669.125 94.8838C665.112 102.904 605.727 263.72 605.727 266.728C605.728 267.529 612.549 267.93 620.975 267.529L636.222 266.928L662.504 194.14C676.949 154.237 689.388 121.553 689.99 121.553C691.2 121.57 718.68 196.747 718.278 199.153C718.274 199.955 706.238 201.158 691.996 201.76L665.714 202.762L674.341 215.194L682.968 227.626L706.24 227.827H729.714L736.736 247.277L743.758 266.928L759.808 267.529L776.059 268.131L770.24 252.49Z" fill="black"/>
<path d="M770.24 252.49C767.03 243.867 752.786 204.766 738.141 165.666C723.696 126.565 711.457 93.2796 711.056 91.876C710.454 90.2718 704.635 89.4697 691.193 89.4697C672.335 89.4697 671.934 89.47 669.125 94.8838C665.112 102.904 605.727 263.72 605.727 266.728C605.728 267.529 612.549 267.93 620.975 267.529L636.222 266.928L662.504 194.14C676.949 154.237 689.388 121.553 689.99 121.553C691.2 121.57 718.68 196.747 718.278 199.153C718.274 199.955 706.238 201.158 691.996 201.76L665.714 202.762L674.341 215.194L682.968 227.626L706.24 227.827H729.714L736.736 247.277L743.758 266.928L759.808 267.529L776.059 268.131L770.24 252.49Z" stroke="#FF0071"/>
<path d="M999.507 240.055C1004.72 224.615 1016.56 191.53 1025.99 166.265C1042.04 122.553 1042.84 120.747 1045.05 126.562C1050.67 140.998 1071.13 198.544 1071.13 199.951C1071.13 200.954 1059.29 201.957 1045.05 202.157L1018.77 202.759L1027.39 215.19L1036.02 227.623L1059.09 228.225L1081.96 228.826L1096.41 266.924L1111.86 267.525C1120.89 267.926 1127.31 267.325 1127.31 266.122C1127.31 265.119 1120.08 244.466 1111.05 220.404C1102.03 196.342 1088.18 158.244 1079.96 135.786C1071.73 113.328 1064.11 93.6778 1062.9 92.0732C1060.5 89.266 1027.79 88.2631 1023.78 91.0703C1022.58 91.8731 1016.96 105.107 1011.34 120.547C1005.73 135.987 991.682 174.686 980.046 206.568C968.41 238.25 958.779 265.119 958.779 266.122C958.779 267.125 965.801 267.927 974.428 267.927H989.876L999.507 240.055Z" fill="black"/>
<path d="M999.507 240.055C1004.72 224.615 1016.56 191.53 1025.99 166.265C1042.04 122.553 1042.84 120.747 1045.05 126.562C1050.67 140.998 1071.13 198.544 1071.13 199.951C1071.13 200.954 1059.29 201.957 1045.05 202.157L1018.77 202.759L1027.39 215.19L1036.02 227.623L1059.09 228.225L1081.96 228.826L1096.41 266.924L1111.86 267.525C1120.89 267.926 1127.31 267.325 1127.31 266.122C1127.31 265.119 1120.08 244.466 1111.05 220.404C1102.03 196.342 1088.18 158.244 1079.96 135.786C1071.73 113.328 1064.11 93.6778 1062.9 92.0732C1060.5 89.266 1027.79 88.2631 1023.78 91.0703C1022.58 91.8731 1016.96 105.107 1011.34 120.547C1005.73 135.987 991.682 174.686 980.046 206.568C968.41 238.25 958.779 265.119 958.779 266.122C958.779 267.125 965.801 267.927 974.428 267.927H989.876L999.507 240.055Z" stroke="#FF0071"/>
<path d="M1179.09 239.056L1178.49 210.182L1206.58 209.379C1237.68 208.577 1246.5 205.97 1260.35 193.939C1284.82 172.484 1285.22 127.969 1261.35 106.313C1245.5 92.0767 1239.88 90.6732 1192.13 89.8711C1167.06 89.4701 1149.4 89.8707 1149.4 90.873C1149.4 93.2793 1157.63 100.899 1170.06 110.323L1179.89 117.542H1203.17C1231.66 117.542 1238.48 120.149 1245.3 133.584C1250.72 144.412 1250.92 153.836 1245.7 165.064C1239.28 179.301 1233.06 181.708 1202.77 181.708H1177.09L1177.69 157.847L1178.49 134.186L1164.45 126.967C1156.82 122.956 1150.4 119.949 1150.2 120.149C1150 120.374 1149.6 153.45 1149.2 193.739L1148.4 266.928L1164.04 267.529L1179.69 268.131L1179.09 239.056Z" fill="black"/>
<path d="M1179.09 239.056L1178.49 210.182L1206.58 209.379C1237.68 208.577 1246.5 205.97 1260.35 193.939C1284.82 172.484 1285.22 127.969 1261.35 106.313C1245.5 92.0767 1239.88 90.6732 1192.13 89.8711C1167.06 89.4701 1149.4 89.8707 1149.4 90.873C1149.4 93.2793 1157.63 100.899 1170.06 110.323L1179.89 117.542H1203.17C1231.66 117.542 1238.48 120.149 1245.3 133.584C1250.72 144.412 1250.92 153.836 1245.7 165.064C1239.28 179.301 1233.06 181.708 1202.77 181.708H1177.09L1177.69 157.847L1178.49 134.186L1164.45 126.967C1156.82 122.956 1150.4 119.949 1150.2 120.149C1150 120.374 1149.6 153.45 1149.2 193.739L1148.4 266.928L1164.04 267.529L1179.69 268.131L1179.09 239.056Z" stroke="#FF0071"/>
<path d="M1416.26 241.859L1386.17 241.458C1369.72 241.257 1351.86 241.057 1346.65 240.856H1337.01L1336.01 165.663L1335.01 90.4688L1321.97 89.8672C1314.75 89.4662 1308.13 89.867 1307.32 90.6689C1306.52 91.471 1305.92 131.775 1305.92 180.1V267.927H1416.26V241.859Z" fill="black"/>
<path d="M1416.26 241.859L1386.17 241.458C1369.72 241.257 1351.86 241.057 1346.65 240.856H1337.01L1336.01 165.663L1335.01 90.4688L1321.97 89.8672C1314.75 89.4662 1308.13 89.867 1307.32 90.6689C1306.52 91.471 1305.92 131.775 1305.92 180.1V267.927H1416.26V241.859Z" stroke="#FF0071"/>
<path d="M1905.75 89.459H1850.38C1807.04 89.459 1795.2 90.0606 1795.81 91.8652C1796.41 93.2692 1802.83 99.6856 1810.45 105.901L1824.09 117.531H1905.75V89.459Z" fill="black"/>
<path d="M1905.75 89.459H1850.38C1807.04 89.459 1795.2 90.0606 1795.81 91.8652C1796.41 93.2692 1802.83 99.6856 1810.45 105.901L1824.09 117.531H1905.75V89.459Z" stroke="#FF0071"/>
<path d="M1458.76 266.928L1462.37 257.704C1464.18 252.491 1476.02 219.806 1488.45 184.916C1505.31 137.594 1511.73 122.154 1513.13 124.561C1515.74 129.373 1540.61 197.339 1540.62 199.754C1540.62 200.957 1530.79 201.76 1514.54 201.76H1488.45L1496.88 214.793L1505.51 227.626L1528.58 228.228L1551.65 228.829L1558.67 248.279L1565.7 267.931H1581.14C1589.77 267.931 1596.79 267.529 1596.79 267.128C1596.79 266.713 1587.76 241.654 1576.93 211.585C1566.1 181.307 1551.85 142.005 1545.43 124.159L1533.59 91.4746H1491.46L1474.61 137.193C1465.38 162.258 1451.74 199.353 1444.32 219.806C1436.69 240.258 1429.67 259.509 1428.47 262.517L1426.26 268.131L1458.76 266.928Z" fill="black"/>
<path d="M1458.76 266.928L1462.37 257.704C1464.18 252.491 1476.02 219.806 1488.45 184.916C1505.31 137.594 1511.73 122.154 1513.13 124.561C1515.74 129.373 1540.61 197.339 1540.62 199.754C1540.62 200.957 1530.79 201.76 1514.54 201.76H1488.45L1496.88 214.793L1505.51 227.626L1528.58 228.228L1551.65 228.829L1558.67 248.279L1565.7 267.931H1581.14C1589.77 267.931 1596.79 267.529 1596.79 267.128C1596.79 266.713 1587.76 241.654 1576.93 211.585C1566.1 181.307 1551.85 142.005 1545.43 124.159L1533.59 91.4746H1491.46L1474.61 137.193C1465.38 162.258 1451.74 199.353 1444.32 219.806C1436.69 240.258 1429.67 259.509 1428.47 262.517L1426.26 268.131L1458.76 266.928Z" stroke="#FF0071"/>
<path d="M1897.77 165.651L1861.25 165.25L1824.54 164.648L1825.14 149.61L1825.74 134.571L1810.5 127.152L1795.45 119.532V174.875L1807.49 183.297L1819.32 191.719H1897.77V165.651Z" fill="black"/>
<path d="M1897.77 165.651L1861.25 165.25L1824.54 164.648L1825.14 149.61L1825.74 134.571L1810.5 127.152L1795.45 119.532V174.875L1807.49 183.297L1819.32 191.719H1897.77V165.651Z" stroke="#FF0071"/>
<path d="M1907.4 254.292L1906.8 240.856L1899.78 240.656C1895.96 240.456 1877.71 240.255 1859.25 240.055L1825.54 239.854V212.183L1811.7 203.962C1804.08 199.551 1797.26 195.742 1796.65 195.74C1796.05 195.74 1795.45 211.983 1795.45 231.834V267.927H1908L1907.4 254.292Z" fill="black"/>
<path d="M1907.4 254.292L1906.8 240.856L1899.78 240.656C1895.96 240.456 1877.71 240.255 1859.25 240.055L1825.54 239.854V212.183L1811.7 203.962C1804.08 199.551 1797.26 195.742 1796.65 195.74C1796.05 195.74 1795.45 211.983 1795.45 231.834V267.927H1908L1907.4 254.292Z" stroke="#FF0071"/>
<g filter="url(#filter0_d_4333_5628)">
<path fill-rule="evenodd" clip-rule="evenodd" d="M132.639 30.4668C132.639 29.7467 133.791 28.7386 135.231 28.4505C136.959 28.0185 137.104 27.7305 135.519 27.5865C132.207 27.4425 113.917 41.1238 113.917 43.86C113.917 44.4361 117.23 41.9879 121.262 38.3876C125.294 34.7872 129.471 31.7629 130.623 31.7629C131.775 31.7629 132.639 31.1868 132.639 30.4668ZM286.734 37.3794C286.734 38.8196 290.911 42.5639 291.631 41.6999C291.775 41.4118 290.767 39.9717 289.326 38.5315C287.886 37.2354 286.734 36.6594 286.734 37.3794ZM297.823 49.1886C298.831 50.1967 299.984 50.6287 300.416 50.1967C300.848 49.7646 300.127 48.9006 298.687 48.4685C296.671 47.6044 296.527 47.7485 297.823 49.1886ZM310.929 62.1499C313.089 64.0221 313.233 63.878 311.361 61.5738C309.488 59.2696 308.336 58.5495 308.336 59.7016C308.336 59.9897 309.488 61.1418 310.929 62.1499ZM318.705 73.527C319.569 73.527 319.425 72.6629 318.417 71.3668C317.409 70.2147 316.401 69.2065 316.113 69.2065C315.825 69.2065 315.969 70.2147 316.401 71.3668C316.977 72.5189 317.985 73.527 318.705 73.527ZM329.074 88.6485L326.338 84.3281C322.018 77.1273 319.857 74.2471 319.857 75.3992C319.857 77.4154 323.026 82.5999 326.05 85.6242L329.074 88.6485ZM332.963 95.2732C335.267 98.0094 335.555 98.1534 334.403 95.8492C331.955 90.9527 329.938 88.5045 329.938 90.2326C329.938 91.2408 331.235 93.401 332.963 95.2732ZM55.3035 110.251C57.3197 108.954 59.3359 106.938 59.7679 105.642C61.208 102.042 59.9119 102.042 56.7436 105.642C51.8471 111.115 51.2711 112.987 55.3035 110.251ZM341.028 108.666C344.052 112.699 345.204 112.555 342.9 108.234C342.036 106.506 340.739 105.21 339.875 105.21C339.155 105.21 339.587 106.794 341.028 108.666ZM348.804 120.476C349.956 121.052 349.956 120.62 348.804 118.459C347.94 116.731 346.5 115.003 345.636 114.427C344.484 113.851 344.484 114.283 345.636 116.443C346.5 118.171 347.94 119.9 348.804 120.476ZM363.062 137.757C363.062 137.325 361.766 135.453 360.325 133.725C351.973 123.788 350.388 122.348 355.141 129.26C360.181 136.461 363.062 139.485 363.062 137.757ZM365.366 142.654C365.654 142.654 365.942 141.934 365.942 141.214C365.942 140.35 365.222 139.773 364.358 139.773C363.638 139.773 363.35 140.35 363.782 141.214C364.214 141.934 364.934 142.654 365.366 142.654ZM30.533 144.526C28.6608 147.55 28.8049 147.55 31.2531 145.246C32.6932 143.806 33.5573 142.366 33.1253 142.078C32.6932 141.646 31.5411 142.798 30.533 144.526ZM366.086 145.534C365.942 148.126 368.39 152.159 369.398 151.295C369.686 150.863 369.11 148.99 368.102 146.974C366.95 144.814 366.086 144.238 366.086 145.534ZM372.135 161.376C372.135 164.976 372.423 166.416 372.711 164.544C372.999 162.816 372.999 159.935 372.711 158.063C372.423 156.335 372.135 157.775 372.135 161.376ZM344.34 195.219C345.204 194.787 345.78 190.466 345.78 185.858C345.78 181.25 345.204 176.929 344.34 176.497C343.476 175.921 342.9 179.377 342.9 185.858C342.9 192.339 343.476 195.795 344.34 195.219ZM373.287 188.018L374.727 184.418C375.447 182.546 375.879 179.665 375.735 177.937C375.303 175.201 375.159 175.201 374.151 177.649C373.575 179.089 373.143 182.114 373.287 184.13V188.018ZM365.798 181.538C366.662 181.538 367.382 180.817 367.382 180.097C367.382 179.233 367.094 178.657 366.806 178.657C366.374 178.657 365.654 179.233 365.222 180.097C364.79 180.817 365.078 181.538 365.798 181.538ZM363.062 199.107C361.046 204.868 363.926 204.148 366.662 198.243C369.542 192.195 369.254 186.146 366.374 191.763C365.366 193.635 363.926 196.947 363.062 199.107ZM29.0929 197.523L26.7887 193.923C24.3404 190.178 21.7482 189.026 21.7482 191.475C21.7482 192.195 23.4763 193.779 25.4925 195.219L29.0929 197.523ZM344.34 207.46C345.06 206.308 345.78 204.148 345.78 202.708C345.78 201.412 345.204 200.259 344.34 200.259C343.62 200.259 342.9 202.42 342.9 204.868C342.9 208.468 343.332 209.044 344.34 207.46ZM39.3179 204.004C40.758 205.444 42.1982 206.164 42.7742 205.732C43.2063 205.156 42.0542 204.004 40.182 203.14C38.5818 202.267 37.7898 201.835 37.6947 201.955C37.6014 202.073 38.1774 202.721 39.3179 204.004ZM48.5348 206.02C48.8228 206.02 49.1108 205.3 49.1108 204.58C49.1108 203.716 48.3908 203.14 47.5267 203.14C46.8066 203.14 46.5186 203.716 46.9506 204.58C47.3827 205.3 48.1027 206.02 48.5348 206.02ZM363.926 207.028C363.062 209.044 363.206 209.188 364.646 207.892C365.654 206.884 366.086 205.732 365.654 205.3C365.222 204.868 364.358 205.588 363.926 207.028ZM343.044 225.606C343.044 227.19 343.476 227.622 343.908 226.47C344.34 225.462 344.196 224.166 343.764 223.734C343.332 223.158 342.9 224.022 343.044 225.606ZM69.2728 235.543C71.289 236.839 71.001 234.535 68.6968 231.51C67.6887 230.214 66.3925 229.062 65.8165 229.062C64.5204 229.062 67.4006 234.391 69.2728 235.543Z" fill="black"/>
<path fill-rule="evenodd" clip-rule="evenodd" d="M154.673 18.8016C149.057 19.3777 142.576 20.8178 140.272 21.9699C138.112 23.122 133.359 25.5703 129.759 27.2985C123.134 30.4668 108.157 44.0041 100.092 54.2291C91.739 64.5981 87.2746 69.9266 86.5545 70.6467C85.9785 71.0787 83.6742 74.2471 81.226 77.8474C78.7778 81.4478 75.3214 85.1921 73.4492 86.2002C71.5771 87.2083 68.9848 89.8006 67.6887 92.1048C66.3925 94.265 62.5042 98.0094 59.0478 100.314C55.5915 102.618 51.7031 106.65 50.551 109.098C49.3989 111.547 46.6626 115.723 44.5024 118.315C42.1982 120.908 40.47 124.076 40.47 125.372C40.47 126.524 38.7418 129.548 36.5816 131.997C29.3809 139.917 23.1883 149.566 22.3242 154.031C21.7482 156.479 20.452 159.215 19.4439 160.079C18.0038 161.232 17.4277 165.696 17.4277 176.785C17.4277 191.907 17.4277 191.907 22.0362 196.227C27.5087 201.267 40.902 210.34 43.0623 210.34C43.9263 210.34 44.9344 209.476 45.3665 208.468C45.7985 207.316 47.0946 208.036 49.1108 210.628C50.839 212.933 53.2873 214.661 54.4394 214.661C57.6077 214.661 60.488 218.981 60.632 223.878C60.632 229.494 66.2485 239.143 69.5609 239.143C71.433 239.143 72.1531 240.295 72.1531 242.744C72.1531 244.76 73.3052 248.504 74.7454 251.096C77.4816 256.137 82.5221 263.914 83.6742 265.066C84.1063 265.498 86.8426 269.386 89.7228 273.707C92.7471 278.027 96.9235 283.356 99.2278 285.516C103.976 289.976 107.431 294.437 107.6 294.617L110.317 297.469C111.901 299.053 116.653 304.958 120.686 310.43C131.775 325.264 137.248 330.592 150.353 339.233C156.833 343.409 163.458 348.162 165.042 349.602C173.251 357.091 192.837 359.827 204.214 355.075C206.95 353.922 210.695 352.914 212.279 352.914C213.863 352.914 217.319 351.33 219.912 349.314C222.504 347.298 225.528 345.714 226.824 345.714C227.976 345.714 229.417 344.994 229.849 344.274C230.281 343.409 231.721 342.833 232.729 342.833C233.881 342.833 237.049 340.529 239.786 337.793C242.666 335.057 245.402 332.752 245.978 332.752C246.698 332.752 249.723 330.448 252.891 327.712C256.059 324.976 259.083 322.671 259.804 322.671C260.38 322.671 262.252 321.375 264.124 319.791C269.885 314.319 271.613 313.166 277.085 309.854C279.966 308.126 282.522 305.377 282.522 305.377C283.007 304.988 283.275 305 284.718 303.374C286.666 302.363 290.057 297.842 290.057 297.842C291.065 295.97 292.317 295.597 292.317 295.597L295.708 293.321C296.461 292.191 297.391 290.124 306.896 280.619C313.665 273.995 321.874 266.506 325.042 263.914C328.354 261.465 332.099 257.289 333.395 254.697C334.691 252.104 336.419 248.936 337.139 247.784C337.859 246.632 340.74 240.439 343.62 234.103C347.22 226.47 351.109 220.565 355.429 216.533C359.029 213.077 362.054 210.34 362.342 210.34C362.63 210.34 362.054 212.213 361.189 214.661C360.325 216.965 360.037 219.269 360.613 219.845C362.054 221.429 365.51 217.973 367.382 212.789C371.415 202.132 376.311 191.187 377.607 190.178C378.183 189.746 378.615 182.834 378.759 174.913C379.047 162.384 378.615 159.359 375.879 154.319C374.295 151.007 372.279 147.982 371.559 147.55C370.838 147.118 370.262 145.534 370.262 144.094C370.262 142.654 369.254 140.494 368.102 139.197C366.95 138.045 365.942 136.461 365.942 135.741C365.942 134.877 364.934 134.013 363.782 133.437C362.63 133.005 361.622 131.709 361.622 130.413C361.622 127.964 352.117 114.427 348.228 111.115C346.788 110.107 345.78 108.522 345.78 107.802C345.78 107.082 343.476 103.482 340.74 99.8816C338.003 96.2812 335.699 92.3929 335.699 91.3848C335.699 90.3766 335.123 89.3685 334.403 89.0805C333.683 88.7925 329.218 82.4558 324.178 74.9671C312.369 56.8213 291.487 33.203 287.166 33.203C285.726 33.203 280.83 31.0428 273.773 27.2985C266.428 23.2661 262.252 21.8259 256.491 21.1058C240.506 19.0897 224.52 18.6576 212.423 19.9537C203.206 21.1058 197.733 20.9618 193.701 19.9537C186.356 17.9375 167.779 17.3615 154.673 18.8016ZM132.639 30.4668C132.639 29.7467 133.791 28.7386 135.231 28.4505C136.959 28.0185 137.104 27.7305 135.519 27.5865C132.207 27.4425 113.917 41.1238 113.917 43.86C113.917 44.4361 117.23 41.9879 121.262 38.3876C125.294 34.7872 129.471 31.7629 130.623 31.7629C131.775 31.7629 132.639 31.1868 132.639 30.4668ZM286.734 37.3794C286.734 38.8196 290.911 42.5639 291.631 41.6999C291.775 41.4118 290.767 39.9717 289.326 38.5315C287.886 37.2354 286.734 36.6594 286.734 37.3794ZM297.823 49.1886C298.831 50.1967 299.984 50.6287 300.416 50.1967C300.848 49.7646 300.127 48.9006 298.687 48.4685C296.671 47.6044 296.527 47.7485 297.823 49.1886ZM238.201 85.4802C234.457 82.1678 226.104 75.1111 219.768 69.9266C213.431 64.7421 206.518 58.8376 204.502 56.6773L200.614 52.933L197.589 59.8456C195.861 63.59 194.565 67.6224 194.565 68.6305C194.565 72.2309 175.699 89.6566 163.746 97.0013C161.442 98.4414 158.706 100.602 157.553 101.754C156.401 102.906 154.817 103.77 154.097 103.77C151.073 103.77 153.233 106.218 159.282 109.386C162.882 111.259 167.202 113.995 168.931 115.435C170.515 117.019 172.819 118.171 173.971 118.171C174.979 118.171 175.843 118.891 175.843 119.611C175.843 122.348 171.523 122.78 167.923 120.476C166.05 119.179 163.314 118.171 161.874 118.171C158.562 118.171 149.777 111.979 150.497 110.107C150.785 109.242 150.641 107.802 150.065 106.938C148.913 105.066 127.455 120.476 114.637 132.141C113.629 133.149 112.045 134.013 111.181 134.013C110.317 134.013 109.597 134.589 109.597 135.453C109.597 136.173 108.877 136.893 108.157 136.893C106.428 136.893 105.564 137.613 98.7957 143.518C96.4915 145.534 92.7471 148.126 90.5869 149.278C88.2827 150.431 86.5545 152.015 86.5545 152.735C86.5545 153.599 85.6904 154.175 84.8264 154.175C83.0982 154.175 81.082 156.191 71.145 167.856C67.6887 171.889 67.5447 172.753 68.4087 183.698C68.8408 190.034 69.5609 202.276 70.1369 211.06C70.569 219.701 71.8651 229.35 73.0172 232.375C74.1693 235.255 75.0334 239.575 75.0334 241.735C75.1774 243.896 76.7616 248.216 78.6337 251.384C80.6499 254.553 82.9542 258.585 83.9623 260.313C84.8264 262.185 86.1225 263.626 86.6985 263.626C87.2746 263.626 89.8669 267.082 92.3151 271.114C94.9073 275.291 99.9478 281.771 103.548 285.372C110.317 291.852 112.333 294.301 122.126 307.262C125.006 311.006 127.887 314.031 128.463 314.031C129.183 314.031 129.759 315.039 129.759 316.191C129.759 320.223 141.568 329.872 170.659 349.746C174.979 352.77 178.436 353.634 186.068 354.066C197.013 354.787 205.078 352.626 221.352 344.85C226.968 342.113 232.009 339.953 232.441 339.953C233.017 339.953 235.609 337.649 238.345 334.913C241.226 332.176 243.962 329.872 244.538 329.872C245.258 329.872 248.282 327.568 251.451 324.832C254.619 322.095 257.643 319.791 258.219 319.791C259.227 319.791 260.668 318.783 268.3 312.158C270.029 310.862 271.757 309.71 272.189 309.71C274.061 309.71 286.734 297.469 286.734 295.597C286.734 294.733 287.31 293.869 288.174 293.869C288.894 293.869 292.063 291.132 295.375 287.82C302 280.763 301.424 281.339 312.225 270.538C316.689 265.93 321.01 262.185 321.586 262.185C325.474 262.185 335.411 247.064 332.387 245.912C331.235 245.48 331.523 244.328 333.395 242.168C335.123 240.295 335.555 239.143 334.259 239.143C333.107 239.143 332.819 238.279 333.539 236.551C339.731 221.862 340.019 219.989 340.019 194.931C340.019 174.913 339.587 169.872 337.859 168C336.707 166.848 335.987 164.976 336.419 163.968C338.003 159.935 323.314 144.67 310.497 136.893C307.328 134.877 303.008 131.853 300.848 129.981C296.239 125.948 290.047 122.492 287.31 122.492C286.158 122.492 285.294 121.916 285.294 121.052C285.294 120.332 282.558 118.315 279.245 116.587C275.789 114.859 271.469 111.835 269.452 109.963C266.572 107.082 264.988 106.506 260.956 107.226C258.219 107.658 255.627 108.522 255.195 109.098C254.043 110.683 249.867 113.131 242.378 116.875C239.066 118.603 235.897 120.476 235.465 121.196C234.457 122.924 229.129 122.78 229.129 121.052C229.129 120.332 231.865 117.883 235.321 115.867C238.633 113.707 241.658 111.547 242.09 110.971C242.522 110.539 245.834 108.522 249.723 106.794C257.499 103.05 258.507 99.5935 252.603 96.4252C250.299 95.2731 247.85 93.689 246.842 92.9689C245.978 92.1048 242.09 88.7925 238.201 85.4802ZM310.929 62.1499C313.089 64.0221 313.233 63.878 311.361 61.5738C309.488 59.2696 308.336 58.5495 308.336 59.7016C308.336 59.9897 309.488 61.1418 310.929 62.1499ZM318.705 73.527C319.569 73.527 319.425 72.6629 318.417 71.3668C317.409 70.2147 316.401 69.2065 316.113 69.2065C315.825 69.2065 315.969 70.2147 316.401 71.3668C316.977 72.5189 317.985 73.527 318.705 73.527ZM329.074 88.6485L326.338 84.3281C322.018 77.1273 319.857 74.2471 319.857 75.3992C319.857 77.4154 323.026 82.5999 326.05 85.6242L329.074 88.6485ZM332.963 95.2732C335.267 98.0094 335.555 98.1534 334.403 95.8492C331.955 90.9527 329.938 88.5045 329.938 90.2326C329.938 91.2408 331.235 93.401 332.963 95.2732ZM55.3035 110.251C57.3197 108.954 59.3359 106.938 59.7679 105.642C61.208 102.042 59.9119 102.042 56.7436 105.642C51.8471 111.115 51.2711 112.987 55.3035 110.251ZM341.028 108.666C344.052 112.699 345.204 112.555 342.9 108.234C342.036 106.506 340.739 105.21 339.875 105.21C339.155 105.21 339.587 106.794 341.028 108.666ZM348.804 120.476C349.956 121.052 349.956 120.62 348.804 118.459C347.94 116.731 346.5 115.003 345.636 114.427C344.484 113.851 344.484 114.283 345.636 116.443C346.5 118.171 347.94 119.9 348.804 120.476ZM363.062 137.757C363.062 137.325 361.766 135.453 360.325 133.725C351.973 123.788 350.388 122.348 355.141 129.26C360.181 136.461 363.062 139.485 363.062 137.757ZM365.366 142.654C365.654 142.654 365.942 141.934 365.942 141.214C365.942 140.35 365.222 139.773 364.358 139.773C363.638 139.773 363.35 140.35 363.782 141.214C364.214 141.934 364.934 142.654 365.366 142.654ZM30.533 144.526C28.6608 147.55 28.8049 147.55 31.2531 145.246C32.6932 143.806 33.5573 142.366 33.1253 142.078C32.6932 141.646 31.5411 142.798 30.533 144.526ZM366.086 145.534C365.942 148.126 368.39 152.159 369.398 151.295C369.686 150.863 369.11 148.99 368.102 146.974C366.95 144.814 366.086 144.238 366.086 145.534ZM372.135 161.376C372.135 164.976 372.423 166.416 372.711 164.544C372.999 162.816 372.999 159.935 372.711 158.063C372.423 156.335 372.135 157.775 372.135 161.376ZM344.34 195.219C345.204 194.787 345.78 190.466 345.78 185.858C345.78 181.25 345.204 176.929 344.34 176.497C343.476 175.921 342.9 179.377 342.9 185.858C342.9 192.339 343.476 195.795 344.34 195.219ZM373.287 188.018L374.727 184.418C375.447 182.546 375.879 179.665 375.735 177.937C375.303 175.201 375.159 175.201 374.151 177.649C373.575 179.089 373.143 182.114 373.287 184.13V188.018ZM365.798 181.538C366.662 181.538 367.382 180.817 367.382 180.097C367.382 179.233 367.094 178.657 366.806 178.657C366.374 178.657 365.654 179.233 365.222 180.097C364.79 180.817 365.078 181.538 365.798 181.538ZM363.062 199.107C361.046 204.868 363.926 204.148 366.662 198.243C369.542 192.195 369.254 186.146 366.374 191.763C365.366 193.635 363.926 196.947 363.062 199.107ZM29.0929 197.523L26.7887 193.923C24.3404 190.178 21.7482 189.026 21.7482 191.475C21.7482 192.195 23.4763 193.779 25.4925 195.219L29.0929 197.523ZM344.34 207.46C345.06 206.308 345.78 204.148 345.78 202.708C345.78 201.412 345.204 200.259 344.34 200.259C343.62 200.259 342.9 202.42 342.9 204.868C342.9 208.468 343.332 209.044 344.34 207.46ZM39.3179 204.004C40.758 205.444 42.1982 206.164 42.7742 205.732C43.2063 205.156 42.0542 204.004 40.182 203.14C38.5818 202.267 37.7898 201.835 37.6947 201.955C37.6014 202.073 38.1774 202.721 39.3179 204.004ZM48.5348 206.02C48.8228 206.02 49.1108 205.3 49.1108 204.58C49.1108 203.716 48.3908 203.14 47.5267 203.14C46.8066 203.14 46.5186 203.716 46.9506 204.58C47.3827 205.3 48.1027 206.02 48.5348 206.02ZM363.926 207.028C363.062 209.044 363.206 209.188 364.646 207.892C365.654 206.884 366.086 205.732 365.654 205.3C365.222 204.868 364.358 205.588 363.926 207.028ZM343.044 225.606C343.044 227.19 343.476 227.622 343.908 226.47C344.34 225.462 344.196 224.166 343.764 223.734C343.332 223.158 342.9 224.022 343.044 225.606ZM69.2728 235.543C71.289 236.839 71.001 234.535 68.6968 231.51C67.6887 230.214 66.3925 229.062 65.8165 229.062C64.5204 229.062 67.4006 234.391 69.2728 235.543Z" fill="black"/>
<path d="M263.556 116.604C263.556 117.324 261.396 118.62 258.947 119.628C253.187 121.933 244.834 127.981 244.834 129.853C244.834 130.573 245.842 131.149 246.994 131.149C248.146 131.149 249.154 130.573 249.154 129.853C249.154 128.557 257.939 123.373 266.868 119.34C271.765 117.18 271.909 115.308 267.156 115.308C265.14 115.308 263.556 115.884 263.556 116.604Z" fill="black"/>
<path d="M144.057 121.064C144.057 121.784 145.929 122.504 148.233 122.504C150.537 122.504 153.418 123.512 154.714 124.664C155.866 125.816 157.162 126.824 157.738 126.824C158.17 126.824 160.474 128.264 162.778 129.993C165.083 131.721 167.531 132.585 168.107 132.009C168.827 131.433 167.675 129.705 165.659 128.264C163.643 126.824 160.474 124.232 158.602 122.648C155.002 119.48 144.057 118.327 144.057 121.064Z" fill="black"/>
<path d="M251.546 131.014C243.625 133.751 240.025 138.215 247.226 136.199C249.53 135.479 256.587 135.047 262.923 135.191C277.037 135.623 292.446 134.183 292.446 132.599C292.446 131.302 283.085 129.862 268.684 128.998C261.483 128.566 256.587 129.142 251.546 131.014Z" fill="black"/>
<path d="M132.463 132.026C127.998 134.33 124.686 138.075 125.838 139.227C126.27 139.659 130.303 138.795 134.767 137.067C143.408 133.754 152.193 133.034 153.057 135.626C153.777 137.787 177.251 139.227 177.251 137.067C177.251 136.203 174.803 135.482 171.491 135.482C168.322 135.482 162.418 134.186 158.241 132.602C149.6 129.29 138.079 129.002 132.463 132.026Z" fill="black"/>
<path d="M188.738 139.486C188.738 141.214 198.387 143.519 199.827 142.078C201.268 140.782 200.115 140.062 194.211 139.054C190.61 138.334 188.738 138.622 188.738 139.486Z" fill="black"/>
<path d="M210.138 139.938C209.13 140.658 206.826 141.234 205.097 141.234C203.225 141.234 201.785 141.811 201.785 142.675C201.785 143.395 203.225 144.115 205.097 144.115C207.978 144.259 207.978 144.403 205.818 145.699C203.225 147.139 202.217 151.315 204.377 151.315C204.953 151.315 207.258 149.731 209.418 147.859C211.722 145.843 216.763 143.539 220.651 142.531C224.539 141.522 227.708 140.226 227.708 139.65C227.708 138.21 212.586 138.498 210.138 139.938Z" fill="black"/>
<path d="M147.435 142.222C141.674 142.51 136.922 143.374 136.922 144.094C136.922 145.678 150.459 145.966 160.54 144.67C168.029 143.518 169.613 141.07 162.556 141.502C159.964 141.646 153.051 142.078 147.435 142.222Z" fill="black"/>
<path d="M183.029 143.834C183.029 145.13 191.526 148.442 194.982 148.442C199.015 148.442 197.719 146.282 192.678 144.41C187.206 142.394 183.029 142.106 183.029 143.834Z" fill="black"/>
<path d="M249.252 143.969C249.252 144.689 254.869 145.553 261.925 145.841C268.838 146.273 275.607 147.137 277.047 147.713C278.775 148.433 279.495 148.145 279.495 146.561C279.495 145.409 277.623 144.113 275.03 143.537C268.262 142.241 249.252 142.529 249.252 143.969Z" fill="black"/>
<path d="M163.876 164.994C161.715 167.01 158.979 168.594 157.971 168.594C155.955 168.594 141.265 183.86 141.265 186.02C141.265 186.74 139.969 188.036 138.385 189.044C135.505 190.916 134.353 194.517 136.801 194.517C137.521 194.517 139.681 192.5 141.553 190.196C152.066 176.371 159.267 170.178 170.5 165.282C172.66 164.418 174.389 163.122 174.389 162.545C174.389 160.097 167.62 161.681 163.876 164.994Z" fill="black"/>
<path d="M232.003 168.58C232.003 169.3 233.299 170.74 234.883 171.748C237.188 173.332 237.764 175.061 237.764 182.261C237.62 193.35 234.451 197.815 227.827 196.519C223.938 195.655 217.602 201.415 217.602 201.415C217.602 201.415 217.602 201.415 202.48 213.368C202.48 213.368 197.276 220.346 192.975 219.417C189.787 218.728 186.927 213.656 186.927 213.656C175.838 203.143 173.821 201.703 170.509 201.703C168.637 201.703 165 197.755 164.682 197.436C163.098 196.86 162.876 193.782 162.876 188.31C162.876 181.397 163.452 180.101 167.917 175.781C170.653 173.044 172.957 170.308 172.957 169.732C172.957 167.14 169.213 168.868 164.749 173.765C160.284 178.661 159.996 179.669 159.996 188.886C159.996 198.103 160.284 198.967 163.596 200.551C165.613 201.415 167.197 202.567 167.197 203.143C167.197 203.719 169.069 205.016 171.229 205.88C173.533 206.888 178.574 210.776 182.462 214.665C189.231 221.577 189.807 221.865 197.872 221.865C205.505 221.865 206.801 221.433 210.545 217.401C212.849 214.953 214.721 212.072 214.721 211.064C214.721 207.752 226.387 200.263 231.571 200.263C234.163 200.263 236.324 199.687 236.324 198.967C236.324 198.247 237.332 196.519 238.628 195.223C243.092 190.902 244.964 175.637 241.652 171.316C239.636 168.58 232.003 166.42 232.003 168.58ZM206.657 216.825C206.081 217.977 204.784 218.985 203.488 218.985C201.616 218.985 201.76 218.553 204.064 216.825C207.521 214.232 207.665 214.232 206.657 216.825Z" fill="black"/>
<path d="M242.012 168.436C242.012 169.156 242.876 170.02 243.884 170.452C244.748 170.74 249.356 174.052 253.821 177.797C261.598 184.133 266.494 186.15 266.494 182.981C266.494 182.117 265.774 181.541 264.91 181.541C264.046 181.541 259.293 178.229 254.253 174.34C245.468 167.428 242.012 165.7 242.012 168.436Z" fill="black"/>
<path d="M278.107 203.583C278.107 204.591 279.115 206.751 280.267 208.335C282.571 211.36 283.147 216.112 281.275 216.112C279.259 216.112 274.507 225.905 275.803 227.201C276.523 227.777 277.387 227.489 277.819 226.337C278.251 225.185 280.123 222.737 281.851 220.865C285.884 216.832 286.172 212.224 282.859 206.175C280.123 201.567 278.107 200.415 278.107 203.583Z" fill="black"/>
<path d="M302.592 207.609C302.592 208.617 304.032 213.082 305.617 217.69C309.217 227.483 308.641 231.083 302.592 237.852C298.416 242.605 296.832 247.789 299.712 247.789C300.576 247.789 301.152 246.925 301.152 245.773C301.152 244.765 302.592 242.317 304.464 240.3C312.097 231.659 312.961 226.475 308.353 216.25C306.769 212.794 305.473 209.193 305.473 208.041C305.473 206.889 304.896 206.025 304.032 206.025C303.312 206.025 302.592 206.745 302.592 207.609Z" fill="black"/>
<path fill-rule="evenodd" clip-rule="evenodd" d="M252.739 218.717C250.867 221.021 248.418 222.461 246.402 222.317C244.674 222.173 241.65 223.037 239.777 224.333C236.897 226.205 229.841 226.493 193.549 226.493C164.314 226.493 150.489 225.917 150.201 224.909C149.193 222.029 147.032 223.325 147.032 226.781C147.032 228.798 146.456 230.814 145.592 231.246C143.432 232.542 143.864 234.846 146.312 234.846C147.464 234.846 148.473 234.126 148.473 233.406C148.473 230.238 151.065 232.254 152.793 236.574C155.529 243.487 171.515 258.176 182.316 263.649C186.492 265.809 190.813 266.529 199.31 266.529C212.271 266.529 217.599 264.513 225.376 257.024C228.112 254.288 230.849 252.128 231.281 252.128C232.865 252.128 235.889 248.528 236.897 245.215C237.473 243.487 238.481 242.047 239.057 242.047C239.633 242.047 240.93 239.023 241.794 235.134C243.378 229.23 244.53 227.934 250.723 224.477C255.619 221.741 257.923 219.581 257.923 217.565C257.923 213.676 256.339 214.108 252.739 218.717ZM179.868 230.094C181.596 230.382 184.188 230.382 185.628 230.094C186.924 229.662 185.484 229.374 182.316 229.518C179.148 229.518 177.995 229.806 179.868 230.094ZM200.174 233.118C206.942 235.278 215.727 234.414 220.048 231.246C222.352 229.374 221.632 229.23 213.999 229.374C209.246 229.374 202.766 229.95 199.598 230.382L193.837 231.246L200.174 233.118ZM227.248 234.846C228.112 234.846 229.552 233.838 230.561 232.686C232.865 229.95 232.145 229.95 228.544 232.686C226.96 233.838 226.384 234.846 227.248 234.846ZM236.321 240.607C236.897 240.607 237.761 238.591 238.337 235.998C239.489 229.95 238.769 229.662 234.017 234.126C231.857 236.142 228.4 238.159 226.384 238.735C224.368 239.167 221.344 240.463 219.76 241.471C218.175 242.479 214.287 243.919 211.119 244.783C207.95 245.647 203.63 247.951 201.47 249.968C199.31 251.984 197.005 253.568 196.429 253.568C195.709 253.568 193.117 251.552 190.525 249.248C186.06 245.215 184.908 244.927 174.971 244.927C164.746 244.927 161.002 246.655 166.906 248.816C168.202 249.392 171.947 251.696 175.115 254.144C185.34 262.065 189.373 263.649 199.31 263.649C210.831 263.649 214.863 262.209 221.632 255.728C224.512 252.992 227.968 250.4 229.264 249.968C230.561 249.536 232.433 247.231 233.441 244.927C234.449 242.479 235.745 240.607 236.321 240.607ZM199.31 241.759C200.03 236.574 199.886 236.286 194.845 234.846C186.204 232.542 184.476 232.974 184.476 237.294C184.62 240.463 186.06 242.191 190.669 245.215C193.981 247.375 197.149 248.672 197.581 248.095C198.157 247.519 198.877 244.639 199.31 241.759ZM161.146 237.87C163.306 239.743 163.45 239.599 161.578 237.294C160.57 235.998 159.418 234.846 159.13 234.846C157.977 234.846 158.698 235.998 161.146 237.87ZM207.662 242.047C208.958 242.047 212.271 241.039 214.863 239.887L219.76 237.87L211.695 237.726C205.502 237.726 203.342 238.303 202.622 240.031C201.182 243.919 201.614 245.647 203.486 243.775C204.494 242.767 206.366 242.047 207.662 242.047Z" fill="black"/>
<path d="M267.971 279.756C265.235 283.932 262.21 288.829 261.346 290.557C259.762 293.581 252.706 301.502 243.921 310.575C242.048 312.447 240.608 314.319 240.608 314.751C240.608 315.183 238.304 317.919 235.568 320.8C232.832 323.68 230.527 326.56 230.527 327.28C230.527 328.72 234.848 328.864 234.848 327.28C234.848 326.272 238.448 321.952 249.825 308.99C263.075 294.157 265.091 291.709 265.091 290.701C265.091 290.125 267.395 286.092 270.131 281.772C275.46 273.419 275.892 272.267 273.876 272.267C273.3 272.267 270.563 275.723 267.971 279.756Z" fill="black"/>
<path d="M180.033 293.741C178.017 294.317 174.273 295.325 171.824 295.901C167.072 297.197 163.04 300.509 164.624 301.95C165.056 302.526 168.512 301.373 172.256 299.645C177.153 297.197 182.481 296.189 192.418 295.613C207.684 294.893 215.317 297.053 222.085 304.11C224.39 306.414 226.838 308.286 227.558 308.286C232.742 308.286 221.365 297.629 213.012 294.749C206.532 292.445 186.802 291.869 180.033 293.741Z" fill="black"/>
</g>
<defs>
<filter id="filter0_d_4333_5628" x="14.0086" y="18.002" width="368.247" height="346.649" filterUnits="userSpaceOnUse" color-interpolation-filters="sRGB">
<feFlood flood-opacity="0" result="BackgroundImageFix"/>
<feColorMatrix in="SourceAlpha" type="matrix" values="0 0 0 0 0 0 0 0 0 0 0 0 0 0 0 0 0 0 127 0" result="hardAlpha"/>
<feOffset dy="3.79905"/>
<feGaussianBlur stdDeviation="1.70957"/>
<feComposite in2="hardAlpha" operator="out"/>
<feColorMatrix type="matrix" values="0 0 0 0 0 0 0 0 0 0 0 0 0 0 0 0 0 0 0.25 0"/>
<feBlend mode="normal" in2="BackgroundImageFix" result="effect1_dropShadow_4333_5628"/>
<feBlend mode="normal" in="SourceGraphic" in2="effect1_dropShadow_4333_5628" result="shape"/>
</filter>
</defs>
</svg>