<svg xmlns="http://www.w3.org/2000/svg" width="1638" height="321" viewBox="0 0 1638 321" fill="none">
<path d="M1637.8 145.248C1637.8 154.872 1635.35 162.05 1630.46 166.783C1625.73 171.358 1620.44 173.645 1614.61 173.645H1558.52C1558.52 178.063 1561.13 181.77 1566.33 184.767C1571.54 187.765 1576.74 189.264 1581.95 189.264C1591.1 189.264 1598.28 188.317 1603.49 186.424L1606.09 185.477C1609.87 183.742 1613.03 182.874 1615.55 182.874C1620.6 182.874 1624.94 186.424 1628.57 193.523C1630.62 197.783 1631.65 201.411 1631.65 204.409C1631.65 218.45 1614.84 225.47 1581.24 225.47C1569.57 225.47 1559.15 223.498 1550 219.554C1541.01 215.452 1533.99 210.088 1528.94 203.462C1519 190.684 1514.03 176.406 1514.03 160.63C1514.03 140.752 1520.42 124.897 1533.2 113.065C1546.14 101.075 1562.23 95.0801 1581.48 95.0801C1603.41 95.0801 1619.5 102.81 1629.75 118.271C1635.12 126.475 1637.8 135.467 1637.8 145.248ZM1587.87 152.111C1593.86 152.111 1596.86 149.587 1596.86 144.538C1596.86 140.91 1595.44 137.991 1592.6 135.783C1589.92 133.574 1585.97 132.47 1580.77 132.47C1575.72 132.47 1570.67 134.599 1565.62 138.859C1560.57 142.961 1558.05 147.378 1558.05 152.111H1587.87Z" fill="black"/>
<path d="M1420.12 160.16C1420.12 166.786 1422.33 171.992 1426.74 175.778C1431.16 179.407 1435.82 181.221 1440.71 181.221C1445.75 181.221 1450.41 179.801 1454.67 176.962C1459.09 173.964 1462.63 172.465 1465.32 172.465C1470.05 172.465 1475.81 176.646 1482.59 185.007C1486.22 189.582 1488.03 193.684 1488.03 197.313C1488.03 203.308 1483.7 208.908 1475.02 214.114C1466.03 220.425 1454.98 223.58 1441.89 223.58C1427.22 223.58 1413.1 218.295 1399.53 207.725C1393.06 202.677 1387.78 195.972 1383.68 187.61C1379.57 179.091 1377.52 169.783 1377.52 159.687C1377.52 149.432 1379.57 140.203 1383.68 132C1387.78 123.638 1393.06 116.933 1399.53 111.885C1412.62 101.473 1426.59 96.2666 1441.42 96.2666C1447.41 96.2666 1453.25 97.1343 1458.93 98.8697C1464.61 100.447 1468.79 102.025 1471.47 103.603L1475.26 105.969C1478.1 107.862 1480.3 109.361 1481.88 110.465C1485.98 113.62 1488.03 117.249 1488.03 121.351C1488.03 125.295 1486.38 129.791 1483.06 134.839C1477.39 143.516 1471.94 147.855 1466.74 147.855C1463.74 147.855 1459.48 146.119 1453.96 142.648C1451.12 139.967 1447.02 138.626 1441.65 138.626C1436.45 138.626 1431.56 140.519 1426.98 144.305C1422.41 148.091 1420.12 153.376 1420.12 160.16Z" fill="black"/>
<path d="M1135.5 59.8245C1135.5 56.196 1135.58 53.5141 1135.74 51.7787C1136.05 49.8855 1136.76 47.7558 1137.87 45.3893C1140.07 41.1298 1146.23 39 1156.32 39C1165.95 39 1171.94 41.1298 1174.31 45.3893C1175.57 47.7558 1176.28 49.8855 1176.44 51.7787C1176.75 53.6718 1176.91 56.4326 1176.91 60.0612V169.626C1176.91 175.306 1177.38 178.934 1178.33 180.512C1179.28 181.932 1181.33 182.642 1184.48 182.642C1187.8 182.642 1190.01 182.8 1191.11 183.115C1192.21 183.273 1193.56 183.904 1195.13 185.008C1198.29 187.059 1199.87 192.66 1199.87 201.81C1199.87 211.749 1198.29 217.823 1195.13 220.031C1191.03 222.871 1181.25 223.344 1165.79 221.451C1153.64 219.873 1145.75 215.851 1142.12 209.382C1137.71 201.652 1135.5 189.347 1135.5 172.466V59.8245Z" fill="black"/>
<path d="M741.581 160.16C741.581 166.786 743.79 171.992 748.207 175.778C752.625 179.407 757.279 181.221 762.169 181.221C767.218 181.221 771.872 179.801 776.131 176.962C780.548 173.964 784.098 172.465 786.78 172.465C791.513 172.465 797.271 176.646 804.055 185.007C807.683 189.582 809.498 193.684 809.498 197.313C809.498 203.308 805.159 208.908 796.482 214.114C787.49 220.425 776.447 223.58 763.352 223.58C748.681 223.58 734.561 218.295 720.994 207.725C714.525 202.677 709.24 195.972 705.139 187.61C701.037 179.091 698.986 169.783 698.986 159.687C698.986 149.432 701.037 140.203 705.139 132C709.24 123.638 714.525 116.933 720.994 111.885C734.088 101.473 748.05 96.2666 762.879 96.2666C768.874 96.2666 774.711 97.1343 780.391 98.8697C786.07 100.447 790.251 102.025 792.933 103.603L796.719 105.969C799.559 107.862 801.767 109.361 803.345 110.465C807.447 113.62 809.498 117.249 809.498 121.351C809.498 125.295 807.841 129.791 804.528 134.839C798.849 143.516 793.406 147.855 788.2 147.855C785.202 147.855 780.943 146.119 775.421 142.648C772.582 139.967 768.48 138.626 763.116 138.626C757.91 138.626 753.019 140.519 748.444 144.305C743.869 148.091 741.581 153.376 741.581 160.16Z" fill="black"/>
<path d="M500.741 181.93C506.894 181.93 511.311 182.719 513.993 184.296C516.833 185.716 518.726 187.846 519.672 190.685C520.777 193.525 521.329 197.154 521.329 201.571C521.329 205.988 520.934 209.538 520.146 212.22C519.357 214.902 518.41 216.953 517.306 218.373C516.202 219.792 514.545 220.818 512.336 221.449C509.812 222.396 505.789 222.869 500.268 222.869H401.825C398.196 222.869 394.725 221.922 391.412 220.029C384.471 216.085 381 209.853 381 201.334C381 197.233 381.947 193.92 383.84 191.395L457.199 89.8759H402.771C398.985 89.8759 396.145 89.797 394.252 89.6393C392.517 89.3238 390.387 88.6138 387.863 87.5095C383.288 85.3008 381 79.3848 381 69.7613C381 59.6646 383.13 53.5119 387.389 51.3033C389.756 50.0412 391.807 49.3312 393.542 49.1735C395.435 48.858 398.275 48.7002 402.061 48.7002H497.191C500.82 48.7002 504.291 49.6468 507.604 51.5399C510.917 53.433 513.441 55.9572 515.176 59.1124C517.069 62.2677 518.016 65.9751 518.016 70.2346C518.016 74.4942 517.069 77.8861 515.176 80.4102L441.817 181.93H500.741Z" fill="black"/>
<path d="M631.81 110.938C632.757 102.104 638.988 97.6865 650.505 97.6865C656.658 97.6865 661.233 98.1598 664.23 99.1064C667.228 100.053 669.278 101.709 670.383 104.076C671.645 106.442 672.355 108.572 672.513 110.465C672.828 112.201 672.986 114.883 672.986 118.511V201.336C672.986 204.964 672.828 207.725 672.513 209.618C672.355 211.354 671.724 213.405 670.619 215.771C668.411 219.873 662.968 221.924 654.291 221.924C645.772 221.924 640.014 220.898 637.016 218.847C634.177 216.639 632.52 213.483 632.047 209.382C626.21 217.743 616.428 221.924 602.703 221.924C589.136 221.924 576.515 215.692 564.84 203.229C553.166 190.766 547.329 176.331 547.329 159.923C547.329 143.358 553.166 128.923 564.84 116.618C576.672 104.155 589.609 97.9232 603.65 97.9232C609.014 97.9232 613.904 98.8697 618.322 100.763C622.739 102.656 625.815 104.47 627.551 106.206C629.286 107.783 630.706 109.361 631.81 110.938ZM588.741 160.16C588.741 165.366 590.792 170.099 594.894 174.359C598.996 178.46 603.965 180.511 609.802 180.511C615.64 180.511 620.451 178.381 624.238 174.122C628.182 169.862 630.154 165.208 630.154 160.16C630.154 154.954 628.26 150.142 624.474 145.725C620.846 141.308 615.876 139.099 609.566 139.099C603.413 139.099 598.365 141.308 594.421 145.725C590.634 150.142 588.741 154.954 588.741 160.16Z" fill="black"/>
<path d="M919.979 111.116C920.926 102.282 927.157 97.8643 938.674 97.8643C944.826 97.8643 949.402 98.3375 952.399 99.2841C955.396 100.231 957.447 101.887 958.552 104.254C959.814 106.62 960.524 108.75 960.681 110.643C960.997 112.378 961.155 115.06 961.155 118.689V201.514C961.155 205.142 960.997 207.903 960.681 209.796C960.524 211.531 959.893 213.582 958.788 215.949C956.58 220.05 951.137 222.101 942.46 222.101C933.941 222.101 928.183 221.076 925.185 219.025C922.345 216.816 920.689 213.661 920.216 209.559C914.379 217.921 904.597 222.101 890.872 222.101C877.305 222.101 864.684 215.87 853.009 203.407C841.335 190.943 835.498 176.508 835.498 160.101C835.498 143.536 841.335 129.101 853.009 116.796C864.841 104.332 877.778 98.1009 891.819 98.1009C897.183 98.1009 902.073 99.0475 906.49 100.941C910.908 102.834 913.984 104.648 915.719 106.383C917.455 107.961 918.875 109.539 919.979 111.116ZM876.91 160.338C876.91 165.544 878.961 170.277 883.063 174.536C887.165 178.638 892.134 180.689 897.971 180.689C903.809 180.689 908.62 178.559 912.406 174.3C916.351 170.04 918.323 165.386 918.323 160.338C918.323 155.132 916.429 150.32 912.643 145.903C909.015 141.485 904.045 139.277 897.735 139.277C891.582 139.277 886.534 141.485 882.59 145.903C878.803 150.32 876.91 155.132 876.91 160.338Z" fill="black"/>
<path d="M987.155 256.237V118.038C987.155 114.409 987.234 111.727 987.391 109.992C987.707 108.257 988.417 106.285 989.521 104.076C991.73 99.8163 997.015 97.6865 1005.38 97.6865C1013.74 97.6865 1019.34 98.7908 1022.18 101C1025.18 103.05 1026.91 106.127 1027.38 110.229C1033.38 102.025 1042.77 97.9232 1055.54 97.9232C1068.48 97.9232 1080.71 103.997 1092.22 116.145C1103.74 128.292 1109.5 142.412 1109.5 158.504C1109.5 174.595 1103.74 188.715 1092.22 200.862C1080.87 213.01 1068.72 219.084 1055.78 219.084C1042.84 219.084 1033.46 215.455 1027.62 208.198V256C1027.62 259.629 1027.46 262.311 1027.15 264.046C1026.99 265.781 1026.28 267.753 1025.02 269.962C1023.91 272.328 1021.94 273.985 1019.1 274.931C1016.26 275.878 1012.4 276.351 1007.51 276.351C1002.62 276.351 998.671 275.878 995.674 274.931C992.834 273.985 990.783 272.407 989.521 270.199C988.417 267.99 987.707 266.018 987.391 264.283C987.234 262.547 987.155 259.865 987.155 256.237ZM1034.01 144.778C1030.38 149.038 1028.57 153.692 1028.57 158.74C1028.57 163.789 1030.38 168.443 1034.01 172.702C1037.8 176.804 1042.53 178.855 1048.21 178.855C1054.05 178.855 1058.94 176.804 1062.88 172.702C1066.98 168.6 1069.03 163.946 1069.03 158.74C1069.03 153.534 1067.14 148.88 1063.35 144.778C1059.57 140.519 1054.6 138.389 1048.45 138.389C1042.45 138.389 1037.64 140.519 1034.01 144.778Z" fill="black"/>
<path d="M1310.35 110.938C1311.29 102.104 1317.52 97.6865 1329.04 97.6865C1335.19 97.6865 1339.77 98.1598 1342.77 99.1064C1345.76 100.053 1347.82 101.709 1348.92 104.076C1350.18 106.442 1350.89 108.572 1351.05 110.465C1351.36 112.201 1351.52 114.883 1351.52 118.511V201.336C1351.52 204.964 1351.36 207.725 1351.05 209.618C1350.89 211.354 1350.26 213.405 1349.16 215.771C1346.95 219.873 1341.5 221.924 1332.83 221.924C1324.31 221.924 1318.55 220.898 1315.55 218.847C1312.71 216.639 1311.06 213.483 1310.58 209.382C1304.75 217.743 1294.97 221.924 1281.24 221.924C1267.67 221.924 1255.05 215.692 1243.38 203.229C1231.7 190.766 1225.87 176.331 1225.87 159.923C1225.87 143.358 1231.7 128.923 1243.38 116.618C1255.21 104.155 1268.15 97.9232 1282.19 97.9232C1287.55 97.9232 1292.44 98.8697 1296.86 100.763C1301.28 102.656 1304.35 104.47 1306.09 106.206C1307.82 107.783 1309.24 109.361 1310.35 110.938ZM1267.28 160.16C1267.28 165.366 1269.33 170.099 1273.43 174.359C1277.53 178.46 1282.5 180.511 1288.34 180.511C1294.18 180.511 1298.99 178.381 1302.77 174.122C1306.72 169.862 1308.69 165.208 1308.69 160.16C1308.69 154.954 1306.8 150.142 1303.01 145.725C1299.38 141.308 1294.41 139.099 1288.1 139.099C1281.95 139.099 1276.9 141.308 1272.96 145.725C1269.17 150.142 1267.28 154.954 1267.28 160.16Z" fill="black"/>
<g filter="url(#filter0_d_4302_3344)">
<path fill-rule="evenodd" clip-rule="evenodd" d="M113.75 25.6238C113.75 25.0062 114.739 24.1415 115.974 23.8944C117.456 23.5238 117.58 23.2768 116.221 23.1533C113.38 23.0298 97.6921 34.7646 97.6921 37.1116C97.6921 37.6057 100.533 35.5058 103.992 32.4177C107.451 29.3296 111.033 26.7355 112.021 26.7355C113.009 26.7355 113.75 26.2414 113.75 25.6238ZM245.923 31.553C245.923 32.7882 249.505 35.9999 250.122 35.2588C250.246 35.0117 249.381 33.7765 248.146 32.5412C246.911 31.4295 245.923 30.9354 245.923 31.553ZM255.434 41.6821C256.299 42.5467 257.287 42.9173 257.657 42.5467C258.028 42.1761 257.41 41.435 256.175 41.0645C254.446 40.3233 254.322 40.4468 255.434 41.6821ZM266.675 52.7993C268.528 54.4052 268.651 54.2816 267.045 52.3052C265.439 50.3288 264.451 49.7112 264.451 50.6994C264.451 50.9465 265.439 51.9347 266.675 52.7993ZM273.345 62.5578C274.086 62.5578 273.963 61.8167 273.098 60.705C272.233 59.7168 271.369 58.8521 271.122 58.8521C270.875 58.8521 270.998 59.7168 271.369 60.705C271.863 61.6932 272.727 62.5578 273.345 62.5578ZM282.239 75.528L279.892 71.8223C276.186 65.646 274.333 63.1755 274.333 64.1637C274.333 65.893 277.051 70.3399 279.645 72.934L282.239 75.528ZM285.574 81.2102C287.551 83.5572 287.798 83.6807 286.809 81.7043C284.709 77.5044 282.98 75.4045 282.98 76.8868C282.98 77.7515 284.092 79.6044 285.574 81.2102ZM47.4173 94.0568C49.1467 92.9451 50.876 91.2157 51.2466 90.104C52.4819 87.0158 51.3701 87.0158 48.6526 90.104C44.4527 94.7979 43.9586 96.4038 47.4173 94.0568ZM292.492 92.698C295.086 96.1567 296.074 96.0332 294.097 92.3275C293.356 90.8452 292.244 89.7334 291.503 89.7334C290.886 89.7334 291.256 91.0922 292.492 92.698ZM299.162 102.827C300.15 103.321 300.15 102.951 299.162 101.098C298.421 99.6154 297.185 98.1331 296.444 97.639C295.456 97.1449 295.456 97.5155 296.444 99.3684C297.185 100.851 298.421 102.333 299.162 102.827ZM311.391 117.65C311.391 117.28 310.279 115.674 309.044 114.191C301.879 105.668 300.521 104.433 304.597 110.362C308.92 116.538 311.391 119.132 311.391 117.65ZM313.367 121.85C313.614 121.85 313.861 121.232 313.861 120.615C313.861 119.874 313.244 119.379 312.503 119.379C311.885 119.379 311.638 119.874 312.008 120.615C312.379 121.232 312.997 121.85 313.367 121.85ZM26.171 123.456C24.5651 126.05 24.6887 126.05 26.7886 124.073C28.0239 122.838 28.765 121.603 28.3944 121.356C28.0239 120.985 27.0357 121.973 26.171 123.456ZM313.985 124.32C313.861 126.544 315.961 130.003 316.826 129.261C317.073 128.891 316.579 127.285 315.714 125.556C314.726 123.703 313.985 123.209 313.985 124.32ZM319.173 137.908C319.173 140.996 319.42 142.232 319.667 140.626C319.914 139.143 319.914 136.673 319.667 135.067C319.42 133.585 319.173 134.82 319.173 137.908ZM295.333 166.937C296.074 166.566 296.568 162.86 296.568 158.908C296.568 154.955 296.074 151.249 295.333 150.878C294.591 150.384 294.097 153.349 294.097 158.908C294.097 164.466 294.591 167.431 295.333 166.937ZM320.161 160.76L321.396 157.672C322.014 156.066 322.385 153.596 322.261 152.114C321.891 149.767 321.767 149.767 320.902 151.867C320.408 153.102 320.038 155.696 320.161 157.425V160.76ZM313.738 155.202C314.479 155.202 315.097 154.584 315.097 153.967C315.097 153.225 314.85 152.731 314.603 152.731C314.232 152.731 313.614 153.225 313.244 153.967C312.873 154.584 313.12 155.202 313.738 155.202ZM311.391 170.272C309.662 175.213 312.132 174.595 314.479 169.531C316.95 164.343 316.702 159.155 314.232 163.972C313.367 165.578 312.132 168.419 311.391 170.272ZM24.9357 168.913L22.9593 165.825C20.8594 162.613 18.6359 161.625 18.6359 163.725C18.6359 164.343 20.1182 165.701 21.8476 166.937L24.9357 168.913ZM295.333 177.436C295.95 176.448 296.568 174.595 296.568 173.36C296.568 172.248 296.074 171.26 295.333 171.26C294.715 171.26 294.097 173.113 294.097 175.213C294.097 178.301 294.468 178.795 295.333 177.436ZM33.706 174.472C34.9413 175.707 36.1765 176.325 36.6706 175.954C37.0412 175.46 36.053 174.472 34.4472 173.731C33.0747 172.982 32.3954 172.611 32.3137 172.714C32.2337 172.815 32.7278 173.371 33.706 174.472ZM41.6116 176.201C41.8587 176.201 42.1057 175.583 42.1057 174.966C42.1057 174.225 41.4881 173.731 40.747 173.731C40.1293 173.731 39.8823 174.225 40.2529 174.966C40.6234 175.583 41.2411 176.201 41.6116 176.201ZM312.132 177.066C311.391 178.795 311.514 178.919 312.75 177.807C313.614 176.942 313.985 175.954 313.614 175.583C313.244 175.213 312.503 175.83 312.132 177.066ZM294.221 193.001C294.221 194.359 294.591 194.73 294.962 193.742C295.333 192.877 295.209 191.765 294.838 191.395C294.468 190.901 294.097 191.642 294.221 193.001ZM59.3993 201.524C61.1286 202.635 60.8816 200.659 58.9052 198.065C58.0405 196.953 56.9288 195.965 56.4347 195.965C55.3229 195.965 57.7934 200.536 59.3993 201.524Z" fill="black"/>
<path fill-rule="evenodd" clip-rule="evenodd" d="M132.65 15.6183C127.832 16.1124 122.274 17.3476 120.297 18.3358C118.444 19.324 114.368 21.4239 111.28 22.9062C105.598 25.6238 92.7511 37.2352 85.8337 46.0055C78.6692 54.8993 74.8399 59.4697 74.2223 60.0873C73.7282 60.4579 71.7518 63.1755 69.6519 66.2636C67.552 69.3517 64.5873 72.5634 62.9815 73.4281C61.3757 74.2927 59.1522 76.5162 58.0405 78.4926C56.9288 80.3455 53.5936 83.5571 50.629 85.5335C47.6644 87.5099 44.3292 90.9686 43.341 93.0686C42.3528 95.1685 40.0058 98.7507 38.1529 100.974C36.1765 103.198 34.6942 105.915 34.6942 107.027C34.6942 108.015 33.2119 110.609 31.359 112.709C25.1828 119.503 19.8712 127.779 19.13 131.608C18.6359 133.708 17.5242 136.055 16.6595 136.797C15.4243 137.785 14.9302 141.614 14.9302 151.125C14.9302 164.096 14.9302 164.096 18.883 167.801C23.5769 172.125 35.0648 179.907 36.9177 179.907C37.6588 179.907 38.5235 179.166 38.8941 178.301C39.2647 177.313 40.3764 177.93 42.1057 180.154C43.588 182.13 45.688 183.613 46.6762 183.613C49.3937 183.613 51.8642 187.318 51.9878 191.518C51.9878 196.336 56.8053 204.612 59.6463 204.612C61.2522 204.612 61.8698 205.6 61.8698 207.7C61.8698 209.429 62.858 212.641 64.0932 214.864C66.4402 219.188 70.7636 225.858 71.7518 226.846C72.1224 227.217 74.4694 230.552 76.9399 234.258C79.5339 237.964 83.1161 242.534 85.0925 244.387C89.1652 248.213 92.1285 252.039 92.2741 252.193L94.604 254.64C95.9628 255.998 100.039 261.063 103.498 265.757C113.009 278.48 117.703 283.05 128.944 290.462C134.503 294.044 140.185 298.121 141.544 299.356C148.585 305.779 165.384 308.126 175.142 304.05C177.489 303.062 180.701 302.197 182.06 302.197C183.419 302.197 186.383 300.838 188.607 299.109C190.83 297.379 193.424 296.021 194.536 296.021C195.524 296.021 196.759 295.403 197.13 294.785C197.501 294.044 198.736 293.55 199.6 293.55C200.589 293.55 203.306 291.574 205.653 289.227C208.124 286.88 210.471 284.903 210.965 284.903C211.582 284.903 214.176 282.927 216.894 280.58C219.612 278.233 222.206 276.257 222.823 276.257C223.317 276.257 224.923 275.145 226.529 273.786C231.47 269.092 232.952 268.104 237.646 265.263C240.117 263.78 242.31 261.423 242.31 261.423C242.726 261.089 242.956 261.1 244.193 259.704C245.864 258.838 248.772 254.96 248.772 254.96C249.637 253.354 250.711 253.034 250.711 253.034L253.619 251.082C254.266 250.113 255.063 248.34 263.216 240.187C269.022 234.505 276.063 228.082 278.78 225.858C281.621 223.758 284.833 220.176 285.945 217.953C287.056 215.729 288.539 213.012 289.156 212.023C289.774 211.035 292.244 205.724 294.715 200.288C297.803 193.742 301.138 188.677 304.844 185.218C307.932 182.254 310.526 179.907 310.773 179.907C311.02 179.907 310.526 181.513 309.785 183.613C309.044 185.589 308.797 187.565 309.291 188.06C310.526 189.418 313.491 186.454 315.097 182.007C318.555 172.866 322.755 163.478 323.867 162.613C324.361 162.243 324.732 156.313 324.855 149.52C325.102 138.773 324.732 136.179 322.385 131.855C321.026 129.014 319.297 126.42 318.679 126.05C318.061 125.679 317.567 124.32 317.567 123.085C317.567 121.85 316.702 119.997 315.714 118.885C314.726 117.897 313.861 116.538 313.861 115.921C313.861 115.18 312.997 114.438 312.008 113.944C311.02 113.574 310.156 112.462 310.156 111.35C310.156 109.25 302.003 97.639 298.668 94.7979C297.432 93.9333 296.568 92.5745 296.568 91.9568C296.568 91.3392 294.591 88.2511 292.244 85.163C289.897 82.0748 287.921 78.7397 287.921 77.875C287.921 77.0103 287.427 76.1456 286.809 75.8986C286.192 75.6515 282.362 70.2164 278.039 63.7931C267.91 48.2289 249.999 27.9708 246.293 27.9708C245.058 27.9708 240.858 26.1179 234.805 22.9062C228.505 19.4475 224.923 18.2123 219.982 17.5946C206.271 15.8653 192.56 15.4947 182.183 16.6064C174.278 17.5946 169.584 17.4711 166.125 16.6064C159.825 14.8771 143.891 14.383 132.65 15.6183ZM113.75 25.6238C113.75 25.0062 114.739 24.1415 115.974 23.8944C117.456 23.5238 117.58 23.2768 116.221 23.1533C113.38 23.0298 97.6921 34.7646 97.6921 37.1116C97.6921 37.6057 100.533 35.5058 103.992 32.4177C107.451 29.3296 111.033 26.7355 112.021 26.7355C113.009 26.7355 113.75 26.2414 113.75 25.6238ZM245.923 31.553C245.923 32.7882 249.505 35.9999 250.122 35.2588C250.246 35.0117 249.381 33.7765 248.146 32.5412C246.911 31.4295 245.923 30.9354 245.923 31.553ZM255.434 41.6821C256.299 42.5467 257.287 42.9173 257.657 42.5467C258.028 42.1761 257.41 41.435 256.175 41.0645C254.446 40.3233 254.322 40.4468 255.434 41.6821ZM204.294 72.8104C201.083 69.9693 193.918 63.9166 188.483 59.4697C183.048 55.0228 177.119 49.9583 175.39 48.1054L172.054 44.8937L169.46 50.8229C167.978 54.0346 166.866 57.4933 166.866 58.358C166.866 61.4461 150.684 76.3926 140.432 82.6924C138.455 83.9277 136.108 85.7806 135.12 86.7688C134.132 87.757 132.773 88.4982 132.156 88.4982C129.562 88.4982 131.415 90.5981 136.603 93.3156C139.691 94.9214 143.396 97.2684 144.879 98.5037C146.238 99.8625 148.214 100.851 149.202 100.851C150.067 100.851 150.808 101.468 150.808 102.086C150.808 104.433 147.102 104.803 144.014 102.827C142.408 101.715 140.061 100.851 138.826 100.851C135.985 100.851 128.45 95.5391 129.068 93.9332C129.315 93.1921 129.191 91.9569 128.697 91.2157C127.709 89.6099 109.303 102.827 98.3097 112.833C97.4451 113.697 96.0863 114.438 95.3451 114.438C94.604 114.438 93.9864 114.933 93.9864 115.674C93.9864 116.291 93.3687 116.909 92.7511 116.909C91.2688 116.909 90.5277 117.527 84.722 122.591C82.7456 124.32 79.5339 126.544 77.681 127.532C75.7046 128.52 74.2223 129.879 74.2223 130.497C74.2223 131.238 73.4812 131.732 72.74 131.732C71.2577 131.732 69.5284 133.461 61.0051 143.467C58.0405 146.926 57.917 147.667 58.6581 157.055C59.0287 162.49 59.6463 172.989 60.1404 180.524C60.511 187.936 61.6227 196.212 62.6109 198.806C63.5991 201.277 64.3403 204.982 64.3403 206.835C64.4638 208.688 65.8226 212.394 67.4284 215.112C69.1578 217.829 71.1342 221.288 71.9989 222.77C72.74 224.376 73.8517 225.611 74.3458 225.611C74.8399 225.611 77.0634 228.576 79.1633 232.034C81.3868 235.617 85.7102 241.175 88.7983 244.263C94.604 249.822 96.3333 251.922 104.733 263.039C107.204 266.251 109.674 268.845 110.168 268.845C110.786 268.845 111.28 269.71 111.28 270.698C111.28 274.157 121.409 282.433 146.361 299.479C150.067 302.073 153.031 302.814 159.578 303.185C168.966 303.803 175.884 301.95 189.842 295.279C194.659 292.932 198.983 291.08 199.353 291.08C199.848 291.08 202.071 289.103 204.418 286.756C206.888 284.409 209.235 282.433 209.73 282.433C210.347 282.433 212.941 280.456 215.659 278.109C218.376 275.762 220.97 273.786 221.464 273.786C222.329 273.786 223.564 272.921 230.111 267.239C231.594 266.127 233.076 265.139 233.446 265.139C235.052 265.139 245.923 254.64 245.923 253.034C245.923 252.293 246.417 251.551 247.158 251.551C247.775 251.551 250.493 249.205 253.334 246.363C259.016 240.311 258.522 240.805 267.786 231.54C271.616 227.588 275.322 224.376 275.816 224.376C279.151 224.376 287.674 211.406 285.08 210.418C284.092 210.047 284.339 209.059 285.945 207.206C287.427 205.6 287.798 204.612 286.686 204.612C285.698 204.612 285.451 203.871 286.068 202.388C291.38 189.789 291.627 188.183 291.627 166.69C291.627 149.52 291.256 145.196 289.774 143.59C288.786 142.602 288.168 140.996 288.539 140.132C289.898 136.673 277.298 123.579 266.304 116.909C263.587 115.18 259.881 112.586 258.028 110.98C254.075 107.521 248.764 104.556 246.417 104.556C245.428 104.556 244.687 104.062 244.687 103.321C244.687 102.704 242.34 100.974 239.499 99.4919C236.535 98.0096 232.829 95.4156 231.099 93.8097C228.629 91.3392 227.27 90.8451 223.811 91.4628C221.464 91.8333 219.241 92.5745 218.87 93.0686C217.882 94.4273 214.3 96.5273 207.877 99.7389C205.036 101.221 202.318 102.827 201.947 103.445C201.083 104.927 196.512 104.803 196.512 103.321C196.512 102.704 198.859 100.604 201.824 98.8743C204.665 97.0214 207.259 95.1685 207.63 94.6744C208 94.3038 210.841 92.5745 214.176 91.0922C220.847 87.8805 221.712 84.9159 216.647 82.1983C214.671 81.2101 212.571 79.8514 211.706 79.2338C210.965 78.4926 207.63 75.6515 204.294 72.8104ZM266.675 52.7993C268.528 54.4052 268.651 54.2816 267.045 52.3052C265.439 50.3288 264.451 49.7112 264.451 50.6994C264.451 50.9465 265.439 51.9347 266.675 52.7993ZM273.345 62.5578C274.086 62.5578 273.963 61.8167 273.098 60.705C272.233 59.7168 271.369 58.8521 271.122 58.8521C270.875 58.8521 270.998 59.7168 271.369 60.705C271.863 61.6932 272.727 62.5578 273.345 62.5578ZM282.239 75.528L279.892 71.8223C276.186 65.646 274.333 63.1755 274.333 64.1637C274.333 65.893 277.051 70.3399 279.645 72.934L282.239 75.528ZM285.574 81.2102C287.551 83.5572 287.798 83.6807 286.809 81.7043C284.709 77.5044 282.98 75.4045 282.98 76.8868C282.98 77.7515 284.092 79.6044 285.574 81.2102ZM47.4173 94.0568C49.1467 92.9451 50.876 91.2157 51.2466 90.104C52.4819 87.0158 51.3701 87.0158 48.6526 90.104C44.4527 94.7979 43.9586 96.4038 47.4173 94.0568ZM292.492 92.698C295.086 96.1567 296.074 96.0332 294.097 92.3275C293.356 90.8452 292.244 89.7334 291.503 89.7334C290.886 89.7334 291.256 91.0922 292.492 92.698ZM299.162 102.827C300.15 103.321 300.15 102.951 299.162 101.098C298.421 99.6154 297.185 98.1331 296.444 97.639C295.456 97.1449 295.456 97.5155 296.444 99.3684C297.185 100.851 298.421 102.333 299.162 102.827ZM311.391 117.65C311.391 117.28 310.279 115.674 309.044 114.191C301.879 105.668 300.521 104.433 304.597 110.362C308.92 116.538 311.391 119.132 311.391 117.65ZM313.367 121.85C313.614 121.85 313.861 121.232 313.861 120.615C313.861 119.874 313.244 119.379 312.503 119.379C311.885 119.379 311.638 119.874 312.008 120.615C312.379 121.232 312.997 121.85 313.367 121.85ZM26.171 123.456C24.5651 126.05 24.6887 126.05 26.7886 124.073C28.0239 122.838 28.765 121.603 28.3944 121.356C28.0239 120.985 27.0357 121.973 26.171 123.456ZM313.985 124.32C313.861 126.544 315.961 130.003 316.826 129.261C317.073 128.891 316.579 127.285 315.714 125.556C314.726 123.703 313.985 123.209 313.985 124.32ZM319.173 137.908C319.173 140.996 319.42 142.232 319.667 140.626C319.914 139.143 319.914 136.673 319.667 135.067C319.42 133.585 319.173 134.82 319.173 137.908ZM295.333 166.937C296.074 166.566 296.568 162.86 296.568 158.908C296.568 154.955 296.074 151.249 295.333 150.878C294.591 150.384 294.097 153.349 294.097 158.908C294.097 164.466 294.591 167.431 295.333 166.937ZM320.161 160.76L321.396 157.672C322.014 156.066 322.385 153.596 322.261 152.114C321.891 149.767 321.767 149.767 320.902 151.867C320.408 153.102 320.038 155.696 320.161 157.425V160.76ZM313.738 155.202C314.479 155.202 315.097 154.584 315.097 153.967C315.097 153.225 314.85 152.731 314.603 152.731C314.232 152.731 313.614 153.225 313.244 153.967C312.873 154.584 313.12 155.202 313.738 155.202ZM311.391 170.272C309.662 175.213 312.132 174.595 314.479 169.531C316.95 164.343 316.702 159.155 314.232 163.972C313.367 165.578 312.132 168.419 311.391 170.272ZM24.9357 168.913L22.9593 165.825C20.8594 162.613 18.6359 161.625 18.6359 163.725C18.6359 164.343 20.1182 165.701 21.8476 166.937L24.9357 168.913ZM295.333 177.436C295.95 176.448 296.568 174.595 296.568 173.36C296.568 172.248 296.074 171.26 295.333 171.26C294.715 171.26 294.097 173.113 294.097 175.213C294.097 178.301 294.468 178.795 295.333 177.436ZM33.706 174.472C34.9413 175.707 36.1765 176.325 36.6706 175.954C37.0412 175.46 36.053 174.472 34.4472 173.731C33.0747 172.982 32.3954 172.611 32.3137 172.714C32.2337 172.815 32.7278 173.371 33.706 174.472ZM41.6116 176.201C41.8587 176.201 42.1057 175.583 42.1057 174.966C42.1057 174.225 41.4881 173.731 40.747 173.731C40.1293 173.731 39.8823 174.225 40.2529 174.966C40.6234 175.583 41.2411 176.201 41.6116 176.201ZM312.132 177.066C311.391 178.795 311.514 178.919 312.75 177.807C313.614 176.942 313.985 175.954 313.614 175.583C313.244 175.213 312.503 175.83 312.132 177.066ZM294.221 193.001C294.221 194.359 294.591 194.73 294.962 193.742C295.333 192.877 295.209 191.765 294.838 191.395C294.468 190.901 294.097 191.642 294.221 193.001ZM59.3993 201.524C61.1286 202.635 60.8816 200.659 58.9052 198.065C58.0405 196.953 56.9288 195.965 56.4347 195.965C55.3229 195.965 57.7934 200.536 59.3993 201.524Z" fill="black"/>
<path d="M226.16 99.4907C226.16 100.108 224.307 101.22 222.207 102.085C217.266 104.061 210.102 109.249 210.102 110.855C210.102 111.473 210.966 111.967 211.955 111.967C212.943 111.967 213.808 111.473 213.808 110.855C213.808 109.743 221.343 105.296 229.001 101.838C233.201 99.9848 233.325 98.379 229.248 98.379C227.519 98.379 226.16 98.8731 226.16 99.4907Z" fill="black"/>
<path d="M123.634 103.321C123.634 103.939 125.239 104.556 127.216 104.556C129.192 104.556 131.663 105.421 132.774 106.409C133.763 107.397 134.874 108.262 135.368 108.262C135.739 108.262 137.715 109.497 139.692 110.98C141.668 112.462 143.768 113.203 144.262 112.709C144.88 112.215 143.892 110.732 142.162 109.497C140.433 108.262 137.715 106.039 136.11 104.68C133.021 101.962 123.634 100.974 123.634 103.321Z" fill="black"/>
<path d="M215.784 111.844C208.99 114.191 205.902 118.02 212.078 116.291C214.055 115.673 220.108 115.302 225.543 115.426C237.648 115.797 250.865 114.561 250.865 113.203C250.865 112.091 242.836 110.856 230.484 110.114C224.307 109.744 220.108 110.238 215.784 111.844Z" fill="black"/>
<path d="M113.629 112.708C109.8 114.684 106.959 117.896 107.947 118.884C108.317 119.255 111.776 118.514 115.605 117.031C123.017 114.19 130.552 113.572 131.293 115.796C131.911 117.649 152.045 118.884 152.045 117.031C152.045 116.29 149.945 115.672 147.104 115.672C144.387 115.672 139.322 114.561 135.74 113.202C128.329 110.361 118.447 110.114 113.629 112.708Z" fill="black"/>
<path d="M161.928 119.131C161.928 120.614 170.204 122.59 171.439 121.355C172.674 120.243 171.686 119.625 166.622 118.761C163.534 118.143 161.928 118.39 161.928 119.131Z" fill="black"/>
<path d="M180.209 119.502C179.344 120.12 177.368 120.614 175.885 120.614C174.279 120.614 173.044 121.108 173.044 121.849C173.044 122.467 174.279 123.084 175.885 123.084C178.356 123.208 178.356 123.332 176.503 124.443C174.279 125.679 173.415 129.261 175.268 129.261C175.762 129.261 177.738 127.902 179.591 126.296C181.567 124.567 185.891 122.59 189.226 121.726C192.561 120.861 195.279 119.749 195.279 119.255C195.279 118.02 182.309 118.267 180.209 119.502Z" fill="black"/>
<path d="M126.474 121.479C121.533 121.726 117.457 122.467 117.457 123.085C117.457 124.444 129.068 124.691 137.715 123.579C144.138 122.591 145.497 120.491 139.444 120.862C137.221 120.985 131.291 121.356 126.474 121.479Z" fill="black"/>
<path d="M156.985 122.837C156.985 123.949 164.273 126.79 167.238 126.79C170.697 126.79 169.585 124.937 165.262 123.331C160.568 121.602 156.985 121.355 156.985 122.837Z" fill="black"/>
<path d="M213.807 122.961C213.807 123.579 218.625 124.32 224.678 124.567C230.607 124.938 236.412 125.679 237.648 126.173C239.13 126.79 239.748 126.543 239.748 125.185C239.748 124.196 238.142 123.085 235.918 122.591C230.113 121.479 213.807 121.726 213.807 122.961Z" fill="black"/>
<path d="M140.556 140.996C138.703 142.725 136.356 144.084 135.491 144.084C133.762 144.084 121.162 157.177 121.162 159.03C121.162 159.648 120.05 160.76 118.692 161.624C116.221 163.23 115.233 166.318 117.333 166.318C117.95 166.318 119.803 164.589 121.409 162.613C130.426 150.754 136.603 145.443 146.238 141.243C148.091 140.502 149.573 139.39 149.573 138.896C149.573 136.796 143.767 138.155 140.556 140.996Z" fill="black"/>
<path d="M198.985 144.083C198.985 144.7 200.097 145.936 201.455 146.8C203.432 148.159 203.926 149.641 203.926 155.818C203.802 165.329 201.085 169.158 195.403 168.047C192.067 167.306 186.632 172.247 186.632 172.247C186.632 172.247 186.632 172.247 173.662 182.499C173.662 182.499 169.198 188.484 165.509 187.687C162.775 187.096 160.321 182.746 160.321 182.746C150.81 173.729 149.081 172.494 146.24 172.494C144.634 172.494 141.514 169.107 141.241 168.834C139.882 168.34 139.693 165.7 139.693 161.006C139.693 155.077 140.187 153.965 144.016 150.259C146.363 147.912 148.339 145.565 148.339 145.071C148.339 142.848 145.128 144.33 141.299 148.53C137.469 152.73 137.222 153.594 137.222 161.5C137.222 169.405 137.469 170.147 140.31 171.505C142.04 172.247 143.398 173.235 143.398 173.729C143.398 174.223 145.004 175.335 146.857 176.076C148.834 176.94 153.157 180.276 156.492 183.611C162.298 189.54 162.792 189.787 169.709 189.787C176.256 189.787 177.368 189.417 180.58 185.958C182.556 183.858 184.162 181.387 184.162 180.523C184.162 177.682 194.167 171.258 198.614 171.258C200.838 171.258 202.691 170.764 202.691 170.147C202.691 169.529 203.555 168.047 204.667 166.935C208.496 163.229 210.102 150.135 207.261 146.43C205.532 144.083 198.985 142.23 198.985 144.083ZM177.244 185.464C176.75 186.452 175.639 187.317 174.527 187.317C172.921 187.317 173.045 186.946 175.021 185.464C177.986 183.24 178.109 183.24 177.244 185.464Z" fill="black"/>
<path d="M207.632 143.96C207.632 144.577 208.373 145.318 209.237 145.689C209.979 145.936 213.931 148.777 217.761 151.989C224.431 157.424 228.631 159.153 228.631 156.436C228.631 155.694 228.013 155.2 227.272 155.2C226.531 155.2 222.455 152.359 218.131 149.024C210.596 143.095 207.632 141.613 207.632 143.96Z" fill="black"/>
<path d="M238.512 174.1C238.512 174.965 239.377 176.818 240.365 178.177C242.342 180.771 242.836 184.847 241.23 184.847C239.501 184.847 235.424 193.247 236.536 194.358C237.154 194.853 237.895 194.605 238.265 193.617C238.636 192.629 240.242 190.529 241.724 188.923C245.183 185.465 245.43 181.512 242.589 176.324C240.242 172.371 238.512 171.383 238.512 174.1Z" fill="black"/>
<path d="M259.511 177.559C259.511 178.424 260.746 182.253 262.105 186.206C265.193 194.605 264.699 197.694 259.511 203.499C255.929 207.576 254.57 212.022 257.041 212.022C257.782 212.022 258.276 211.281 258.276 210.293C258.276 209.428 259.511 207.329 261.117 205.599C267.664 198.188 268.405 193.741 264.452 184.97C263.093 182.006 261.982 178.918 261.982 177.929C261.982 176.941 261.487 176.2 260.746 176.2C260.129 176.2 259.511 176.818 259.511 177.559Z" fill="black"/>
<path fill-rule="evenodd" clip-rule="evenodd" d="M216.772 187.07C215.166 189.046 213.066 190.281 211.337 190.158C209.855 190.034 207.26 190.775 205.655 191.887C203.184 193.493 197.131 193.74 166.003 193.74C140.927 193.74 129.069 193.246 128.822 192.381C127.957 189.911 126.104 191.022 126.104 193.987C126.104 195.716 125.61 197.446 124.869 197.816C123.016 198.928 123.387 200.905 125.487 200.905C126.475 200.905 127.34 200.287 127.34 199.669C127.34 196.952 129.563 198.681 131.045 202.387C133.392 208.316 147.104 220.916 156.368 225.61C159.95 227.462 163.656 228.08 170.944 228.08C182.061 228.08 186.632 226.351 193.302 219.927C195.649 217.58 197.996 215.728 198.367 215.728C199.725 215.728 202.319 212.639 203.184 209.798C203.678 208.316 204.543 207.081 205.037 207.081C205.531 207.081 206.643 204.487 207.384 201.152C208.743 196.087 209.731 194.975 215.043 192.011C219.242 189.664 221.219 187.811 221.219 186.081C221.219 182.746 219.86 183.117 216.772 187.07ZM154.268 196.828C155.75 197.075 157.974 197.075 159.209 196.828C160.321 196.458 159.086 196.211 156.368 196.334C153.651 196.334 152.662 196.581 154.268 196.828ZM171.685 199.422C177.491 201.275 185.026 200.534 188.732 197.816C190.708 196.211 190.09 196.087 183.544 196.211C179.467 196.211 173.909 196.705 171.191 197.075L166.25 197.816L171.685 199.422ZM194.908 200.905C195.649 200.905 196.884 200.04 197.749 199.052C199.725 196.705 199.108 196.705 196.02 199.052C194.661 200.04 194.167 200.905 194.908 200.905ZM202.69 205.846C203.184 205.846 203.925 204.116 204.419 201.893C205.408 196.705 204.79 196.458 200.714 200.287C198.861 202.016 195.896 203.746 194.167 204.24C192.437 204.61 189.843 205.722 188.485 206.587C187.126 207.451 183.791 208.687 181.073 209.428C178.356 210.169 174.65 212.145 172.797 213.875C170.944 215.604 168.968 216.963 168.474 216.963C167.856 216.963 165.632 215.233 163.409 213.257C159.58 209.798 158.592 209.551 150.068 209.551C141.298 209.551 138.086 211.034 143.151 212.886C144.263 213.381 147.474 215.357 150.192 217.457C158.962 224.251 162.421 225.61 170.944 225.61C180.826 225.61 184.285 224.374 190.09 218.816C192.561 216.469 195.526 214.245 196.637 213.875C197.749 213.504 199.355 211.528 200.22 209.551C201.084 207.451 202.196 205.846 202.69 205.846ZM170.944 206.834C171.562 202.387 171.438 202.14 167.115 200.905C159.703 198.928 158.221 199.299 158.221 203.004C158.344 205.722 159.58 207.204 163.533 209.798C166.374 211.651 169.091 212.763 169.462 212.269C169.956 211.775 170.573 209.304 170.944 206.834ZM138.21 203.499C140.063 205.104 140.186 204.981 138.58 203.004C137.716 201.893 136.728 200.905 136.481 200.905C135.492 200.905 136.11 201.893 138.21 203.499ZM178.109 207.081C179.22 207.081 182.061 206.216 184.285 205.228L188.485 203.499L181.567 203.375C176.256 203.375 174.403 203.869 173.785 205.351C172.55 208.687 172.92 210.169 174.526 208.563C175.391 207.698 176.997 207.081 178.109 207.081Z" fill="black"/>
<path d="M229.865 239.445C227.518 243.027 224.924 247.227 224.183 248.709C222.824 251.303 216.771 258.097 209.236 265.879C207.63 267.485 206.395 269.091 206.395 269.462C206.395 269.832 204.419 272.179 202.072 274.65C199.725 277.12 197.748 279.591 197.748 280.208C197.748 281.444 201.454 281.567 201.454 280.208C201.454 279.344 204.542 275.638 214.301 264.521C225.665 251.798 227.394 249.698 227.394 248.833C227.394 248.339 229.371 244.88 231.718 241.174C236.288 234.01 236.659 233.022 234.929 233.022C234.435 233.022 232.088 235.986 229.865 239.445Z" fill="black"/>
<path d="M154.514 251.427C152.784 251.921 149.573 252.786 147.473 253.28C143.396 254.392 139.938 257.233 141.297 258.468C141.667 258.962 144.632 257.974 147.843 256.492C152.043 254.392 156.614 253.527 165.137 253.033C178.231 252.415 184.777 254.268 190.583 260.321C192.56 262.297 194.659 263.903 195.277 263.903C199.724 263.903 189.966 254.762 182.801 252.292C177.242 250.316 160.319 249.821 154.514 251.427Z" fill="black"/>
</g>
<defs>
<filter id="filter0_d_4302_3344" x="11.9975" y="14.9316" width="315.856" height="297.332" filterUnits="userSpaceOnUse" color-interpolation-filters="sRGB">
<feFlood flood-opacity="0" result="BackgroundImageFix"/>
<feColorMatrix in="SourceAlpha" type="matrix" values="0 0 0 0 0 0 0 0 0 0 0 0 0 0 0 0 0 0 127 0" result="hardAlpha"/>
<feOffset dy="3.25856"/>
<feGaussianBlur stdDeviation="1.46635"/>
<feComposite in2="hardAlpha" operator="out"/>
<feColorMatrix type="matrix" values="0 0 0 0 0 0 0 0 0 0 0 0 0 0 0 0 0 0 0.25 0"/>
<feBlend mode="normal" in2="BackgroundImageFix" result="effect1_dropShadow_4302_3344"/>
<feBlend mode="normal" in="SourceGraphic" in2="effect1_dropShadow_4302_3344" result="shape"/>
</filter>
</defs>
</svg>