<svg xmlns="http://www.w3.org/2000/svg" width="1680" height="427" viewBox="0 0 1680 427" fill="none">
<g filter="url(#filter0_d_4290_2780)">
<path fill-rule="evenodd" clip-rule="evenodd" d="M152.264 34.0825C152.264 33.2609 153.579 32.1107 155.222 31.7821C157.194 31.2891 157.358 30.9605 155.551 30.7962C151.772 30.6319 130.903 46.2418 130.903 49.3638C130.903 50.0211 134.683 47.2278 139.284 43.1199C143.884 39.012 148.65 35.5614 149.964 35.5614C151.279 35.5614 152.264 34.9041 152.264 34.0825ZM328.082 41.9696C328.082 43.6128 332.847 47.885 333.669 46.8991C333.833 46.5705 332.683 44.9273 331.04 43.2842C329.397 41.8053 328.082 41.1481 328.082 41.9696ZM340.734 55.4435C341.885 56.5938 343.199 57.0867 343.692 56.5937C344.185 56.1008 343.363 55.1149 341.72 54.6219C339.42 53.6361 339.256 53.8004 340.734 55.4435ZM355.687 70.2319C358.152 72.368 358.316 72.2037 356.18 69.5746C354.044 66.9456 352.729 66.124 352.729 67.4386C352.729 67.7672 354.044 69.0817 355.687 70.2319ZM364.56 83.2128C365.546 83.2128 365.382 82.227 364.232 80.7481C363.081 79.4336 361.931 78.2834 361.602 78.2834C361.274 78.2834 361.438 79.4336 361.931 80.7481C362.588 82.0626 363.739 83.2128 364.56 83.2128ZM376.391 100.466L373.269 95.5365C368.339 87.3208 365.875 84.0345 365.875 85.349C365.875 87.6494 369.49 93.5647 372.94 97.0154L376.391 100.466ZM380.827 108.025C383.456 111.147 383.785 111.311 382.471 108.682C379.677 103.095 377.377 100.302 377.377 102.273C377.377 103.424 378.856 105.888 380.827 108.025ZM64.027 125.113C66.3274 123.634 68.6278 121.334 69.1208 119.855C70.7639 115.747 69.2851 115.747 65.6702 119.855C60.0834 126.099 59.4262 128.235 64.027 125.113ZM390.029 123.306C393.48 127.907 394.794 127.742 392.165 122.813C391.179 120.841 389.7 119.362 388.715 119.362C387.893 119.362 388.386 121.17 390.029 123.306ZM398.902 136.78C400.217 137.437 400.217 136.944 398.902 134.479C397.916 132.508 396.273 130.536 395.287 129.878C393.973 129.221 393.973 129.714 395.287 132.179C396.273 134.151 397.916 136.122 398.902 136.78ZM415.169 156.498C415.169 156.005 413.691 153.869 412.047 151.897C402.517 140.559 400.71 138.916 406.132 146.803C411.883 155.019 415.169 158.469 415.169 156.498ZM417.798 162.084C418.127 162.084 418.456 161.263 418.456 160.441C418.456 159.455 417.634 158.798 416.648 158.798C415.827 158.798 415.498 159.455 415.991 160.441C416.484 161.263 417.305 162.084 417.798 162.084ZM35.7647 164.22C33.6286 167.671 33.7929 167.671 36.5863 165.042C38.2295 163.399 39.2154 161.756 38.7224 161.427C38.2295 160.934 36.9149 162.249 35.7647 164.22ZM418.62 165.371C418.456 168.328 421.249 172.929 422.399 171.943C422.728 171.45 422.071 169.314 420.92 167.014C419.606 164.549 418.62 163.892 418.62 165.371ZM425.521 183.445C425.521 187.553 425.85 189.196 426.178 187.06C426.507 185.088 426.507 181.802 426.178 179.666C425.85 177.694 425.521 179.337 425.521 183.445ZM393.808 222.059C394.794 221.566 395.451 216.637 395.451 211.379C395.451 206.121 394.794 201.191 393.808 200.698C392.822 200.041 392.165 203.985 392.165 211.379C392.165 218.773 392.822 222.717 393.808 222.059ZM426.836 213.844L428.479 209.736C429.3 207.6 429.793 204.313 429.629 202.342C429.136 199.22 428.972 199.22 427.822 202.013C427.164 203.656 426.671 207.107 426.836 209.407V213.844ZM418.291 206.449C419.277 206.449 420.099 205.628 420.099 204.806C420.099 203.82 419.77 203.163 419.442 203.163C418.949 203.163 418.127 203.82 417.634 204.806C417.141 205.628 417.47 206.449 418.291 206.449ZM415.169 226.496C412.869 233.069 416.155 232.247 419.277 225.51C422.564 218.609 422.235 211.708 418.949 218.116C417.798 220.252 416.155 224.031 415.169 226.496ZM34.1216 224.689L31.4925 220.581C28.6992 216.308 25.7415 214.994 25.7415 217.787C25.7415 218.609 27.7133 220.416 30.0137 222.059L34.1216 224.689ZM393.808 236.026C394.63 234.712 395.451 232.247 395.451 230.604C395.451 229.125 394.794 227.811 393.808 227.811C392.987 227.811 392.165 230.275 392.165 233.069C392.165 237.176 392.658 237.834 393.808 236.026ZM45.788 232.083C47.4311 233.726 49.0743 234.547 49.7315 234.055C50.2245 233.397 48.91 232.083 46.7739 231.097C44.9482 230.101 44.0445 229.608 43.9359 229.745C43.8295 229.879 44.4867 230.619 45.788 232.083ZM56.3042 234.383C56.6328 234.383 56.9614 233.562 56.9614 232.74C56.9614 231.754 56.1399 231.097 55.154 231.097C54.3324 231.097 54.0038 231.754 54.4967 232.74C54.9896 233.562 55.8112 234.383 56.3042 234.383ZM416.155 235.533C415.169 237.834 415.334 237.998 416.977 236.519C418.127 235.369 418.62 234.054 418.127 233.562C417.634 233.069 416.648 233.89 416.155 235.533ZM392.329 256.73C392.329 258.538 392.822 259.03 393.315 257.716C393.808 256.566 393.644 255.087 393.151 254.594C392.658 253.937 392.165 254.923 392.329 256.73ZM79.9656 268.068C82.266 269.547 81.9374 266.918 79.3083 263.467C78.1581 261.988 76.6793 260.674 76.022 260.674C74.5432 260.674 77.8295 266.753 79.9656 268.068Z" fill="black"/>
<path fill-rule="evenodd" clip-rule="evenodd" d="M177.405 20.773C170.996 21.4302 163.602 23.0733 160.973 24.3878C158.508 25.7024 153.086 28.4958 148.978 30.4676C141.42 34.0825 124.331 49.5282 115.129 61.1946C105.599 73.0253 100.505 79.1049 99.6835 79.9265C99.0262 80.4195 96.3972 84.0344 93.6038 88.1423C90.8104 92.2502 86.8669 96.5224 84.7308 97.6726C82.5947 98.8228 79.637 101.781 78.1581 104.41C76.6793 106.874 72.2428 111.147 68.2992 113.776C64.3556 116.405 59.9191 121.005 58.6046 123.799C57.2901 126.592 54.1681 131.357 51.7033 134.315C49.0743 137.273 47.1025 140.888 47.1025 142.366C47.1025 143.681 45.1307 147.132 42.666 149.925C34.4502 158.962 27.3846 169.971 26.3987 175.065C25.7415 177.859 24.2626 180.981 23.1124 181.966C21.4693 183.281 20.812 188.375 20.812 201.027C20.812 218.28 20.812 218.28 26.0701 223.21C32.3141 228.961 47.5954 239.313 50.0602 239.313C51.0461 239.313 52.1963 238.327 52.6892 237.176C53.1822 235.862 54.661 236.684 56.9614 239.641C58.9332 242.27 61.7266 244.242 63.0411 244.242C66.6561 244.242 69.9424 249.172 70.1067 254.758C70.1067 261.167 76.515 272.176 80.2942 272.176C82.4303 272.176 83.2519 273.49 83.2519 276.284C83.2519 278.584 84.5664 282.856 86.2096 285.814C89.3316 291.565 95.0826 300.438 96.3972 301.753C96.8901 302.245 100.012 306.682 103.298 311.611C106.749 316.541 111.514 322.621 114.143 325.085C119.561 330.174 123.503 335.264 123.696 335.469L126.796 338.723C128.603 340.531 134.025 347.268 138.626 353.512C151.279 370.436 157.523 376.516 172.475 386.375C179.869 391.14 187.428 396.563 189.235 398.206C198.601 406.75 220.948 409.872 233.929 404.45C237.051 403.135 241.323 401.985 243.131 401.985C244.938 401.985 248.882 400.177 251.84 397.877C254.797 395.577 258.248 393.769 259.727 393.769C261.041 393.769 262.684 392.948 263.177 392.126C263.67 391.14 265.314 390.483 266.464 390.483C267.778 390.483 271.393 387.854 274.515 384.732C277.802 381.61 280.924 378.981 281.581 378.981C282.402 378.981 285.853 376.352 289.468 373.23C293.083 370.108 296.533 367.479 297.355 367.479C298.012 367.479 300.148 366 302.285 364.192C308.857 357.948 310.829 356.634 317.073 352.855C320.359 350.883 323.276 347.746 323.276 347.746C323.829 347.302 324.136 347.317 325.782 345.46C328.004 344.308 331.873 339.149 331.873 339.149C333.023 337.013 334.452 336.587 334.452 336.587L338.321 333.991C339.18 332.702 340.241 330.343 351.086 319.499C358.809 311.94 368.175 303.396 371.79 300.438C375.569 297.645 379.842 292.879 381.32 289.922C382.799 286.964 384.771 283.349 385.593 282.035C386.414 280.72 389.7 273.655 392.987 266.425C397.095 257.716 401.531 250.979 406.461 246.378C410.569 242.435 414.019 239.313 414.348 239.313C414.676 239.313 414.019 241.449 413.033 244.242C412.047 246.871 411.719 249.5 412.376 250.157C414.019 251.965 417.963 248.021 420.099 242.106C424.7 229.947 430.286 217.459 431.765 216.308C432.422 215.815 432.915 207.928 433.08 198.891C433.408 184.596 432.915 181.145 429.793 175.394C427.986 171.615 425.686 168.164 424.864 167.671C424.042 167.178 423.385 165.371 423.385 163.727C423.385 162.084 422.235 159.62 420.92 158.141C419.606 156.826 418.456 155.019 418.456 154.197C418.456 153.211 417.305 152.225 415.991 151.568C414.676 151.075 413.526 149.596 413.526 148.118C413.526 145.324 402.681 129.878 398.245 126.099C396.602 124.949 395.451 123.142 395.451 122.32C395.451 121.498 392.822 117.39 389.7 113.283C386.578 109.175 383.949 104.738 383.949 103.588C383.949 102.438 383.292 101.288 382.471 100.959C381.649 100.63 376.555 93.4004 370.804 84.856C357.33 64.1522 333.505 37.2045 328.575 37.2045C326.932 37.2045 321.345 34.7398 313.294 30.4676C304.914 25.8667 300.148 24.2236 293.576 23.402C275.337 21.1016 257.098 20.6086 243.295 22.0874C232.779 23.402 226.535 23.2376 221.934 22.0874C213.554 19.787 192.357 19.1298 177.405 20.773ZM152.264 34.0825C152.264 33.2609 153.579 32.1107 155.222 31.7821C157.194 31.2891 157.358 30.9605 155.551 30.7962C151.772 30.6319 130.903 46.2418 130.903 49.3638C130.903 50.0211 134.683 47.2278 139.284 43.1199C143.884 39.012 148.65 35.5614 149.964 35.5614C151.279 35.5614 152.264 34.9041 152.264 34.0825ZM328.082 41.9696C328.082 43.6128 332.847 47.885 333.669 46.8991C333.833 46.5705 332.683 44.9273 331.04 43.2842C329.397 41.8053 328.082 41.1481 328.082 41.9696ZM340.734 55.4435C341.885 56.5938 343.199 57.0867 343.692 56.5937C344.185 56.1008 343.363 55.1149 341.72 54.6219C339.42 53.6361 339.256 53.8004 340.734 55.4435ZM272.708 96.851C268.436 93.0718 258.905 85.0203 251.675 79.105C244.445 73.1896 236.558 66.4527 234.258 63.988L229.821 59.7158L226.371 67.6029C224.399 71.8751 222.92 76.4759 222.92 77.6261C222.92 81.734 201.395 101.616 187.757 109.996C185.128 111.639 182.006 114.104 180.691 115.419C179.377 116.733 177.569 117.719 176.747 117.719C173.297 117.719 175.762 120.512 182.663 124.127C186.771 126.263 191.7 129.386 193.672 131.029C195.479 132.836 198.108 134.151 199.423 134.151C200.573 134.151 201.559 134.972 201.559 135.794C201.559 138.916 196.63 139.409 192.522 136.78C190.386 135.301 187.264 134.151 185.621 134.151C181.841 134.151 171.818 127.085 172.64 124.949C172.968 123.963 172.804 122.32 172.147 121.334C170.832 119.198 146.349 136.78 131.725 150.089C130.575 151.239 128.767 152.225 127.781 152.225C126.796 152.225 125.974 152.883 125.974 153.869C125.974 154.69 125.152 155.512 124.331 155.512C122.359 155.512 121.373 156.333 113.65 163.07C111.021 165.371 106.749 168.328 104.284 169.643C101.655 170.957 99.6835 172.765 99.6835 173.586C99.6835 174.572 98.6976 175.23 97.7117 175.23C95.7399 175.23 93.4395 177.53 82.1017 190.84C78.1581 195.44 77.9938 196.426 78.9797 208.914C79.4727 216.144 80.2942 230.111 80.9515 240.134C81.4445 249.993 82.9233 261.002 84.2378 264.453C85.5523 267.739 86.5382 272.669 86.5382 275.133C86.7026 277.598 88.51 282.528 90.6461 286.143C92.9465 289.757 95.5756 294.358 96.7258 296.33C97.7117 298.466 99.1905 300.109 99.8478 300.109C100.505 300.109 103.463 304.053 106.256 308.654C109.214 313.419 114.965 320.813 119.073 324.921C126.796 332.315 129.096 335.109 140.269 349.897C143.556 354.169 146.842 357.62 147.499 357.62C148.321 357.62 148.978 358.77 148.978 360.085C148.978 364.685 162.452 375.694 195.644 398.37C200.573 401.821 204.517 402.807 213.226 403.299C225.714 404.121 234.915 401.656 253.483 392.783C259.891 389.661 265.642 387.197 266.135 387.197C266.792 387.197 269.75 384.568 272.872 381.446C276.158 378.324 279.28 375.694 279.938 375.694C280.759 375.694 284.21 373.065 287.825 369.943C291.44 366.821 294.89 364.192 295.548 364.192C296.698 364.192 298.341 363.042 307.05 355.484C309.021 354.005 310.993 352.69 311.486 352.69C313.622 352.69 328.082 338.724 328.082 336.587C328.082 335.602 328.739 334.616 329.725 334.616C330.547 334.616 334.162 331.494 337.941 327.714C345.5 319.663 344.842 320.32 357.166 307.996C362.26 302.738 367.189 298.466 367.846 298.466C372.283 298.466 383.621 281.213 380.17 279.899C378.856 279.406 379.184 278.091 381.32 275.626C383.292 273.49 383.785 272.176 382.306 272.176C380.992 272.176 380.663 271.19 381.485 269.218C388.55 252.458 388.879 250.322 388.879 221.731C388.879 198.891 388.386 193.14 386.414 191.004C385.1 189.689 384.278 187.553 384.771 186.403C386.578 181.802 369.818 164.385 355.194 155.512C351.579 153.211 346.65 149.761 344.185 147.625C338.927 143.024 331.861 139.08 328.739 139.08C327.425 139.08 326.439 138.423 326.439 137.437C326.439 136.615 323.317 134.315 319.538 132.343C315.594 130.371 310.665 126.921 308.364 124.785C305.078 121.498 303.27 120.841 298.67 121.663C295.548 122.156 292.59 123.142 292.097 123.799C290.782 125.606 286.017 128.4 277.473 132.672C273.694 134.644 270.079 136.78 269.586 137.601C268.436 139.573 262.356 139.409 262.356 137.437C262.356 136.615 265.478 133.822 269.421 131.522C273.201 129.057 276.651 126.592 277.144 125.935C277.637 125.442 281.416 123.142 285.853 121.17C294.726 116.898 295.876 112.954 289.139 109.339C286.51 108.024 283.717 106.217 282.567 105.395C281.581 104.41 277.144 100.63 272.708 96.851ZM355.687 70.2319C358.152 72.368 358.316 72.2037 356.18 69.5746C354.044 66.9456 352.729 66.124 352.729 67.4386C352.729 67.7672 354.044 69.0817 355.687 70.2319ZM364.56 83.2128C365.546 83.2128 365.382 82.227 364.232 80.7481C363.081 79.4336 361.931 78.2834 361.602 78.2834C361.274 78.2834 361.438 79.4336 361.931 80.7481C362.588 82.0626 363.739 83.2128 364.56 83.2128ZM376.391 100.466L373.269 95.5365C368.339 87.3208 365.875 84.0345 365.875 85.349C365.875 87.6494 369.49 93.5647 372.94 97.0154L376.391 100.466ZM380.827 108.025C383.456 111.147 383.785 111.311 382.471 108.682C379.677 103.095 377.377 100.302 377.377 102.273C377.377 103.424 378.856 105.888 380.827 108.025ZM64.027 125.113C66.3274 123.634 68.6278 121.334 69.1208 119.855C70.7639 115.747 69.2851 115.747 65.6702 119.855C60.0834 126.099 59.4262 128.235 64.027 125.113ZM390.029 123.306C393.48 127.907 394.794 127.742 392.165 122.813C391.179 120.841 389.7 119.362 388.715 119.362C387.893 119.362 388.386 121.17 390.029 123.306ZM398.902 136.78C400.217 137.437 400.217 136.944 398.902 134.479C397.916 132.508 396.273 130.536 395.287 129.878C393.973 129.221 393.973 129.714 395.287 132.179C396.273 134.151 397.916 136.122 398.902 136.78ZM415.169 156.498C415.169 156.005 413.691 153.869 412.047 151.897C402.517 140.559 400.71 138.916 406.132 146.803C411.883 155.019 415.169 158.469 415.169 156.498ZM417.798 162.084C418.127 162.084 418.456 161.263 418.456 160.441C418.456 159.455 417.634 158.798 416.648 158.798C415.827 158.798 415.498 159.455 415.991 160.441C416.484 161.263 417.305 162.084 417.798 162.084ZM35.7647 164.22C33.6286 167.671 33.7929 167.671 36.5863 165.042C38.2295 163.399 39.2154 161.756 38.7224 161.427C38.2295 160.934 36.9149 162.249 35.7647 164.22ZM418.62 165.371C418.456 168.328 421.249 172.929 422.399 171.943C422.728 171.45 422.071 169.314 420.92 167.014C419.606 164.549 418.62 163.892 418.62 165.371ZM425.521 183.445C425.521 187.553 425.85 189.196 426.178 187.06C426.507 185.088 426.507 181.802 426.178 179.666C425.85 177.694 425.521 179.337 425.521 183.445ZM393.808 222.059C394.794 221.566 395.451 216.637 395.451 211.379C395.451 206.121 394.794 201.191 393.808 200.698C392.822 200.041 392.165 203.985 392.165 211.379C392.165 218.773 392.822 222.717 393.808 222.059ZM426.836 213.844L428.479 209.736C429.3 207.6 429.793 204.313 429.629 202.342C429.136 199.22 428.972 199.22 427.822 202.013C427.164 203.656 426.671 207.107 426.836 209.407V213.844ZM418.291 206.449C419.277 206.449 420.099 205.628 420.099 204.806C420.099 203.82 419.77 203.163 419.442 203.163C418.949 203.163 418.127 203.82 417.634 204.806C417.141 205.628 417.47 206.449 418.291 206.449ZM415.169 226.496C412.869 233.069 416.155 232.247 419.277 225.51C422.564 218.609 422.235 211.708 418.949 218.116C417.798 220.252 416.155 224.031 415.169 226.496ZM34.1216 224.689L31.4925 220.581C28.6992 216.308 25.7415 214.994 25.7415 217.787C25.7415 218.609 27.7133 220.416 30.0137 222.059L34.1216 224.689ZM393.808 236.026C394.63 234.712 395.451 232.247 395.451 230.604C395.451 229.125 394.794 227.811 393.808 227.811C392.987 227.811 392.165 230.275 392.165 233.069C392.165 237.176 392.658 237.834 393.808 236.026ZM45.788 232.083C47.4311 233.726 49.0743 234.547 49.7315 234.055C50.2245 233.397 48.91 232.083 46.7739 231.097C44.9482 230.101 44.0445 229.608 43.9359 229.745C43.8295 229.879 44.4867 230.619 45.788 232.083ZM56.3042 234.383C56.6328 234.383 56.9614 233.562 56.9614 232.74C56.9614 231.754 56.1399 231.097 55.154 231.097C54.3324 231.097 54.0038 231.754 54.4967 232.74C54.9896 233.562 55.8112 234.383 56.3042 234.383ZM416.155 235.533C415.169 237.834 415.334 237.998 416.977 236.519C418.127 235.369 418.62 234.054 418.127 233.562C417.634 233.069 416.648 233.89 416.155 235.533ZM392.329 256.73C392.329 258.538 392.822 259.03 393.315 257.716C393.808 256.566 393.644 255.087 393.151 254.594C392.658 253.937 392.165 254.923 392.329 256.73ZM79.9656 268.068C82.266 269.547 81.9374 266.918 79.3083 263.467C78.1581 261.988 76.6793 260.674 76.022 260.674C74.5432 260.674 77.8295 266.753 79.9656 268.068Z" fill="black"/>
<path d="M251.675 79.105C258.905 85.0203 268.436 93.0718 272.708 96.851C277.144 100.63 281.581 104.41 282.567 105.395C283.717 106.217 286.51 108.024 289.139 109.339C295.876 112.954 294.726 116.898 285.853 121.17C281.416 123.142 277.637 125.442 277.144 125.935C276.651 126.592 273.201 129.057 269.421 131.522C265.478 133.822 262.356 136.615 262.356 137.437C262.356 139.409 268.436 139.573 269.586 137.601C270.079 136.78 273.694 134.644 277.473 132.672C286.017 128.4 290.782 125.606 292.097 123.799C292.59 123.142 295.548 122.156 298.67 121.663C303.27 120.841 305.078 121.498 308.364 124.785C310.665 126.921 315.594 130.371 319.538 132.343C323.317 134.315 326.439 136.615 326.439 137.437C326.439 138.423 327.425 139.08 328.739 139.08C331.861 139.08 338.927 143.024 344.185 147.625C346.65 149.761 351.579 153.211 355.194 155.512C369.818 164.385 386.578 181.802 384.771 186.403C384.278 187.553 385.1 189.689 386.414 191.004C388.386 193.14 388.879 198.891 388.879 221.731C388.879 250.322 388.55 252.458 381.485 269.218C380.663 271.19 380.992 272.176 382.306 272.176C383.785 272.176 383.292 273.49 381.32 275.626C379.184 278.091 378.856 279.406 380.17 279.899C383.621 281.213 372.283 298.466 367.846 298.466C367.189 298.466 362.26 302.738 357.166 307.996C344.842 320.32 345.5 319.663 337.941 327.714C334.162 331.494 330.547 334.616 329.725 334.616C328.739 334.616 328.082 335.602 328.082 336.587C328.082 338.724 313.622 352.69 311.486 352.69C310.993 352.69 309.021 354.005 307.05 355.484C298.341 363.042 296.698 364.192 295.548 364.192C294.89 364.192 291.44 366.821 287.825 369.943C284.21 373.065 280.759 375.694 279.938 375.694C279.28 375.694 276.158 378.324 272.872 381.446C269.75 384.568 266.792 387.197 266.135 387.197C265.642 387.197 259.891 389.661 253.483 392.783C234.915 401.656 225.714 404.121 213.226 403.299C204.517 402.807 200.573 401.821 195.644 398.37C162.452 375.694 148.978 364.685 148.978 360.085C148.978 358.77 148.321 357.62 147.499 357.62C146.842 357.62 143.556 354.169 140.269 349.897C129.096 335.109 126.796 332.315 119.073 324.921C114.965 320.813 109.214 313.419 106.256 308.654C103.463 304.053 100.505 300.109 99.8478 300.109C99.1905 300.109 97.7117 298.466 96.7258 296.33C95.5756 294.358 92.9465 289.757 90.6461 286.143C88.51 282.528 86.7026 277.598 86.5382 275.133C86.5382 272.669 85.5523 267.739 84.2378 264.453C82.9233 261.002 81.4445 249.993 80.9515 240.134C80.2942 230.111 79.4727 216.144 78.9797 208.914C77.9938 196.426 78.1581 195.44 82.1017 190.84C93.4395 177.53 95.7399 175.23 97.7117 175.23C98.6976 175.23 99.6835 174.572 99.6835 173.586C99.6835 172.765 101.655 170.957 104.284 169.643C106.749 168.328 111.021 165.371 113.65 163.07C121.373 156.333 122.359 155.512 124.331 155.512C125.152 155.512 125.974 154.69 125.974 153.869C125.974 152.883 126.796 152.225 127.781 152.225C128.767 152.225 130.575 151.239 131.725 150.089C146.349 136.78 170.832 119.198 172.147 121.334C172.804 122.32 172.968 123.963 172.64 124.949C171.818 127.085 181.841 134.151 185.621 134.151C187.264 134.151 190.386 135.301 192.522 136.78C196.63 139.409 201.559 138.916 201.559 135.794C201.559 134.972 200.573 134.151 199.423 134.151C198.108 134.151 195.479 132.836 193.672 131.029C191.7 129.386 186.771 126.263 182.663 124.127C175.762 120.512 173.297 117.719 176.747 117.719C177.569 117.719 179.377 116.733 180.691 115.419C182.006 114.104 185.128 111.639 187.757 109.996C201.395 101.616 222.92 81.734 222.92 77.6261C222.92 76.4759 224.399 71.8751 226.371 67.6029L229.821 59.7158L234.258 63.988C236.558 66.4527 244.445 73.1896 251.675 79.105Z" fill="#EBCC91"/>
<path d="M301.794 132.344C301.794 133.166 299.329 134.644 296.536 135.795C289.963 138.424 280.433 145.325 280.433 147.461C280.433 148.283 281.583 148.94 282.898 148.94C284.212 148.94 285.362 148.283 285.362 147.461C285.362 145.982 295.386 140.067 305.573 135.466C311.16 133.001 311.324 130.865 305.902 130.865C303.601 130.865 301.794 131.522 301.794 132.344Z" fill="black"/>
<path d="M165.411 137.438C165.411 138.26 167.547 139.081 170.176 139.081C172.805 139.081 176.092 140.232 177.57 141.546C178.885 142.861 180.364 144.011 181.021 144.011C181.514 144.011 184.143 145.654 186.772 147.626C189.401 149.597 192.195 150.583 192.852 149.926C193.673 149.269 192.359 147.297 190.058 145.654C187.758 144.011 184.143 141.053 182.007 139.246C177.899 135.631 165.411 134.316 165.411 137.438Z" fill="black"/>
<path d="M287.991 148.775C278.954 151.897 274.846 156.991 283.062 154.69C285.691 153.869 293.742 153.376 300.972 153.54C317.075 154.033 334.657 152.39 334.657 150.583C334.657 149.104 323.976 147.461 307.545 146.475C299.329 145.982 293.742 146.639 287.991 148.775Z" fill="black"/>
<path d="M152.103 149.925C147.009 152.554 143.23 156.826 144.544 158.141C145.037 158.634 149.638 157.648 154.732 155.676C164.591 151.897 174.614 151.075 175.6 154.033C176.422 156.498 203.205 158.141 203.205 155.676C203.205 154.69 200.412 153.869 196.632 153.869C193.018 153.869 186.281 152.39 181.515 150.582C171.656 146.803 158.511 146.475 152.103 149.925Z" fill="black"/>
<path d="M216.351 158.47C216.351 160.441 227.36 163.07 229.003 161.427C230.646 159.948 229.332 159.127 222.595 157.977C218.487 157.155 216.351 157.484 216.351 158.47Z" fill="black"/>
<path d="M240.668 158.963C239.517 159.784 236.888 160.442 234.916 160.442C232.78 160.442 231.137 161.099 231.137 162.085C231.137 162.906 232.78 163.728 234.916 163.728C238.203 163.892 238.203 164.057 235.738 165.536C232.78 167.179 231.63 171.944 234.095 171.944C234.752 171.944 237.381 170.136 239.846 168C242.475 165.7 248.226 163.071 252.663 161.921C257.099 160.77 260.714 159.292 260.714 158.634C260.714 156.991 243.461 157.32 240.668 158.963Z" fill="black"/>
<path d="M169.189 161.593C162.617 161.921 157.194 162.907 157.194 163.729C157.194 165.536 172.64 165.865 184.142 164.386C192.686 163.072 194.494 160.278 186.443 160.771C183.485 160.935 175.598 161.428 169.189 161.593Z" fill="black"/>
<path d="M209.776 163.4C209.776 164.879 219.47 168.658 223.414 168.658C228.015 168.658 226.536 166.193 220.785 164.057C214.541 161.757 209.776 161.428 209.776 163.4Z" fill="black"/>
<path d="M285.362 163.564C285.362 164.385 291.77 165.371 299.821 165.7C307.708 166.193 315.431 167.179 317.074 167.836C319.046 168.658 319.868 168.329 319.868 166.521C319.868 165.207 317.732 163.728 314.774 163.071C307.051 161.592 285.362 161.921 285.362 163.564Z" fill="black"/>
<path d="M187.921 187.554C185.457 189.855 182.335 191.662 181.184 191.662C178.884 191.662 162.124 209.079 162.124 211.544C162.124 212.366 160.645 213.845 158.837 214.995C155.551 217.131 154.237 221.239 157.03 221.239C157.852 221.239 160.316 218.938 162.452 216.309C174.447 200.535 182.663 193.469 195.48 187.883C197.945 186.897 199.916 185.418 199.916 184.761C199.916 181.967 192.194 183.775 187.921 187.554Z" fill="black"/>
<path d="M265.644 191.661C265.644 192.483 267.123 194.126 268.931 195.276C271.56 197.084 272.217 199.055 272.217 207.271C272.053 219.924 268.438 225.017 260.879 223.538C256.443 222.553 249.213 229.125 249.213 229.125C249.213 229.125 249.213 229.125 231.96 242.763C231.96 242.763 226.022 250.725 221.115 249.665C217.477 248.879 214.214 243.092 214.214 243.092C201.561 231.097 199.261 229.454 195.482 229.454C193.346 229.454 189.196 224.949 188.833 224.585C187.025 223.928 186.773 220.416 186.773 214.172C186.773 206.285 187.43 204.806 192.524 199.877C195.646 196.755 198.275 193.633 198.275 192.976C198.275 190.018 194.003 191.99 188.909 197.577C183.815 203.163 183.487 204.314 183.487 214.83C183.487 225.346 183.815 226.332 187.594 228.139C189.895 229.125 191.702 230.44 191.702 231.097C191.702 231.754 193.838 233.233 196.303 234.219C198.932 235.369 204.683 239.806 209.12 244.242C216.843 252.129 217.5 252.458 226.702 252.458C235.41 252.458 236.889 251.965 241.161 247.364C243.79 244.571 245.926 241.285 245.926 240.134C245.926 236.355 259.236 227.811 265.151 227.811C268.109 227.811 270.574 227.153 270.574 226.332C270.574 225.51 271.724 223.538 273.203 222.06C278.297 217.13 280.433 199.713 276.653 194.783C274.353 191.661 265.644 189.197 265.644 191.661ZM236.725 246.707C236.068 248.021 234.589 249.172 233.11 249.172C230.974 249.172 231.138 248.679 233.767 246.707C237.711 243.749 237.875 243.749 236.725 246.707Z" fill="black"/>
<path d="M277.146 191.497C277.146 192.319 278.132 193.305 279.283 193.798C280.268 194.126 285.527 197.906 290.62 202.178C299.493 209.408 305.08 211.708 305.08 208.093C305.08 207.107 304.259 206.45 303.273 206.45C302.287 206.45 296.864 202.671 291.113 198.234C281.09 190.347 277.146 188.375 277.146 191.497Z" fill="black"/>
<path d="M318.225 231.59C318.225 232.741 319.375 235.205 320.689 237.013C323.319 240.463 323.976 245.886 321.84 245.886C319.539 245.886 314.117 257.059 315.596 258.538C316.417 259.195 317.403 258.867 317.896 257.552C318.389 256.238 320.525 253.444 322.497 251.308C327.098 246.707 327.426 241.449 323.647 234.548C320.525 229.29 318.225 227.975 318.225 231.59Z" fill="black"/>
<path d="M346.158 236.191C346.158 237.341 347.801 242.435 349.608 247.693C353.716 258.867 353.059 262.975 346.158 270.697C341.393 276.12 339.585 282.035 342.871 282.035C343.857 282.035 344.515 281.049 344.515 279.735C344.515 278.585 346.158 275.791 348.294 273.491C357.003 263.632 357.989 257.716 352.73 246.05C350.923 242.106 349.444 237.999 349.444 236.684C349.444 235.37 348.787 234.384 347.801 234.384C346.979 234.384 346.158 235.205 346.158 236.191Z" fill="black"/>
<path fill-rule="evenodd" clip-rule="evenodd" d="M289.306 248.844C287.17 251.473 284.376 253.116 282.076 252.952C280.104 252.787 276.653 253.773 274.517 255.252C271.231 257.388 263.18 257.717 221.772 257.717C188.416 257.717 172.642 257.06 172.313 255.909C171.163 252.623 168.698 254.102 168.698 258.045C168.698 260.346 168.041 262.646 167.055 263.139C164.59 264.618 165.083 267.247 167.877 267.247C169.191 267.247 170.341 266.425 170.341 265.604C170.341 261.989 173.299 264.289 175.271 269.219C178.393 277.106 196.632 293.866 208.955 300.11C213.721 302.575 218.65 303.396 228.345 303.396C243.133 303.396 249.213 301.096 258.086 292.552C261.208 289.43 264.33 286.965 264.823 286.965C266.63 286.965 270.081 282.857 271.231 279.078C271.888 277.106 273.039 275.463 273.696 275.463C274.353 275.463 275.832 272.012 276.818 267.576C278.625 260.839 279.94 259.36 287.005 255.416C292.592 252.294 295.221 249.83 295.221 247.529C295.221 243.093 293.414 243.586 289.306 248.844ZM206.162 261.825C208.134 262.153 211.092 262.153 212.735 261.825C214.214 261.332 212.57 261.003 208.955 261.167C205.341 261.167 204.026 261.496 206.162 261.825ZM229.331 265.275C237.053 267.74 247.077 266.754 252.006 263.139C254.635 261.003 253.814 260.839 245.105 261.003C239.682 261.003 232.288 261.66 228.673 262.153L222.101 263.139L229.331 265.275ZM260.222 267.247C261.208 267.247 262.851 266.097 264.001 264.782C266.63 261.66 265.809 261.66 261.701 264.782C259.893 266.097 259.236 267.247 260.222 267.247ZM270.574 273.82C271.231 273.82 272.217 271.519 272.874 268.562C274.189 261.66 273.367 261.332 267.945 266.425C265.48 268.726 261.536 271.026 259.236 271.684C256.936 272.177 253.485 273.655 251.678 274.806C249.87 275.956 245.434 277.599 241.819 278.585C238.204 279.571 233.274 282.2 230.809 284.5C228.345 286.801 225.716 288.608 225.058 288.608C224.237 288.608 221.279 286.308 218.321 283.679C213.228 279.078 211.913 278.749 200.575 278.749C188.909 278.749 184.637 280.721 191.374 283.186C192.853 283.843 197.125 286.472 200.74 289.265C212.406 298.303 217.007 300.11 228.345 300.11C241.49 300.11 246.091 298.467 253.814 291.073C257.1 287.951 261.044 284.993 262.522 284.5C264.001 284.007 266.137 281.378 267.288 278.749C268.438 275.956 269.917 273.82 270.574 273.82ZM228.345 275.134C229.166 269.219 229.002 268.89 223.251 267.247C213.392 264.618 211.42 265.111 211.42 270.04C211.585 273.655 213.228 275.627 218.486 279.078C222.265 281.543 225.88 283.021 226.373 282.364C227.03 281.707 227.852 278.421 228.345 275.134ZM184.801 270.698C187.266 272.834 187.43 272.669 185.294 270.04C184.144 268.562 182.829 267.247 182.501 267.247C181.186 267.247 182.008 268.562 184.801 270.698ZM237.875 275.463C239.354 275.463 243.133 274.313 246.091 272.998L251.678 270.698L242.476 270.533C235.41 270.533 232.946 271.191 232.124 273.162C230.481 277.599 230.974 279.571 233.11 277.435C234.26 276.284 236.396 275.463 237.875 275.463Z" fill="black"/>
<path d="M306.722 318.513C303.6 323.278 300.149 328.865 299.163 330.837C297.356 334.287 289.304 343.325 279.281 353.676C277.145 355.813 275.502 357.949 275.502 358.442C275.502 358.935 272.873 362.057 269.751 365.343C266.629 368.629 264 371.915 264 372.737C264 374.38 268.929 374.544 268.929 372.737C268.929 371.587 273.037 366.657 286.018 351.869C301.135 334.944 303.435 332.151 303.435 331.001C303.435 330.344 306.065 325.743 309.187 320.813C315.266 311.283 315.759 309.968 313.459 309.968C312.801 309.968 309.679 313.912 306.722 318.513Z" fill="black"/>
<path d="M206.488 334.451C204.188 335.109 199.916 336.259 197.122 336.916C191.7 338.395 187.099 342.174 188.907 343.817C189.399 344.475 193.343 343.16 197.615 341.188C203.202 338.395 209.282 337.245 220.619 336.588C238.037 335.766 246.746 338.231 254.468 346.282C257.097 348.911 259.891 351.047 260.712 351.047C266.628 351.047 253.647 338.888 244.117 335.602C236.722 332.973 214.211 332.315 206.488 334.451Z" fill="black"/>
</g>
<path d="M175.317 1.0169C183.88 0.0851466 193.807 -0.165929 202.668 0.0999097C210.918 0.347383 220.126 1.08789 226.728 2.8294C227.781 3.08484 231.143 3.58351 240.77 2.38018L240.945 2.3587L241.118 2.34014C256.862 0.653235 276.701 1.26589 295.977 3.69561L295.978 3.69464C305.685 4.90807 312.847 7.61595 322.609 12.9603C326.379 14.9595 329.3 16.3891 331.289 17.2659C331.681 17.439 331.999 17.5725 332.247 17.6741C334.804 18.1238 336.755 18.9291 337.822 19.4105C339.652 20.2362 341.189 21.1902 342.315 21.9515C344.577 23.481 346.755 25.3159 348.651 27.0384C352.528 30.5598 356.918 35.1602 361.292 40.1009C370.01 49.9465 379.902 62.5496 387.262 73.8304C390.077 78.0116 392.643 81.739 394.555 84.4017C395.111 85.175 395.566 85.796 395.925 86.2747C398.198 88.2552 399.753 90.4356 400.747 92.1937C401.697 93.8744 402.46 95.7265 402.98 97.6985C403.601 98.697 404.473 99.9789 405.451 101.266C407.278 103.67 409.04 106.174 410.432 108.358C411.106 109.415 411.867 110.667 412.532 111.939C412.643 112.151 412.769 112.405 412.909 112.69C416.829 116.559 421.016 122.158 423.778 126.118C425.618 128.757 427.466 131.592 428.943 134.175C429.576 135.283 430.284 136.593 430.92 137.977C431.18 138.215 431.441 138.46 431.698 138.717C432.931 139.95 435.126 142.425 436.634 146.053C438.382 148.236 439.729 150.571 440.703 152.739C441.262 153.984 441.956 155.749 442.469 157.881C442.865 158.441 443.235 158.991 443.572 159.511C444.86 161.502 446.214 163.885 447.429 166.375C449.707 170.647 451.488 175.122 452.337 181.18C453.067 186.38 453.033 192.372 452.873 199.348C452.786 204.03 452.614 208.603 452.356 212.219C452.23 213.98 452.06 215.879 451.808 217.571C451.692 218.352 451.481 219.631 451.099 221.028C450.916 221.699 450.547 222.942 449.89 224.381C449.662 224.882 448.93 226.51 447.456 228.411C446.924 229.421 446.137 231.044 445.148 233.24C443.425 237.063 441.378 241.967 439.437 246.982L438.612 249.135C436.811 254.019 434.006 258.991 430.228 262.875C428.485 264.668 425.104 267.726 420.103 269.366C418.073 270.031 415.685 270.448 413.147 270.435C412.424 271.763 411.676 273.231 410.911 274.852C409.282 278.434 407.634 282.017 406.271 284.911C405.207 287.17 403.571 290.642 402.373 292.561C402.388 292.537 402.272 292.726 401.998 293.209C401.748 293.648 401.44 294.204 401.096 294.838C400.576 295.797 400.02 296.848 399.512 297.839L399.023 298.804L398.654 299.518C396.76 303.063 394.163 306.265 392.095 308.555C389.831 311.062 387.045 313.74 384.06 316.013C380.911 318.631 372.358 326.415 365.006 333.606C362.411 336.202 360.411 338.262 358.871 339.925C358.258 340.586 357.751 341.154 357.331 341.634C357.183 342.88 354.164 345.461 354.164 345.461C354.135 345.494 349.607 350.663 345.567 354.624L304.683 386.34C304.009 386.885 303.231 387.533 302.388 388.261C300.361 390.011 298.182 391.798 296.22 393.248C295.28 393.943 294.062 394.805 292.756 395.583C292.32 395.843 291.698 396.198 290.942 396.573C290.201 397.212 289.244 398.077 288.17 399.096C286.033 401.202 283.661 403.24 281.337 404.909C280.142 405.768 278.609 406.783 276.879 407.675C276.496 407.873 275.49 408.406 274.025 408.945C272.557 410.002 271.237 410.705 270.35 411.134C268.798 411.885 266.846 412.627 264.594 413.105C264.396 413.24 264.184 413.391 263.972 413.555C261.228 415.689 258.216 417.471 255.405 418.785C253.64 419.61 249.481 421.469 244.551 421.796C244.434 421.824 244.285 421.859 244.108 421.907C243.678 422.022 243.196 422.168 242.716 422.329C242.473 422.411 242.254 422.49 242.062 422.562L241.575 422.755L241.523 422.777L240.501 423.189C229.89 427.328 217.64 427.663 207.417 426.235C197.129 424.797 184.686 420.98 175.815 412.902C176.095 413.156 175.923 412.983 174.868 412.187C173.987 411.522 172.806 410.659 171.397 409.659C168.579 407.66 165.085 405.28 161.656 403.07L161.568 403.014L161.481 402.956C153.483 397.683 147.049 392.92 140.789 386.839C134.638 380.865 129.17 374.115 122.658 365.404L122.576 365.293C120.444 362.4 118.103 359.368 116.105 356.875C115.106 355.629 114.237 354.572 113.555 353.769C112.766 352.839 112.53 352.607 112.691 352.768L112.519 352.596L109.253 349.166L109.224 349.137L109.195 349.106C108.755 348.64 108.416 348.231 108.413 348.228C108.318 348.116 108.239 348.019 108.199 347.97C108.117 347.87 108.024 347.754 107.968 347.686C107.833 347.519 107.678 347.328 107.482 347.09C107.093 346.617 106.54 345.953 105.85 345.162C104.45 343.557 102.58 341.531 100.499 339.575C96.2366 335.579 90.465 327.998 86.9663 323L86.8374 322.817L86.7124 322.629C85.1452 320.278 83.6315 318.065 82.478 316.42C81.8955 315.589 81.4496 314.968 81.1587 314.573C81.1564 314.569 81.1532 314.566 81.1509 314.563C79.8446 313.054 78.7692 311.496 78.3452 310.889C77.3831 309.511 76.2963 307.874 75.2095 306.182C73.1011 302.9 70.651 298.878 68.7866 295.459L68.4907 294.914C67.0273 292.179 65.8874 289.278 65.0816 286.675C65.0314 286.513 64.9821 286.343 64.9302 286.169C64.1967 285.551 63.5526 284.949 63.0024 284.399C60.3108 281.707 58.169 278.623 56.5698 275.884C54.3865 272.144 51.7986 266.59 50.7095 260.468C49.9779 260.023 49.3067 259.569 48.7007 259.132C46.2096 258.975 44.3026 258.411 43.5054 258.163C42.2813 257.784 41.2347 257.352 40.4888 257.023C38.9864 256.359 37.5338 255.583 36.3198 254.897C33.8293 253.49 31.0244 251.708 28.3257 249.89C23.0933 246.365 16.7587 241.691 12.5542 237.819L12.4253 237.7C10.124 235.542 4.28645 230.619 2.08253 221.322C1.27666 217.922 1.07427 214.514 0.982917 211.731C0.887529 208.824 0.890144 205.203 0.890144 201.028C0.890145 194.606 1.04365 189.136 1.57081 184.831C1.83231 182.696 2.2777 180.023 3.19678 177.323C3.78038 175.608 4.90784 172.813 7.12061 170.011C8.6307 163.789 12.2806 157.531 15.0737 153.203C18.5424 147.83 22.963 142.032 27.73 136.765C27.8134 136.67 27.8952 136.57 27.9741 136.47C28.285 135.3 28.6169 134.391 28.8306 133.83C29.4971 132.081 30.2978 130.487 31.0523 129.148C32.4863 126.602 34.3389 123.947 36.4624 121.503C37.0796 120.751 37.9901 119.517 38.9175 118.103C39.3783 117.4 39.7799 116.749 40.0962 116.206C40.2524 115.938 40.3738 115.722 40.4614 115.558C40.5513 115.39 40.5837 115.321 40.5737 115.342C42.6387 110.954 45.8992 107.226 48.1226 104.925C50.6714 102.287 53.8439 99.5029 57.2212 97.2513C58.0606 96.6916 59.2627 95.7305 60.3823 94.6624C60.8536 94.2128 61.2011 93.8435 61.4214 93.597C63.1218 90.8262 65.141 88.4285 66.9732 86.5648C68.6509 84.858 70.9869 82.7693 73.7944 81.0335C73.9293 80.8991 74.1014 80.7228 74.3062 80.5023C75.2509 79.4848 76.305 78.1714 77.1187 76.9749C78.6013 74.7946 80.107 72.6474 81.3892 70.9056C82.0176 70.0518 82.6986 69.1524 83.354 68.3431C83.3713 68.3216 84.1333 67.3233 85.3384 66.1155C85.4433 65.9954 85.6329 65.7781 85.9273 65.4329C86.5836 64.663 87.5299 63.5367 88.7808 62.0257C91.2753 59.0123 94.8724 54.6067 99.6011 48.7366C105.07 41.8303 112.414 34.3114 119.27 28.097C125.643 22.3199 133.688 15.7371 140.348 12.5521C144.146 10.7285 149.294 8.07525 151.566 6.86358L151.796 6.74151L152.03 6.62432C155.74 4.76945 160.377 3.61448 163.43 2.94073C167.052 2.14138 171.201 1.44545 175.174 1.03155C175.21 1.02767 175.245 1.02467 175.281 1.02081C175.293 1.01957 175.305 1.01813 175.317 1.0169ZM221.873 22.0882C213.492 19.7878 192.296 19.1306 177.343 20.7737C170.935 21.431 163.541 23.0735 160.912 24.388C158.447 25.7025 153.025 28.4964 148.917 30.4681C141.359 34.083 124.27 49.5283 115.068 61.1946C105.538 73.0254 100.443 79.1055 99.6216 79.9271C98.9637 80.4211 96.3353 84.0358 93.5425 88.1429C90.7493 92.2505 86.8056 96.5227 84.6694 97.6732C82.5334 98.8235 79.5749 101.782 78.0962 104.41C76.6171 106.875 72.1818 111.147 68.2388 113.776C64.2952 116.405 59.858 121.007 58.5435 123.8C57.2288 126.593 54.1066 131.357 51.6421 134.315C49.013 137.272 47.0405 140.889 47.0405 142.367C47.04 143.682 45.0693 147.133 42.605 149.926C34.3895 158.963 27.3236 169.972 26.3374 175.066C25.6802 177.859 24.2014 180.98 23.0513 181.966C21.5108 183.198 20.8365 187.754 20.7583 198.743L20.7505 201.028C20.7505 218.281 20.7512 218.281 26.0093 223.21C32.2531 228.961 47.5324 239.312 49.9985 239.313C50.9843 239.313 52.1344 238.327 52.6274 237.177C53.1205 235.863 54.5996 236.684 56.8999 239.642C58.8716 242.271 61.6654 244.242 62.98 244.242C66.5947 244.243 69.8809 249.172 70.0454 254.758C70.0454 261.166 76.4536 272.176 80.2329 272.176C82.3689 272.176 83.1909 273.491 83.1909 276.284C83.1911 278.585 84.5059 282.856 86.1489 285.814C89.2709 291.565 95.0218 300.438 96.3364 301.753C96.8309 302.248 99.9517 306.684 103.237 311.612C106.687 316.541 111.452 322.62 114.082 325.085C119.498 330.173 123.44 335.261 123.635 335.469L126.734 338.724C128.542 340.532 133.964 347.268 138.565 353.512C151.217 370.437 157.462 376.516 172.415 386.375C179.808 391.14 187.366 396.563 189.174 398.206C198.54 406.75 220.887 409.873 233.868 404.45C236.99 403.136 241.262 401.986 243.07 401.986C244.877 401.985 248.821 400.178 251.779 397.877C254.736 395.577 258.187 393.77 259.666 393.77C260.98 393.77 262.624 392.948 263.117 392.126C263.61 391.141 265.253 390.484 266.403 390.484C267.718 390.483 271.332 387.853 274.454 384.732C277.739 381.611 280.861 378.982 281.519 378.981C282.341 378.981 285.792 376.353 289.407 373.231C293.021 370.109 296.471 367.479 297.293 367.479C297.951 367.479 300.087 366 302.223 364.193C308.796 357.949 310.768 356.634 317.012 352.855C320.298 350.883 323.645 347.317 323.645 347.317L325.72 345.461C326.654 344.738 330.092 341.299 330.092 341.299C330.095 341.297 330.526 340.864 331.812 339.15L332.671 337.861L333.114 337.431C333.114 337.431 334.662 336.39 335.68 335.711C336.97 334.852 337.4 334.421 337.4 334.421C337.431 334.381 340.044 330.914 351.025 319.498C358.747 311.94 368.114 303.397 371.729 300.439C375.508 297.645 379.78 292.88 381.259 289.922C382.738 286.965 384.71 283.35 385.532 282.035C386.353 280.721 389.639 273.655 392.925 266.425C397.033 257.717 401.47 250.979 406.399 246.378C410.507 242.435 413.958 239.313 414.287 239.313C414.615 239.314 413.958 241.45 412.972 244.242C411.986 246.871 411.658 249.501 412.315 250.159C413.958 251.965 417.902 248.021 420.038 242.106L420.719 240.324C425.175 228.755 430.297 217.404 431.704 216.309C432.361 215.816 432.854 207.929 433.018 198.892C433.347 184.597 432.855 181.145 429.733 175.395C427.926 171.616 425.625 168.165 424.803 167.671C423.982 167.178 423.324 165.371 423.324 163.728L423.311 163.41C423.18 161.78 422.091 159.527 420.859 158.141C419.545 156.827 418.394 155.019 418.394 154.198C418.394 153.212 417.244 152.226 415.93 151.569C414.616 151.076 413.464 149.596 413.464 148.117C413.463 145.323 402.619 129.879 398.183 126.1C396.54 124.95 395.39 123.142 395.39 122.321C395.39 121.499 392.761 117.391 389.639 113.284C386.517 109.176 383.889 104.739 383.888 103.588C383.888 102.438 383.23 101.289 382.409 100.96C381.586 100.63 376.493 93.4003 370.743 84.8567C357.269 64.1537 333.445 37.2073 328.514 37.2054C326.871 37.2053 321.283 34.7402 313.232 30.4681C304.852 25.8676 300.087 24.2242 293.515 23.4026C275.276 21.1022 257.036 20.6094 243.234 22.0882C232.718 23.4027 226.473 23.2384 221.873 22.0882ZM281.519 398.842L282.102 398.833C282.143 398.832 282.184 398.829 282.225 398.827L281.519 398.842ZM297.293 387.339L297.739 387.335C297.785 387.334 297.831 387.332 297.876 387.33L297.293 387.339ZM443.895 231.986L443.897 231.987C443.93 231.961 443.962 231.934 443.995 231.909C443.962 231.934 443.928 231.96 443.895 231.986Z" fill="white"/>
<path d="M1680 212.026C1680 221.509 1677.59 228.582 1672.77 233.246C1668.11 237.754 1662.9 240.008 1657.15 240.008H1601.89C1601.89 244.36 1604.45 248.014 1609.58 250.967C1614.71 253.921 1619.84 255.398 1624.97 255.398C1633.99 255.398 1641.06 254.465 1646.19 252.599L1648.75 251.667C1652.49 249.957 1655.59 249.102 1658.08 249.102C1663.06 249.102 1667.33 252.599 1670.91 259.595C1672.93 263.792 1673.94 267.367 1673.94 270.321C1673.94 284.156 1657.38 291.074 1624.27 291.074C1612.77 291.074 1602.51 289.131 1593.49 285.244C1584.63 281.203 1577.71 275.917 1572.74 269.388C1562.94 256.797 1558.05 242.728 1558.05 227.183C1558.05 207.596 1564.34 191.973 1576.94 180.314C1589.68 168.5 1605.54 162.593 1624.5 162.593C1646.11 162.593 1661.97 170.21 1672.07 185.444C1677.36 193.528 1680 202.388 1680 212.026ZM1630.8 218.789C1636.71 218.789 1639.66 216.301 1639.66 211.327C1639.66 207.752 1638.26 204.876 1635.46 202.699C1632.82 200.523 1628.93 199.435 1623.8 199.435C1618.83 199.435 1613.86 201.533 1608.88 205.731C1603.91 209.772 1601.42 214.125 1601.42 218.789H1630.8Z" fill="black"/>
<path d="M1482.98 226.716C1482.98 233.245 1485.16 238.375 1489.51 242.106C1493.87 245.681 1498.45 247.469 1503.27 247.469C1508.24 247.469 1512.83 246.07 1517.03 243.272C1521.38 240.318 1524.88 238.842 1527.52 238.842C1532.18 238.842 1537.86 242.961 1544.54 251.2C1548.12 255.708 1549.91 259.75 1549.91 263.325C1549.91 269.232 1545.63 274.751 1537.08 279.881C1528.22 286.099 1517.34 289.208 1504.44 289.208C1489.98 289.208 1476.07 284 1462.7 273.585C1456.32 268.611 1451.12 262.004 1447.07 253.765C1443.03 245.371 1441.01 236.199 1441.01 226.25C1441.01 216.146 1443.03 207.052 1447.07 198.968C1451.12 190.729 1456.32 184.123 1462.7 179.148C1475.6 168.888 1489.36 163.758 1503.97 163.758C1509.88 163.758 1515.63 164.613 1521.22 166.323C1526.82 167.878 1530.94 169.432 1533.58 170.987L1537.31 173.319C1540.11 175.184 1542.29 176.661 1543.84 177.749C1547.88 180.858 1549.91 184.433 1549.91 188.475C1549.91 192.361 1548.27 196.792 1545.01 201.766C1539.41 210.316 1534.05 214.591 1528.92 214.591C1525.97 214.591 1521.77 212.881 1516.33 209.461C1513.53 206.818 1509.49 205.497 1504.2 205.497C1499.07 205.497 1494.25 207.363 1489.75 211.093C1485.24 214.824 1482.98 220.032 1482.98 226.716Z" fill="black"/>
<path d="M1385.35 178.215C1386.28 169.51 1392.42 165.157 1403.77 165.157C1409.83 165.157 1414.34 165.624 1417.29 166.556C1420.24 167.489 1422.27 169.121 1423.35 171.453C1424.6 173.785 1425.3 175.883 1425.45 177.749C1425.76 179.459 1425.92 182.101 1425.92 185.677V267.289C1425.92 270.864 1425.76 273.585 1425.45 275.45C1425.3 277.16 1424.68 279.181 1423.59 281.513C1421.41 285.555 1416.05 287.576 1407.5 287.576C1399.1 287.576 1393.43 286.565 1390.48 284.544C1387.68 282.368 1386.05 279.259 1385.58 275.217C1379.83 283.456 1370.19 287.576 1356.66 287.576C1343.3 287.576 1330.86 281.435 1319.36 269.155C1307.85 256.874 1302.1 242.65 1302.1 226.483C1302.1 210.161 1307.85 195.937 1319.36 183.811C1331.02 171.531 1343.76 165.39 1357.6 165.39C1362.88 165.39 1367.7 166.323 1372.05 168.189C1376.41 170.054 1379.44 171.842 1381.15 173.552C1382.86 175.106 1384.26 176.661 1385.35 178.215ZM1342.91 226.716C1342.91 231.846 1344.93 236.51 1348.97 240.707C1353.01 244.749 1357.91 246.769 1363.66 246.769C1369.41 246.769 1374.15 244.671 1377.88 240.474C1381.77 236.276 1383.71 231.691 1383.71 226.716C1383.71 221.586 1381.85 216.845 1378.12 212.492C1374.54 208.14 1369.65 205.963 1363.43 205.963C1357.36 205.963 1352.39 208.14 1348.5 212.492C1344.77 216.845 1342.91 221.586 1342.91 226.716Z" fill="black"/>
<path d="M1229.32 127.852C1229.32 124.276 1229.4 121.634 1229.56 119.924C1229.87 118.058 1230.57 115.96 1231.65 113.628C1233.83 109.431 1239.89 107.332 1249.84 107.332C1259.32 107.332 1265.23 109.431 1267.56 113.628C1268.81 115.96 1269.51 118.058 1269.66 119.924C1269.97 121.789 1270.13 124.509 1270.13 128.085V236.046C1270.13 241.642 1270.6 245.218 1271.53 246.772C1272.46 248.171 1274.48 248.871 1277.59 248.871C1280.86 248.871 1283.03 249.026 1284.12 249.337C1285.21 249.493 1286.53 250.115 1288.08 251.203C1291.19 253.224 1292.75 258.742 1292.75 267.758C1292.75 277.552 1291.19 283.537 1288.08 285.713C1284.04 288.511 1274.4 288.978 1259.17 287.112C1247.2 285.558 1239.43 281.594 1235.85 275.22C1231.5 267.603 1229.32 255.478 1229.32 238.844V127.852Z" fill="black"/>
<path d="M1093.59 321.386V185.211C1093.59 181.635 1093.67 178.992 1093.82 177.282C1094.13 175.572 1094.83 173.629 1095.92 171.453C1098.1 167.256 1103.3 165.157 1111.54 165.157C1119.78 165.157 1125.3 166.245 1128.1 168.422C1131.05 170.443 1132.76 173.474 1133.23 177.516C1139.13 169.432 1148.38 165.39 1160.98 165.39C1173.72 165.39 1185.77 171.375 1197.12 183.345C1208.47 195.315 1214.14 209.228 1214.14 225.084C1214.14 240.94 1208.47 254.853 1197.12 266.823C1185.93 278.793 1173.96 284.777 1161.21 284.777C1148.46 284.777 1139.21 281.202 1133.46 274.051V321.153C1133.46 324.729 1133.31 327.371 1132.99 329.081C1132.84 330.791 1132.14 332.734 1130.9 334.911C1129.81 337.242 1127.86 338.875 1125.07 339.807C1122.27 340.74 1118.46 341.206 1113.64 341.206C1108.82 341.206 1104.94 340.74 1101.98 339.807C1099.18 338.875 1097.16 337.32 1095.92 335.144C1094.83 332.967 1094.13 331.024 1093.82 329.314C1093.67 327.604 1093.59 324.962 1093.59 321.386ZM1139.76 211.56C1136.18 215.757 1134.39 220.343 1134.39 225.317C1134.39 230.292 1136.18 234.877 1139.76 239.075C1143.49 243.116 1148.15 245.137 1153.75 245.137C1159.5 245.137 1164.32 243.116 1168.2 239.075C1172.25 235.033 1174.27 230.447 1174.27 225.317C1174.27 220.187 1172.4 215.601 1168.67 211.56C1164.94 207.362 1160.04 205.264 1153.98 205.264C1148.07 205.264 1143.33 207.362 1139.76 211.56Z" fill="black"/>
<path d="M1034.45 178.215C1035.38 169.51 1041.52 165.157 1052.87 165.157C1058.93 165.157 1063.44 165.624 1066.39 166.556C1069.35 167.489 1071.37 169.121 1072.46 171.453C1073.7 173.785 1074.4 175.883 1074.55 177.749C1074.87 179.459 1075.02 182.101 1075.02 185.677V267.289C1075.02 270.864 1074.87 273.585 1074.55 275.45C1074.4 277.16 1073.78 279.181 1072.69 281.513C1070.51 285.555 1065.15 287.576 1056.6 287.576C1048.21 287.576 1042.53 286.565 1039.58 284.544C1036.78 282.368 1035.15 279.259 1034.68 275.217C1028.93 283.456 1019.29 287.576 1005.77 287.576C992.398 287.576 979.962 281.435 968.458 269.155C956.955 256.874 951.203 242.65 951.203 226.483C951.203 210.161 956.955 195.937 968.458 183.811C980.117 171.531 992.864 165.39 1006.7 165.39C1011.98 165.39 1016.8 166.323 1021.16 168.189C1025.51 170.054 1028.54 171.842 1030.25 173.552C1031.96 175.106 1033.36 176.661 1034.45 178.215ZM992.009 226.716C992.009 231.846 994.03 236.51 998.072 240.707C1002.11 244.749 1007.01 246.769 1012.76 246.769C1018.51 246.769 1023.26 244.671 1026.99 240.474C1030.87 236.276 1032.82 231.691 1032.82 226.716C1032.82 221.586 1030.95 216.845 1027.22 212.492C1023.64 208.14 1018.75 205.963 1012.53 205.963C1006.47 205.963 1001.49 208.14 997.606 212.492C993.875 216.845 992.009 221.586 992.009 226.716Z" fill="black"/>
<path d="M872.708 226.716C872.708 233.245 874.884 238.375 879.237 242.106C883.589 245.681 888.175 247.469 892.994 247.469C897.968 247.469 902.554 246.07 906.752 243.272C911.104 240.318 914.602 238.842 917.245 238.842C921.908 238.842 927.582 242.961 934.266 251.2C937.842 255.708 939.63 259.75 939.63 263.325C939.63 269.232 935.355 274.751 926.805 279.881C917.944 286.099 907.062 289.208 894.16 289.208C879.703 289.208 865.79 284 852.421 273.585C846.048 268.611 840.84 262.004 836.798 253.765C832.756 245.371 830.736 236.199 830.736 226.25C830.736 216.146 832.756 207.052 836.798 198.968C840.84 190.729 846.048 184.123 852.421 179.148C865.324 168.888 879.081 163.758 893.694 163.758C899.601 163.758 905.352 164.613 910.949 166.323C916.545 167.878 920.664 169.432 923.307 170.987L927.038 173.319C929.836 175.184 932.012 176.661 933.567 177.749C937.609 180.858 939.63 184.433 939.63 188.475C939.63 192.361 937.997 196.792 934.733 201.766C929.137 210.316 923.773 214.591 918.644 214.591C915.69 214.591 911.493 212.881 906.052 209.461C903.254 206.818 899.212 205.497 893.927 205.497C888.797 205.497 883.978 207.363 879.47 211.093C874.962 214.824 872.708 220.032 872.708 226.716Z" fill="black"/>
<path d="M775.07 178.215C776.002 169.51 782.143 165.157 793.491 165.157C799.553 165.157 804.061 165.624 807.015 166.556C809.969 167.489 811.989 169.121 813.078 171.453C814.321 173.785 815.021 175.883 815.176 177.749C815.487 179.459 815.643 182.101 815.643 185.677V267.289C815.643 270.864 815.487 273.585 815.176 275.45C815.021 277.16 814.399 279.181 813.311 281.513C811.134 285.555 805.771 287.576 797.222 287.576C788.827 287.576 783.153 286.565 780.2 284.544C777.401 282.368 775.769 279.259 775.303 275.217C769.551 283.456 759.913 287.576 746.389 287.576C733.02 287.576 720.584 281.435 709.08 269.155C697.577 256.874 691.825 242.65 691.825 226.483C691.825 210.161 697.577 195.937 709.08 183.811C720.739 171.531 733.486 165.39 747.321 165.39C752.607 165.39 757.426 166.323 761.779 168.189C766.131 170.054 769.162 171.842 770.872 173.552C772.582 175.106 773.981 176.661 775.07 178.215ZM732.631 226.716C732.631 231.846 734.652 236.51 738.694 240.707C742.736 244.749 747.632 246.769 753.384 246.769C759.136 246.769 763.877 244.671 767.608 240.474C771.494 236.276 773.437 231.691 773.437 226.716C773.437 221.586 771.572 216.845 767.841 212.492C764.266 208.14 759.369 205.963 753.151 205.963C747.088 205.963 742.114 208.14 738.228 212.492C734.497 216.845 732.631 221.586 732.631 226.716Z" fill="black"/>
<path d="M659.988 248.17C666.051 248.17 670.403 248.947 673.046 250.502C675.844 251.901 677.709 254 678.642 256.798C679.73 259.596 680.274 263.171 680.274 267.524C680.274 271.877 679.886 275.374 679.108 278.017C678.331 280.66 677.399 282.68 676.31 284.08C675.222 285.479 673.59 286.489 671.414 287.111C668.926 288.044 664.962 288.51 659.522 288.51H562.52C558.944 288.51 555.524 287.577 552.26 285.712C545.42 281.826 542 275.685 542 267.291C542 263.249 542.933 259.985 544.798 257.497L617.083 157.464H563.452C559.722 157.464 556.923 157.386 555.058 157.231C553.348 156.92 551.249 156.22 548.762 155.132C544.254 152.956 542 147.126 542 137.644C542 127.695 544.099 121.632 548.296 119.456C550.628 118.212 552.648 117.513 554.358 117.357C556.224 117.047 559.022 116.891 562.753 116.891H656.49C660.066 116.891 663.486 117.824 666.75 119.689C670.015 121.555 672.502 124.042 674.212 127.151C676.077 130.26 677.01 133.913 677.01 138.11C677.01 142.307 676.077 145.65 674.212 148.137L601.927 248.17H659.988Z" fill="black"/>
<defs>
<filter id="filter0_d_4290_2780" x="16.9109" y="19.8604" width="420.158" height="395.516" filterUnits="userSpaceOnUse" color-interpolation-filters="sRGB">
<feFlood flood-opacity="0" result="BackgroundImageFix"/>
<feColorMatrix in="SourceAlpha" type="matrix" values="0 0 0 0 0 0 0 0 0 0 0 0 0 0 0 0 0 0 127 0" result="hardAlpha"/>
<feOffset dy="4.3346"/>
<feGaussianBlur stdDeviation="1.95057"/>
<feComposite in2="hardAlpha" operator="out"/>
<feColorMatrix type="matrix" values="0 0 0 0 0 0 0 0 0 0 0 0 0 0 0 0 0 0 0.25 0"/>
<feBlend mode="normal" in2="BackgroundImageFix" result="effect1_dropShadow_4290_2780"/>
<feBlend mode="normal" in="SourceGraphic" in2="effect1_dropShadow_4290_2780" result="shape"/>
</filter>
</defs>
</svg>